{"glyphs":{"0":{"ha":833,"x_min":93,"x_max":740,"o":"m 417 -17 q 176 104 258 -17 q 93 485 93 225 q 176 865 93 744 q 417 986 258 986 q 658 865 575 986 q 740 485 740 744 q 658 104 740 225 q 417 -17 575 -17 m 417 29 q 618 131 551 29 q 685 432 685 233 l 685 538 q 618 838 685 736 q 417 940 551 940 q 215 838 282 940 q 149 538 149 736 l 149 432 q 215 131 149 233 q 417 29 282 29 m 417 439 q 380 450 390 439 q 369 476 369 461 l 369 493 q 380 519 369 508 q 417 531 390 531 q 453 519 443 531 q 464 493 464 508 l 464 476 q 453 450 464 461 q 417 439 443 439 z "},"1":{"ha":833,"x_min":108,"x_max":765,"o":"m 132 0 l 132 46 l 431 46 l 431 932 l 425 932 l 139 686 l 108 721 l 399 969 l 481 969 l 481 46 l 765 46 l 765 0 l 132 0 z "},"2":{"ha":833,"x_min":114,"x_max":729,"o":"m 729 0 l 115 0 l 115 51 l 478 408 q 588 548 549 478 q 628 694 628 618 l 628 731 q 572 881 628 822 q 407 940 517 940 q 245 890 303 940 q 160 754 188 840 l 114 768 q 151 854 126 814 q 211 924 175 894 q 297 969 247 953 q 408 986 346 986 q 613 913 543 986 q 682 714 682 840 q 637 536 682 617 q 508 375 592 456 l 171 46 l 729 46 l 729 0 z "},"3":{"ha":833,"x_min":90,"x_max":690,"o":"m 386 531 q 480 545 438 531 q 553 585 522 560 q 599 647 583 611 q 615 724 615 682 l 615 751 q 599 829 615 794 q 555 889 583 864 q 486 927 526 914 q 399 940 446 940 q 252 904 307 940 q 167 807 197 868 l 126 831 q 225 942 158 897 q 400 986 292 986 q 510 969 460 986 q 595 922 560 953 q 650 845 631 890 q 669 744 669 800 q 615 586 669 643 q 476 513 560 529 l 476 507 q 631 432 571 494 q 690 261 690 369 q 669 146 690 197 q 610 58 649 94 q 515 3 571 22 q 392 -17 460 -17 q 210 23 283 -17 q 90 136 138 63 l 129 164 q 235 63 174 96 q 392 29 297 29 q 568 88 501 29 q 635 243 635 146 l 635 275 q 570 428 635 371 q 390 486 506 486 l 261 486 l 261 531 l 386 531 z "},"4":{"ha":833,"x_min":61,"x_max":768,"o":"m 561 0 l 561 215 l 61 215 l 61 261 l 542 969 l 610 969 l 610 257 l 768 257 l 768 215 l 610 215 l 610 0 l 561 0 m 108 257 l 561 257 l 561 918 l 557 918 l 108 257 z "},"5":{"ha":833,"x_min":113,"x_max":711,"o":"m 675 924 l 229 924 l 197 482 l 203 482 q 297 558 243 535 q 428 581 350 581 q 635 503 560 581 q 711 288 711 426 q 690 162 711 218 q 631 66 669 106 q 536 5 592 26 q 413 -17 481 -17 q 233 23 306 -17 q 113 136 161 63 l 153 164 q 258 63 197 96 q 413 29 319 29 q 594 95 531 29 q 657 268 657 161 l 657 300 q 597 472 657 407 q 419 536 536 536 q 346 530 378 536 q 288 512 314 524 q 242 483 263 500 q 200 442 221 465 l 153 449 l 188 969 l 675 969 l 675 924 z "},"6":{"ha":833,"x_min":114,"x_max":718,"o":"m 417 -17 q 281 9 338 -17 q 187 80 224 35 q 132 188 150 125 q 114 324 114 250 q 144 537 114 439 q 224 715 174 635 q 343 859 275 796 q 486 969 411 922 l 556 969 q 408 858 472 915 q 295 737 343 801 q 216 599 247 672 q 169 440 185 526 l 174 439 q 274 547 210 510 q 425 585 338 585 q 545 565 492 585 q 638 506 599 544 q 697 412 676 467 q 718 289 718 357 q 697 163 718 219 q 636 67 675 107 q 541 6 597 28 q 417 -17 485 -17 m 415 28 q 519 46 474 28 q 598 95 565 64 q 647 170 631 126 q 664 267 664 214 l 664 303 q 647 398 664 354 q 599 473 631 442 q 520 522 567 504 q 415 540 474 540 q 310 522 357 540 q 232 473 264 504 q 183 398 200 442 q 167 303 167 354 l 167 269 q 184 172 167 217 q 233 96 201 128 q 311 46 265 64 q 415 28 357 28 z "},"7":{"ha":833,"x_min":103,"x_max":718,"o":"m 256 0 l 665 925 l 151 925 l 151 706 l 103 706 l 103 969 l 718 969 l 718 924 l 310 0 l 256 0 z "},"8":{"ha":833,"x_min":94,"x_max":739,"o":"m 417 -17 q 282 3 342 -17 q 181 58 222 22 q 117 143 139 93 q 94 253 94 193 q 151 421 94 356 q 304 506 207 486 l 304 513 q 174 592 222 532 q 126 743 126 651 q 204 921 126 856 q 417 986 282 986 q 629 921 551 986 q 707 743 707 856 q 659 592 707 651 q 529 513 611 532 l 529 506 q 683 421 626 486 q 739 253 739 356 q 717 143 739 193 q 653 58 694 93 q 551 3 611 22 q 417 -17 492 -17 m 417 28 q 613 86 540 28 q 685 240 685 144 l 685 275 q 613 429 685 371 q 417 488 540 488 q 221 429 293 488 q 149 275 149 371 l 149 240 q 221 86 149 144 q 417 28 293 28 m 417 531 q 589 582 525 531 q 653 721 653 633 l 653 751 q 589 890 653 839 q 417 942 525 942 q 244 890 308 942 q 181 751 181 839 l 181 721 q 244 582 181 633 q 417 531 308 531 z "},"9":{"ha":833,"x_min":118,"x_max":724,"o":"m 724 646 q 694 433 724 531 q 613 254 664 335 q 493 110 561 174 q 350 0 425 47 l 281 0 q 428 111 364 54 q 541 233 493 168 q 620 370 589 297 q 668 529 651 443 l 663 531 q 563 422 626 460 q 413 385 500 385 q 292 405 346 385 q 199 464 238 425 q 139 557 160 503 q 118 681 118 611 q 140 806 118 749 q 200 902 161 863 q 294 964 239 942 q 419 986 350 986 q 556 960 499 986 q 650 890 613 935 q 706 782 688 844 q 724 646 724 719 m 421 429 q 526 447 479 429 q 604 497 572 465 q 653 572 636 528 q 669 667 669 615 l 669 700 q 652 797 669 753 q 603 874 635 842 q 525 924 571 906 q 421 942 479 942 q 317 924 363 942 q 238 874 271 906 q 189 799 206 843 q 172 703 172 754 l 172 667 q 189 572 172 615 q 238 497 206 528 q 317 447 271 465 q 421 429 363 429 z "},"\u0000":{"ha":0,"x_min":0,"x_max":0,"o":""},"\r":{"ha":833,"x_min":0,"x_max":0,"o":""}," ":{"ha":833,"x_min":0,"x_max":0,"o":""},"a":{"ha":833,"x_min":104,"x_max":744,"o":"m 644 0 q 599 15 613 0 q 583 58 585 31 l 583 110 l 578 110 q 497 20 553 57 q 344 -17 442 -17 q 167 36 229 -17 q 104 186 104 89 q 118 268 104 231 q 165 333 132 306 q 253 374 199 360 q 386 389 307 389 l 582 389 l 582 492 q 528 642 582 593 q 382 690 475 690 q 250 659 307 690 q 164 561 193 628 l 128 585 q 220 692 157 651 q 383 733 283 733 q 565 672 500 733 q 631 497 631 610 l 631 43 l 744 43 l 744 0 l 644 0 m 349 25 q 438 37 396 25 q 513 72 481 49 q 563 128 544 94 q 582 206 582 161 l 582 350 l 388 350 q 210 310 264 350 q 157 207 157 271 l 157 165 q 210 61 157 97 q 349 25 263 25 z "},"b":{"ha":833,"x_min":164,"x_max":729,"o":"m 164 1028 l 213 1028 l 213 607 l 217 607 q 297 695 242 657 q 440 733 353 733 q 653 639 576 733 q 729 358 729 544 q 653 78 729 172 q 440 -17 576 -17 q 297 22 353 -17 q 217 110 242 60 l 213 110 l 213 0 l 164 0 l 164 1028 m 429 26 q 613 105 549 26 q 676 318 676 183 l 676 399 q 613 612 676 533 q 429 690 549 690 q 347 678 386 690 q 278 642 308 665 q 231 585 249 618 q 213 511 213 551 l 213 206 q 231 132 213 165 q 278 75 249 99 q 347 39 308 51 q 429 26 386 26 z "},"c":{"ha":833,"x_min":144,"x_max":703,"o":"m 446 -17 q 224 79 303 -17 q 144 358 144 175 q 224 638 144 542 q 446 733 303 733 q 604 690 542 733 q 693 575 667 646 l 651 558 q 575 656 628 622 q 446 690 522 690 q 261 612 325 690 q 197 399 197 533 l 197 318 q 261 105 197 183 q 446 26 325 26 q 582 64 528 26 q 665 165 636 101 l 703 143 q 665 81 689 110 q 610 31 642 53 q 537 -4 578 8 q 446 -17 496 -17 z "},"d":{"ha":833,"x_min":104,"x_max":669,"o":"m 621 110 l 617 110 q 536 22 592 60 q 393 -17 481 -17 q 181 78 257 -17 q 104 358 104 172 q 181 639 104 544 q 393 733 257 733 q 536 695 481 733 q 617 607 592 657 l 621 607 l 621 1028 l 669 1028 l 669 0 l 621 0 l 621 110 m 404 26 q 486 39 447 26 q 555 75 525 51 q 603 132 585 99 q 621 206 621 165 l 621 511 q 603 585 621 551 q 555 642 585 618 q 486 678 525 665 q 404 690 447 690 q 221 612 285 690 q 157 399 157 533 l 157 318 q 221 105 157 183 q 404 26 285 26 z "},"e":{"ha":833,"x_min":119,"x_max":717,"o":"m 426 -17 q 201 79 282 -17 q 119 358 119 175 q 200 638 119 542 q 419 733 281 733 q 547 708 492 733 q 640 635 603 682 q 697 521 678 588 q 717 374 717 454 l 717 354 l 172 354 l 172 318 q 238 105 172 183 q 426 26 304 26 q 572 67 513 26 q 664 188 632 107 l 703 167 q 601 33 671 83 q 426 -17 531 -17 m 419 692 q 237 613 301 692 q 172 399 172 533 l 172 393 l 665 393 l 665 400 q 601 613 665 535 q 419 692 538 692 z "},"f":{"ha":833,"x_min":113,"x_max":744,"o":"m 126 43 l 389 43 l 389 674 l 113 674 l 113 717 l 389 717 l 389 958 q 457 1028 389 1028 l 744 1028 l 744 985 l 436 985 l 436 717 l 744 717 l 744 674 l 436 674 l 436 43 l 713 43 l 713 0 l 126 0 l 126 43 z "},"g":{"ha":833,"x_min":118,"x_max":772,"o":"m 760 -86 q 672 -244 760 -194 q 421 -294 585 -294 q 189 -245 260 -294 q 118 -114 118 -196 q 153 -12 118 -51 q 253 47 189 28 l 253 54 q 181 149 181 78 q 217 229 181 200 q 301 272 253 258 l 301 276 q 206 359 240 304 q 172 493 172 414 q 190 592 172 547 q 239 667 207 636 q 317 716 271 699 q 421 733 364 733 q 572 690 510 733 l 572 736 q 624 788 572 788 l 772 788 l 772 744 l 606 744 l 606 664 q 654 589 638 632 q 671 493 671 546 q 653 394 671 439 q 601 317 635 349 q 522 269 568 286 q 421 251 476 251 q 346 260 383 251 q 258 221 290 246 q 225 156 225 196 q 251 106 225 126 q 344 85 276 85 l 525 85 q 704 38 649 85 q 760 -86 760 -8 m 713 -89 q 670 5 713 -29 q 522 39 628 39 l 300 39 q 204 -13 240 22 q 168 -108 168 -49 q 224 -214 168 -175 q 381 -253 281 -253 l 458 -253 q 643 -213 574 -253 q 713 -89 713 -174 m 421 292 q 567 342 517 292 q 618 468 618 392 l 618 518 q 567 643 618 593 q 421 693 517 693 q 275 643 325 693 q 225 518 225 593 l 225 468 q 276 342 225 392 q 421 292 326 292 z "},"h":{"ha":833,"x_min":167,"x_max":679,"o":"m 167 1028 l 215 1028 l 215 611 l 219 611 q 247 657 229 635 q 290 696 264 679 q 353 723 317 713 q 436 733 389 733 q 617 665 554 733 q 679 465 679 596 l 679 0 l 631 0 l 631 457 q 578 635 631 579 q 425 690 525 690 q 347 679 385 690 q 279 646 308 668 q 233 590 250 624 q 215 513 215 557 l 215 0 l 167 0 l 167 1028 z "},"i":{"ha":833,"x_min":158,"x_max":747,"o":"m 461 940 q 422 952 433 940 q 410 982 410 964 l 410 994 q 422 1024 410 1013 q 461 1036 433 1036 q 501 1024 489 1036 q 513 994 513 1013 l 513 982 q 501 952 513 964 q 461 940 489 940 m 158 43 l 438 43 l 438 674 l 158 674 l 158 717 l 486 717 l 486 43 l 747 43 l 747 0 l 158 0 l 158 43 z "},"j":{"ha":833,"x_min":132,"x_max":622,"o":"m 151 -235 l 546 -235 l 546 674 l 132 674 l 132 717 l 594 717 l 594 -208 q 526 -278 594 -278 l 151 -278 l 151 -235 m 571 940 q 531 952 543 940 q 519 982 519 964 l 519 994 q 531 1024 519 1013 q 571 1036 543 1036 q 610 1024 599 1036 q 622 994 622 1013 l 622 982 q 610 952 622 964 q 571 940 599 940 z "},"k":{"ha":833,"x_min":182,"x_max":783,"o":"m 182 1028 l 231 1028 l 231 322 l 235 322 l 390 460 l 683 717 l 746 717 l 429 436 l 783 0 l 724 0 l 392 406 l 231 265 l 231 0 l 182 0 l 182 1028 z "},"l":{"ha":833,"x_min":122,"x_max":711,"o":"m 122 43 l 393 43 l 393 985 l 122 985 l 122 1028 l 442 1028 l 442 43 l 711 43 l 711 0 l 122 0 l 122 43 z "},"m":{"ha":833,"x_min":96,"x_max":739,"o":"m 96 0 l 96 717 l 142 717 l 142 632 l 146 632 q 197 705 163 676 q 292 733 231 733 q 386 703 351 733 q 432 619 421 674 l 435 619 q 488 701 451 668 q 590 733 525 733 q 703 684 668 733 q 739 542 739 635 l 739 0 l 693 0 l 693 535 q 665 655 693 618 q 578 692 636 692 q 481 652 521 692 q 440 532 440 613 l 440 0 l 394 0 l 394 535 q 366 655 394 618 q 279 692 338 692 q 183 652 224 692 q 142 532 142 613 l 142 0 l 96 0 z "},"n":{"ha":833,"x_min":167,"x_max":679,"o":"m 167 0 l 167 717 l 215 717 l 215 611 l 219 611 q 247 657 229 635 q 290 696 264 679 q 353 723 317 713 q 436 733 389 733 q 617 665 554 733 q 679 465 679 596 l 679 0 l 631 0 l 631 457 q 578 635 631 579 q 425 690 525 690 q 347 679 385 690 q 279 646 308 668 q 233 590 250 624 q 215 513 215 557 l 215 0 l 167 0 z "},"o":{"ha":833,"x_min":117,"x_max":717,"o":"m 417 -17 q 196 79 275 -17 q 117 358 117 175 q 196 638 117 542 q 417 733 275 733 q 638 638 558 733 q 717 358 717 542 q 638 79 717 175 q 417 -17 558 -17 m 417 26 q 599 104 535 26 q 664 321 664 182 l 664 396 q 599 613 664 535 q 417 690 535 690 q 234 613 299 690 q 169 396 169 535 l 169 321 q 234 104 169 182 q 417 26 299 26 z "},"p":{"ha":833,"x_min":164,"x_max":729,"o":"m 164 717 l 213 717 l 213 607 l 217 607 q 297 695 242 657 q 440 733 353 733 q 653 639 576 733 q 729 358 729 544 q 653 78 729 172 q 440 -17 576 -17 q 297 22 353 -17 q 217 110 242 60 l 213 110 l 213 -278 l 164 -278 l 164 717 m 429 26 q 613 105 549 26 q 676 318 676 183 l 676 399 q 613 612 676 533 q 429 690 549 690 q 347 678 386 690 q 278 642 308 665 q 231 585 249 618 q 213 511 213 551 l 213 206 q 231 132 213 165 q 278 75 249 99 q 347 39 308 51 q 429 26 386 26 z "},"q":{"ha":833,"x_min":104,"x_max":669,"o":"m 621 110 l 617 110 q 536 22 592 60 q 393 -17 481 -17 q 181 78 257 -17 q 104 358 104 172 q 181 639 104 544 q 393 733 257 733 q 536 695 481 733 q 617 607 592 657 l 621 607 l 621 717 l 669 717 l 669 -278 l 621 -278 l 621 110 m 404 26 q 486 39 447 26 q 555 75 525 51 q 603 132 585 99 q 621 206 621 165 l 621 511 q 603 585 621 551 q 555 642 585 618 q 486 678 525 665 q 404 690 447 690 q 221 612 285 690 q 157 399 157 533 l 157 318 q 221 105 157 183 q 404 26 285 26 z "},"r":{"ha":833,"x_min":110,"x_max":774,"o":"m 110 43 l 349 43 l 349 674 l 110 674 l 110 717 l 397 717 l 397 568 l 401 568 q 431 626 414 599 q 476 673 449 653 q 540 705 503 693 q 628 717 578 717 l 774 717 l 774 671 l 615 671 q 530 656 569 671 q 461 614 490 642 q 415 544 432 586 q 397 447 397 501 l 397 43 l 703 43 l 703 0 l 110 0 l 110 43 z "},"s":{"ha":833,"x_min":118,"x_max":721,"o":"m 438 -17 q 255 19 333 -17 q 118 125 176 54 l 153 154 q 276 56 207 88 q 438 25 344 25 q 608 66 543 25 q 672 193 672 107 q 660 256 672 231 q 624 297 647 281 q 567 322 600 313 q 493 336 533 331 l 382 351 q 294 369 336 358 q 222 400 253 379 q 172 453 190 421 q 153 536 153 486 q 174 626 153 589 q 230 688 194 664 q 313 722 265 711 q 415 733 361 733 q 509 724 467 733 q 585 699 551 715 q 647 663 619 683 q 694 621 674 643 l 661 588 q 622 626 644 607 q 570 659 600 644 q 502 683 540 674 q 414 692 464 692 q 259 655 317 692 q 201 539 201 618 q 214 477 201 501 q 250 437 226 453 q 307 412 274 421 q 381 397 340 403 l 493 381 q 580 363 539 374 q 652 333 621 353 q 702 279 683 313 q 721 196 721 246 q 699 101 721 142 q 640 35 678 61 q 551 -3 603 10 q 438 -17 499 -17 z "},"t":{"ha":833,"x_min":51,"x_max":726,"o":"m 389 0 q 321 69 321 0 l 321 674 l 51 674 l 51 717 l 275 717 q 322 763 322 717 l 322 969 l 369 969 l 369 717 l 726 717 l 726 674 l 369 674 l 369 43 l 726 43 l 726 0 l 389 0 z "},"u":{"ha":833,"x_min":154,"x_max":667,"o":"m 618 106 l 614 106 q 542 21 594 58 q 397 -17 490 -17 q 217 52 279 -17 q 154 251 154 121 l 154 717 l 203 717 l 203 260 q 256 82 203 138 q 408 26 308 26 q 487 38 449 26 q 554 71 525 49 q 601 126 583 93 q 618 204 618 160 l 618 717 l 667 717 l 667 0 l 618 0 l 618 106 z "},"v":{"ha":833,"x_min":119,"x_max":714,"o":"m 386 0 l 119 717 l 169 717 l 415 47 l 419 47 l 665 717 l 714 717 l 447 0 l 386 0 z "},"w":{"ha":833,"x_min":50,"x_max":783,"o":"m 50 717 l 94 717 l 214 43 l 219 43 l 386 717 l 449 717 l 615 43 l 621 43 l 740 717 l 783 717 l 654 0 l 585 0 l 421 668 l 415 668 l 249 0 l 179 0 l 50 717 z "},"x":{"ha":833,"x_min":114,"x_max":719,"o":"m 114 0 l 388 361 l 119 717 l 178 717 l 417 399 l 419 399 l 658 717 l 714 717 l 446 363 l 719 0 l 660 0 l 417 325 l 414 325 l 171 0 l 114 0 z "},"y":{"ha":833,"x_min":106,"x_max":728,"o":"m 678 717 l 728 717 l 336 -229 q 308 -266 325 -254 q 260 -278 292 -278 l 126 -278 l 126 -235 l 285 -235 l 392 24 l 106 717 l 157 717 l 415 86 l 419 86 l 678 717 z "},"z":{"ha":833,"x_min":136,"x_max":697,"o":"m 136 0 l 136 47 l 631 674 l 150 674 l 150 717 l 683 717 l 683 669 l 189 43 l 697 43 l 697 0 l 136 0 z "},"A":{"ha":833,"x_min":65,"x_max":768,"o":"m 715 0 l 613 314 l 221 314 l 118 0 l 65 0 l 383 969 l 451 969 l 768 0 l 715 0 m 419 914 l 413 914 l 233 358 l 600 358 l 419 914 z "},"B":{"ha":833,"x_min":133,"x_max":725,"o":"m 133 969 l 446 969 q 621 906 558 969 q 683 722 683 843 q 647 576 683 629 q 544 501 610 522 l 544 499 q 678 420 632 481 q 725 260 725 360 q 708 154 725 201 q 660 72 692 107 q 583 19 629 38 q 479 0 538 0 l 133 0 l 133 969 m 471 46 q 558 60 521 46 q 621 100 596 75 q 658 158 646 125 q 671 229 671 192 l 671 288 q 658 358 671 325 q 621 417 646 392 q 558 458 596 443 q 471 472 521 472 l 183 472 l 183 46 l 471 46 m 443 515 q 525 529 490 515 q 583 567 560 543 q 617 623 606 590 q 629 692 629 656 l 629 749 q 617 817 629 785 q 583 872 606 849 q 525 910 560 896 q 443 924 490 924 l 183 924 l 183 515 l 443 515 z "},"C":{"ha":833,"x_min":107,"x_max":726,"o":"m 451 -17 q 195 103 283 -17 q 107 485 107 224 q 195 865 107 744 q 451 986 283 986 q 626 930 558 986 q 726 786 694 874 l 682 768 q 597 894 654 847 q 451 940 540 940 q 235 838 308 940 q 163 538 163 736 l 163 432 q 235 131 163 233 q 451 29 308 29 q 597 76 540 29 q 682 201 654 122 l 726 183 q 626 40 694 96 q 451 -17 558 -17 z "},"D":{"ha":833,"x_min":146,"x_max":739,"o":"m 146 969 l 403 969 q 658 847 578 969 q 739 485 739 725 q 658 122 739 244 q 403 0 578 0 l 146 0 l 146 969 m 403 46 q 616 149 549 46 q 683 433 683 251 l 683 536 q 616 821 683 718 q 403 924 549 924 l 196 924 l 196 46 l 403 46 z "},"E":{"ha":833,"x_min":144,"x_max":715,"o":"m 144 0 l 144 969 l 715 969 l 715 924 l 194 924 l 194 515 l 697 515 l 697 469 l 194 469 l 194 46 l 715 46 l 715 0 l 144 0 z "},"F":{"ha":833,"x_min":144,"x_max":724,"o":"m 144 0 l 144 969 l 724 969 l 724 924 l 194 924 l 194 515 l 683 515 l 683 469 l 194 469 l 194 0 l 144 0 z "},"G":{"ha":833,"x_min":97,"x_max":715,"o":"m 667 140 l 661 140 q 628 78 647 107 q 582 29 610 50 q 516 -4 554 8 q 424 -17 478 -17 q 182 103 267 -17 q 97 483 97 222 q 183 866 97 746 q 432 986 269 986 q 606 930 538 986 q 706 786 674 874 l 661 768 q 577 894 633 847 q 433 940 521 940 q 224 838 294 940 q 153 538 153 736 l 153 433 q 222 131 153 235 q 431 28 292 28 q 530 46 486 28 q 604 97 574 64 q 651 176 635 131 q 667 275 667 221 l 667 404 l 429 404 l 429 447 l 715 447 l 715 0 l 667 0 l 667 140 z "},"H":{"ha":833,"x_min":131,"x_max":703,"o":"m 653 469 l 181 469 l 181 0 l 131 0 l 131 969 l 181 969 l 181 514 l 653 514 l 653 969 l 703 969 l 703 0 l 653 0 l 653 469 z "},"I":{"ha":833,"x_min":125,"x_max":708,"o":"m 125 0 l 125 42 l 392 42 l 392 928 l 125 928 l 125 969 l 708 969 l 708 928 l 442 928 l 442 42 l 708 42 l 708 0 l 125 0 z "},"J":{"ha":833,"x_min":126,"x_max":647,"o":"m 647 969 l 647 260 q 575 56 647 128 q 383 -17 503 -17 q 213 33 281 -17 q 126 174 146 83 l 175 185 q 242 72 192 114 q 385 29 293 29 q 541 90 485 29 q 597 267 597 150 l 597 924 l 214 924 l 214 969 l 647 969 z "},"K":{"ha":833,"x_min":143,"x_max":771,"o":"m 368 522 l 193 326 l 193 0 l 143 0 l 143 969 l 193 969 l 193 394 l 196 394 l 372 594 l 704 969 l 765 969 l 404 560 l 771 0 l 711 0 l 368 522 z "},"L":{"ha":833,"x_min":194,"x_max":736,"o":"m 194 0 l 194 969 l 244 969 l 244 46 l 736 46 l 736 0 l 194 0 z "},"M":{"ha":833,"x_min":113,"x_max":721,"o":"m 674 894 l 668 894 l 417 329 l 165 894 l 160 894 l 160 0 l 113 0 l 113 969 l 182 969 l 415 442 l 421 442 l 653 969 l 721 969 l 721 0 l 674 0 l 674 894 z "},"N":{"ha":833,"x_min":131,"x_max":703,"o":"m 183 903 l 178 903 l 178 0 l 131 0 l 131 969 l 203 969 l 650 69 l 656 69 l 656 969 l 703 969 l 703 0 l 631 0 l 183 903 z "},"O":{"ha":833,"x_min":93,"x_max":740,"o":"m 417 -17 q 176 104 258 -17 q 93 485 93 225 q 176 865 93 744 q 417 986 258 986 q 658 865 575 986 q 740 485 740 744 q 658 104 740 225 q 417 -17 575 -17 m 417 29 q 618 131 551 29 q 685 432 685 233 l 685 538 q 618 838 685 736 q 417 940 551 940 q 215 838 282 940 q 149 538 149 736 l 149 432 q 215 131 149 233 q 417 29 282 29 z "},"P":{"ha":833,"x_min":144,"x_max":736,"o":"m 144 0 l 144 969 l 486 969 q 673 898 610 969 q 736 704 736 826 q 673 510 736 582 q 486 438 610 438 l 194 438 l 194 0 l 144 0 m 194 483 l 486 483 q 573 499 536 483 q 634 540 610 514 q 670 600 658 565 q 682 674 682 635 l 682 735 q 670 807 682 772 q 634 867 658 842 q 573 908 610 893 q 486 924 536 924 l 194 924 l 194 483 z "},"Q":{"ha":833,"x_min":93,"x_max":740,"o":"m 665 -199 l 461 -199 q 408 -180 425 -199 q 392 -129 392 -161 l 392 -15 q 169 115 246 -6 q 93 485 93 235 q 176 865 93 744 q 417 986 258 986 q 658 865 575 986 q 740 485 740 744 q 663 115 740 235 q 442 -15 586 -6 l 442 -154 l 665 -154 l 665 -199 m 417 29 q 618 131 551 29 q 685 432 685 233 l 685 538 q 618 838 685 736 q 417 940 551 940 q 215 838 282 940 q 149 538 149 736 l 149 432 q 215 131 149 233 q 417 29 282 29 z "},"R":{"ha":833,"x_min":144,"x_max":736,"o":"m 194 0 l 144 0 l 144 969 l 486 969 q 673 898 610 969 q 736 704 736 826 q 675 514 736 585 q 496 440 614 443 l 456 440 l 733 0 l 675 0 l 400 439 l 194 439 l 194 0 m 486 483 q 573 499 536 483 q 634 540 610 514 q 670 600 658 565 q 682 674 682 635 l 682 735 q 670 807 682 772 q 634 867 658 842 q 573 908 610 893 q 486 924 536 924 l 194 924 l 194 483 l 486 483 z "},"S":{"ha":833,"x_min":85,"x_max":738,"o":"m 421 -17 q 305 -5 356 -17 q 214 28 254 7 q 142 80 174 50 q 85 144 111 110 l 124 175 q 242 67 175 107 q 421 28 310 28 q 617 85 547 28 q 686 250 686 142 q 669 342 686 304 q 624 404 653 379 q 555 443 594 429 q 469 464 515 457 l 358 482 q 237 519 285 494 q 161 578 189 544 q 122 652 133 611 q 110 736 110 693 q 193 924 110 863 q 417 986 276 986 q 608 949 535 986 q 724 849 681 911 l 686 817 q 579 910 643 878 q 414 942 515 942 q 228 891 294 942 q 161 738 161 840 q 177 650 161 686 q 222 590 193 614 q 289 551 250 565 q 375 529 328 536 l 485 511 q 608 473 560 499 q 686 413 657 447 q 726 336 715 378 q 738 251 738 294 q 653 51 738 119 q 421 -17 568 -17 z "},"T":{"ha":833,"x_min":51,"x_max":782,"o":"m 442 924 l 442 0 l 392 0 l 392 924 l 51 924 l 51 969 l 782 969 l 782 924 l 442 924 z "},"U":{"ha":833,"x_min":131,"x_max":703,"o":"m 181 969 l 181 381 q 190 215 181 282 q 226 106 200 147 q 299 47 253 65 q 417 29 344 29 q 535 47 489 29 q 607 106 581 65 q 643 215 633 147 q 653 381 653 282 l 653 969 l 703 969 l 703 388 q 690 198 703 275 q 644 73 676 121 q 556 4 611 25 q 417 -17 501 -17 q 277 4 332 -17 q 190 73 222 25 q 144 198 157 121 q 131 388 131 275 l 131 969 l 181 969 z "},"V":{"ha":833,"x_min":69,"x_max":764,"o":"m 382 0 l 69 969 l 125 969 l 415 54 l 419 54 l 711 969 l 764 969 l 451 0 l 382 0 z "},"W":{"ha":833,"x_min":74,"x_max":760,"o":"m 163 0 l 74 969 l 119 969 l 204 51 l 211 51 l 388 683 l 447 683 l 624 51 l 631 51 l 715 969 l 760 969 l 671 0 l 590 0 l 419 618 l 414 618 l 243 0 l 163 0 z "},"X":{"ha":833,"x_min":61,"x_max":774,"o":"m 774 0 l 714 0 l 419 453 l 415 453 l 118 0 l 61 0 l 388 492 l 74 969 l 135 969 l 417 536 l 421 536 l 704 969 l 761 969 l 449 496 l 774 0 z "},"Y":{"ha":833,"x_min":35,"x_max":799,"o":"m 392 0 l 392 401 l 35 969 l 93 969 l 415 454 l 419 454 l 742 969 l 799 969 l 442 401 l 442 0 l 392 0 z "},"Z":{"ha":833,"x_min":67,"x_max":767,"o":"m 767 0 l 67 0 l 67 49 l 681 924 l 97 924 l 97 969 l 736 969 l 736 921 l 122 46 l 767 46 l 767 0 z "},"&":{"ha":833,"x_min":53,"x_max":763,"o":"m 314 -17 q 203 3 251 -17 q 121 57 154 22 q 70 140 88 92 q 53 244 53 188 q 62 325 53 285 q 92 403 71 365 q 151 474 114 440 q 243 536 188 508 q 175 640 203 583 q 147 763 147 696 q 164 853 147 813 q 210 924 181 894 q 280 970 239 954 q 369 986 321 986 q 508 944 454 986 q 586 849 563 903 l 544 828 q 478 910 521 876 q 368 943 435 943 q 243 896 289 943 q 197 768 197 849 l 197 751 q 223 651 197 700 q 292 550 249 601 l 569 222 l 574 222 q 594 335 588 268 q 607 504 600 401 l 761 504 l 761 461 l 650 461 q 633 301 643 364 q 604 186 624 238 l 763 0 l 704 0 l 576 149 l 572 149 q 473 28 539 74 q 314 -17 407 -17 m 322 28 q 460 67 401 28 q 551 174 519 107 l 268 506 q 138 391 172 456 q 104 260 104 326 l 104 231 q 119 151 104 188 q 162 87 133 114 q 231 44 190 60 q 322 28 271 28 z "},"@":{"ha":833,"x_min":119,"x_max":694,"o":"m 649 -149 l 450 -149 q 285 -110 349 -149 q 184 0 221 -72 q 133 176 147 72 q 119 410 119 279 q 136 674 119 565 q 190 853 153 783 q 283 954 226 922 q 418 986 339 986 q 550 958 497 986 q 635 883 603 931 q 681 774 667 836 q 694 643 694 711 l 694 131 l 650 131 l 650 213 l 644 213 q 592 145 626 172 q 499 118 558 118 q 358 186 408 118 q 307 407 307 254 q 358 628 307 560 q 499 696 408 696 q 592 669 558 696 q 644 603 626 643 l 650 603 l 650 643 q 638 763 650 707 q 599 858 626 818 q 528 922 572 899 q 419 944 483 944 q 305 917 353 944 q 226 829 257 889 q 181 677 196 769 q 167 454 167 585 l 167 364 q 178 173 167 260 q 220 24 189 86 q 307 -74 251 -39 q 450 -108 363 -108 l 649 -108 l 649 -149 m 510 157 q 613 197 575 157 q 650 306 650 236 l 650 508 q 613 617 650 578 q 510 657 575 657 q 397 607 439 657 q 354 435 354 557 l 354 381 q 365 276 354 319 q 397 207 376 233 q 445 169 417 181 q 510 157 474 157 z "},"-":{"ha":833,"x_min":229,"x_max":604,"o":"m 229 399 l 229 447 l 604 447 l 604 399 l 229 399 z "},"­":{"ha":833,"x_min":229,"x_max":604,"o":"m 229 399 l 229 447 l 604 447 l 604 399 l 229 399 z "},"–":{"ha":833,"x_min":83,"x_max":750,"o":"m 83 401 l 83 446 l 750 446 l 750 401 l 83 401 z "},"—":{"ha":833,"x_min":0,"x_max":833,"o":"m 0 401 l 0 446 l 833 446 l 833 401 l 0 401 z "},"_":{"ha":833,"x_min":83,"x_max":750,"o":"m 83 -206 l 83 -161 l 750 -161 l 750 -206 l 83 -206 z "},".":{"ha":833,"x_min":357,"x_max":476,"o":"m 417 -8 q 371 5 385 -8 q 357 40 357 18 l 357 54 q 371 90 357 76 q 417 103 385 103 q 463 90 449 103 q 476 54 476 76 l 476 40 q 463 5 476 18 q 417 -8 449 -8 z "},"…":{"ha":833,"x_min":117,"x_max":717,"o":"m 174 -7 q 129 6 142 -7 q 117 39 117 19 l 117 57 q 129 90 117 76 q 174 103 142 103 q 217 90 206 103 q 229 57 229 76 l 229 39 q 217 6 229 19 q 174 -7 206 -7 m 417 -7 q 372 6 385 -7 q 360 39 360 19 l 360 57 q 372 90 360 76 q 417 103 385 103 q 461 90 449 103 q 474 57 474 76 l 474 39 q 461 6 474 19 q 417 -7 449 -7 m 660 -7 q 616 6 628 -7 q 604 39 604 19 l 604 57 q 616 90 604 76 q 660 103 628 103 q 704 90 692 103 q 717 57 717 76 l 717 39 q 704 6 717 19 q 660 -7 692 -7 z "},":":{"ha":833,"x_min":357,"x_max":476,"o":"m 417 -8 q 371 5 385 -8 q 357 40 357 18 l 357 54 q 371 90 357 76 q 417 103 385 103 q 463 90 449 103 q 476 54 476 76 l 476 40 q 463 5 476 18 q 417 -8 449 -8 m 417 614 q 371 627 385 614 q 357 663 357 640 l 357 676 q 371 712 357 699 q 417 725 385 725 q 463 712 449 725 q 476 676 476 699 l 476 663 q 463 627 476 640 q 417 614 449 614 z "},",":{"ha":833,"x_min":311,"x_max":472,"o":"m 385 128 l 472 128 l 351 -229 l 311 -229 l 385 128 z "},";":{"ha":833,"x_min":311,"x_max":476,"o":"m 385 128 l 472 128 l 351 -229 l 311 -229 l 385 128 m 417 614 q 371 627 385 614 q 357 663 357 640 l 357 676 q 371 712 357 699 q 417 725 385 725 q 463 712 449 725 q 476 676 476 699 l 476 663 q 463 627 476 640 q 417 614 449 614 z "},"'":{"ha":833,"x_min":392,"x_max":442,"o":"m 392 672 l 392 1028 l 442 1028 l 442 672 l 392 672 z "},"\"":{"ha":833,"x_min":294,"x_max":540,"o":"m 294 672 l 294 1028 l 344 1028 l 344 672 l 294 672 m 490 672 l 490 1028 l 540 1028 l 540 672 l 490 672 z "},"‘":{"ha":833,"x_min":321,"x_max":482,"o":"m 442 1028 l 482 1028 l 408 672 l 321 672 l 442 1028 z "},"’":{"ha":833,"x_min":351,"x_max":513,"o":"m 425 1028 l 513 1028 l 392 672 l 351 672 l 425 1028 z "},"“":{"ha":833,"x_min":197,"x_max":610,"o":"m 318 1028 l 358 1028 l 285 672 l 197 672 l 318 1028 m 569 1028 l 610 1028 l 536 672 l 449 672 l 569 1028 z "},"”":{"ha":833,"x_min":228,"x_max":640,"o":"m 301 1028 l 389 1028 l 268 672 l 228 672 l 301 1028 m 553 1028 l 640 1028 l 519 672 l 479 672 l 553 1028 z "},"‚":{"ha":833,"x_min":311,"x_max":472,"o":"m 385 128 l 472 128 l 351 -229 l 311 -229 l 385 128 z "},"„":{"ha":833,"x_min":194,"x_max":607,"o":"m 268 128 l 356 128 l 235 -229 l 194 -229 l 268 128 m 519 128 l 607 128 l 486 -229 l 446 -229 l 519 128 z "},"‹":{"ha":833,"x_min":233,"x_max":546,"o":"m 529 99 l 233 349 l 233 397 l 529 647 l 546 613 l 286 372 l 546 133 l 529 99 z "},"›":{"ha":833,"x_min":288,"x_max":600,"o":"m 288 133 l 547 372 l 288 613 l 304 647 l 600 397 l 600 349 l 304 99 l 288 133 z "},"«":{"ha":833,"x_min":114,"x_max":728,"o":"m 410 99 l 114 349 l 114 397 l 410 647 l 426 613 l 167 372 l 426 133 l 410 99 m 711 99 l 415 349 l 415 397 l 711 647 l 728 613 l 468 372 l 728 133 l 711 99 z "},"»":{"ha":833,"x_min":107,"x_max":721,"o":"m 107 133 l 367 372 l 107 613 l 124 647 l 419 397 l 419 349 l 124 99 l 107 133 m 408 133 l 668 372 l 408 613 l 425 647 l 721 397 l 721 349 l 425 99 l 408 133 z "},"¡":{"ha":833,"x_min":357,"x_max":476,"o":"m 390 -251 l 390 115 l 406 454 l 428 454 l 443 115 l 443 -251 l 390 -251 m 417 615 q 371 628 385 615 q 357 664 357 642 l 357 678 q 371 713 357 700 q 417 726 385 726 q 463 713 449 726 q 476 678 476 700 l 476 664 q 463 628 476 642 q 417 615 449 615 z "},"!":{"ha":833,"x_min":357,"x_max":476,"o":"m 406 264 l 390 603 l 390 969 l 443 969 l 443 603 l 428 264 l 406 264 m 417 -8 q 371 5 385 -8 q 357 40 357 18 l 357 54 q 371 90 357 76 q 417 103 385 103 q 463 90 449 103 q 476 54 476 76 l 476 40 q 463 5 476 18 q 417 -8 449 -8 z "},"¿":{"ha":833,"x_min":139,"x_max":707,"o":"m 407 -269 q 295 -251 344 -269 q 211 -201 246 -233 q 158 -122 176 -168 q 139 -18 139 -75 q 160 91 139 42 q 217 176 181 140 q 306 233 254 211 q 421 263 358 256 l 421 460 l 471 460 l 471 225 q 265 158 339 218 q 192 -4 192 97 l 192 -28 q 249 -172 192 -119 q 408 -225 307 -225 q 569 -174 504 -225 q 660 -29 633 -124 l 707 -44 q 599 -209 675 -149 q 407 -269 522 -269 m 444 614 q 399 627 414 614 q 385 663 385 640 l 385 676 q 399 712 385 699 q 444 725 414 725 q 491 712 476 725 q 506 676 506 699 l 506 663 q 491 627 506 640 q 444 614 476 614 z "},"?":{"ha":833,"x_min":132,"x_max":694,"o":"m 363 257 l 363 492 q 569 555 496 494 q 642 715 642 615 l 642 747 q 584 889 642 836 q 422 942 526 942 q 262 893 321 942 q 178 758 203 844 l 132 772 q 232 928 160 871 q 424 986 304 986 q 622 917 550 986 q 694 735 694 849 q 618 539 694 610 q 413 454 542 468 l 413 257 l 363 257 m 389 -8 q 342 5 357 -8 q 328 40 328 18 l 328 54 q 342 90 328 76 q 389 103 357 103 q 434 90 419 103 q 449 54 449 76 l 449 40 q 434 5 449 18 q 389 -8 419 -8 z "},"(":{"ha":833,"x_min":319,"x_max":656,"o":"m 319 432 q 342 631 319 538 q 402 803 364 724 q 492 946 440 882 q 601 1056 543 1010 l 656 1056 q 542 945 594 1008 q 450 806 489 882 q 389 644 411 731 q 367 464 367 557 l 367 400 q 389 219 367 306 q 450 58 411 133 q 542 -81 489 -18 q 656 -192 594 -144 l 601 -192 q 492 -82 543 -146 q 402 61 440 -18 q 342 233 364 140 q 319 432 319 326 z "},")":{"ha":833,"x_min":178,"x_max":514,"o":"m 514 432 q 492 233 514 326 q 431 61 469 140 q 342 -82 393 -18 q 232 -192 290 -146 l 178 -192 q 292 -81 239 -144 q 383 58 344 -18 q 444 219 422 133 q 467 400 467 306 l 467 464 q 444 644 467 557 q 383 806 422 731 q 292 945 344 882 q 178 1056 239 1008 l 232 1056 q 342 946 290 1010 q 431 803 393 882 q 492 631 469 724 q 514 432 514 538 z "},"[":{"ha":833,"x_min":356,"x_max":699,"o":"m 356 -192 l 356 1056 l 699 1056 l 699 1017 l 399 1017 l 399 -153 l 699 -153 l 699 -192 l 356 -192 z "},"]":{"ha":833,"x_min":135,"x_max":478,"o":"m 478 1056 l 478 -192 l 135 -192 l 135 -153 l 435 -153 l 435 1017 l 135 1017 l 135 1056 l 478 1056 z "},"{":{"ha":833,"x_min":157,"x_max":676,"o":"m 417 -192 q 358 -133 358 -192 l 358 0 q 366 69 358 40 q 384 120 374 99 q 406 157 394 142 q 426 183 418 172 q 468 244 458 222 q 478 290 478 267 q 421 383 478 353 q 256 413 364 413 l 157 413 l 157 451 l 256 451 q 421 481 364 451 q 478 574 478 511 q 468 619 478 597 q 426 681 458 642 q 406 707 418 692 q 384 744 394 722 q 366 794 374 765 q 358 864 358 824 l 358 997 q 417 1056 358 1056 l 676 1056 l 676 1017 l 403 1017 l 403 865 q 409 801 403 828 q 424 756 415 775 q 442 724 432 738 q 461 701 453 711 q 508 633 493 661 q 522 572 522 604 q 476 475 522 510 q 360 433 431 440 l 360 431 q 476 389 431 424 q 522 292 522 354 q 508 231 522 260 q 461 163 493 203 q 442 139 453 151 q 424 108 432 126 q 409 63 415 89 q 403 -1 403 36 l 403 -153 l 676 -153 l 676 -192 l 417 -192 z "},"}":{"ha":833,"x_min":157,"x_max":676,"o":"m 417 1056 q 475 997 475 1056 l 475 864 q 467 794 475 824 q 449 744 460 765 q 427 707 439 722 q 407 681 415 692 q 365 619 375 642 q 356 574 356 597 q 413 481 356 511 q 578 451 469 451 l 676 451 l 676 413 l 578 413 q 413 383 469 413 q 356 290 356 353 q 365 244 356 267 q 407 183 375 222 q 427 157 415 172 q 449 120 439 142 q 467 69 460 99 q 475 0 475 40 l 475 -133 q 417 -192 475 -192 l 157 -192 l 157 -153 l 431 -153 l 431 -1 q 424 63 431 36 q 410 108 418 89 q 391 139 401 126 q 372 163 381 151 q 326 231 340 203 q 311 292 311 260 q 357 389 311 354 q 474 431 403 424 l 474 433 q 357 475 403 440 q 311 572 311 510 q 326 633 311 604 q 372 701 340 661 q 391 724 381 711 q 410 756 401 738 q 424 801 418 775 q 431 865 431 828 l 431 1017 l 157 1017 l 157 1056 l 417 1056 z "},"/":{"ha":833,"x_min":140,"x_max":693,"o":"m 140 -192 l 649 1056 l 693 1056 l 185 -192 l 140 -192 z "},"\\":{"ha":833,"x_min":140,"x_max":693,"o":"m 649 -192 l 140 1056 l 185 1056 l 693 -192 l 649 -192 z "},"⁄":{"ha":833,"x_min":36,"x_max":797,"o":"m 751 969 l 797 969 l 544 553 l 499 553 l 751 969 m 289 417 l 335 417 l 82 0 l 36 0 l 289 417 z "},"%":{"ha":833,"x_min":36,"x_max":797,"o":"m 239 515 q 163 529 199 515 q 100 572 126 543 q 58 644 74 600 q 43 751 43 689 q 58 857 43 813 q 100 930 74 901 q 163 972 126 958 q 239 986 199 986 q 315 972 279 986 q 378 930 351 958 q 419 857 404 901 q 435 751 435 813 q 419 644 435 689 q 378 572 404 600 q 315 529 351 543 q 239 515 279 515 m 239 551 q 295 562 268 551 q 343 594 322 572 q 376 649 364 615 q 389 728 389 682 l 389 774 q 376 853 389 819 q 343 908 364 886 q 295 940 322 929 q 239 950 268 950 q 183 940 210 950 q 135 908 156 929 q 101 853 114 886 q 89 774 89 819 l 89 728 q 101 649 89 682 q 135 594 114 615 q 183 562 156 572 q 239 551 210 551 m 751 969 l 797 969 l 556 553 l 510 553 l 751 969 m 278 417 l 324 417 l 82 0 l 36 0 l 278 417 m 594 -17 q 518 -3 554 -17 q 456 40 482 11 q 414 113 429 68 q 399 218 399 157 q 414 325 399 281 q 456 398 429 369 q 518 440 482 426 q 594 454 554 454 q 671 440 635 454 q 733 398 707 426 q 775 325 760 369 q 790 218 790 281 q 775 113 790 157 q 733 40 760 68 q 671 -3 707 11 q 594 -17 635 -17 m 594 19 q 651 30 624 19 q 699 62 678 40 q 732 117 719 83 q 744 196 744 150 l 744 242 q 732 321 744 288 q 699 376 719 354 q 651 408 678 397 q 594 418 624 418 q 538 408 565 418 q 490 376 511 397 q 457 321 469 354 q 444 242 444 288 l 444 196 q 457 117 444 150 q 490 62 469 83 q 538 30 511 40 q 594 19 565 19 z "},"‰":{"ha":833,"x_min":4,"x_max":838,"o":"m 186 556 q 114 568 147 556 q 56 606 81 581 q 18 673 32 632 q 4 771 4 714 q 18 869 4 828 q 56 935 32 910 q 114 974 81 961 q 186 986 147 986 q 257 974 224 986 q 315 935 290 961 q 353 869 339 910 q 367 771 367 828 q 353 673 367 714 q 315 606 339 632 q 258 568 290 581 q 186 556 225 556 m 186 590 q 281 628 240 590 q 321 749 321 665 l 321 793 q 281 914 321 876 q 186 951 240 951 q 90 914 131 951 q 50 793 50 876 l 50 749 q 90 628 50 665 q 186 590 131 590 m 100 438 l 718 693 l 732 660 l 114 404 l 100 438 m 338 -17 q 267 -4 300 -17 q 210 34 233 8 q 172 101 186 60 q 158 199 158 142 q 172 297 158 256 q 210 363 186 338 q 267 401 233 389 q 338 414 300 414 q 432 389 390 414 q 496 311 474 364 l 500 311 q 564 389 522 364 q 657 414 606 414 q 728 401 694 414 q 785 363 761 389 q 824 297 810 338 q 838 199 838 256 q 824 101 838 142 q 785 34 810 60 q 728 -4 761 8 q 657 -17 694 -17 q 564 8 606 -17 q 500 86 522 33 l 496 86 q 432 8 474 33 q 338 -17 390 -17 m 339 18 q 435 56 394 18 q 475 176 475 93 l 475 221 q 435 342 475 304 q 339 379 394 379 q 244 342 285 379 q 203 221 203 304 l 203 176 q 244 56 203 93 q 339 18 285 18 m 656 18 q 751 56 711 18 q 792 176 792 93 l 792 221 q 751 342 792 304 q 656 379 711 379 q 561 342 601 379 q 521 221 521 304 l 521 176 q 561 56 521 93 q 656 18 601 18 z "},"|":{"ha":833,"x_min":394,"x_max":439,"o":"m 394 -192 l 394 1056 l 439 1056 l 439 -192 l 394 -192 z "},"¦":{"ha":833,"x_min":394,"x_max":439,"o":"m 394 557 l 394 1056 l 439 1056 l 439 557 l 394 557 m 394 -192 l 394 307 l 439 307 l 439 -192 l 394 -192 z "},"§":{"ha":833,"x_min":132,"x_max":703,"o":"m 647 -12 q 628 -101 647 -62 q 575 -164 608 -139 q 497 -201 542 -189 q 399 -214 451 -214 q 272 -193 328 -214 q 179 -136 217 -172 l 208 -103 q 287 -151 240 -132 q 400 -171 333 -171 q 547 -131 493 -171 q 600 -12 600 -90 q 587 50 600 24 q 551 97 574 76 q 497 130 528 117 q 433 154 467 143 l 342 183 q 187 265 242 215 q 132 403 132 314 q 175 531 132 479 q 290 610 218 582 l 290 614 q 188 785 188 676 q 206 873 188 835 q 258 936 225 911 q 338 974 292 961 q 436 986 383 986 q 563 965 508 986 q 656 908 618 944 l 626 874 q 548 924 594 904 q 435 943 501 943 q 288 903 340 943 q 235 785 235 863 q 248 722 235 749 q 284 675 261 694 q 338 642 307 656 q 401 618 368 628 l 493 589 q 649 508 594 557 q 703 368 703 458 q 660 241 703 292 q 544 163 618 190 l 544 158 q 647 -12 647 96 m 654 361 q 608 479 654 438 q 471 549 563 521 l 381 576 q 351 586 365 581 q 321 599 336 592 q 218 524 257 569 q 179 411 179 479 q 226 292 179 333 q 364 224 272 251 l 454 196 q 484 185 469 190 q 514 174 499 181 q 617 248 579 203 q 654 361 654 293 z "},"¶":{"ha":833,"x_min":86,"x_max":667,"o":"m 408 342 q 276 365 336 342 q 174 431 217 389 q 109 530 132 472 q 86 656 86 588 q 109 781 86 724 q 174 881 132 839 q 272 946 215 922 q 399 969 329 969 l 667 969 l 667 -207 l 619 -207 l 619 928 l 456 928 l 456 -207 l 408 -207 l 408 342 z "},"©":{"ha":833,"x_min":6,"x_max":828,"o":"m 417 25 q 256 57 331 25 q 125 149 181 89 q 38 293 69 208 q 6 485 6 378 q 38 676 6 590 q 125 821 69 761 q 256 913 181 881 q 417 944 331 944 q 578 913 503 944 q 708 821 653 881 q 796 676 764 761 q 828 485 828 590 q 796 293 828 378 q 708 149 764 208 q 578 57 653 89 q 417 25 503 25 m 417 61 q 563 91 496 61 q 681 174 631 121 q 758 300 731 228 q 786 457 786 372 l 786 513 q 758 669 786 597 q 681 794 731 742 q 563 878 631 847 q 417 908 496 908 q 270 878 338 908 q 153 794 203 847 q 75 669 103 742 q 47 513 47 597 l 47 457 q 75 300 47 372 q 153 174 103 228 q 270 91 203 121 q 417 61 338 61 m 419 256 q 283 315 333 256 q 233 485 233 374 q 283 655 233 596 q 421 714 333 714 q 517 688 479 714 q 569 621 554 663 l 536 606 q 492 658 521 639 q 421 678 464 678 q 316 633 354 678 q 278 506 278 589 l 278 465 q 317 335 278 378 q 421 292 356 292 q 496 313 465 292 q 543 369 526 333 l 576 351 q 517 283 557 311 q 419 256 478 256 z "},"®":{"ha":833,"x_min":165,"x_max":668,"o":"m 417 481 q 318 499 364 481 q 238 552 272 518 q 185 633 204 586 q 165 733 165 679 q 185 834 165 788 q 238 915 204 881 q 318 967 272 949 q 417 986 364 986 q 515 967 469 986 q 595 915 561 949 q 649 834 629 881 q 668 733 668 788 q 649 633 668 679 q 595 552 629 586 q 515 499 561 518 q 417 481 469 481 m 417 510 q 502 526 463 510 q 571 572 542 543 q 617 639 600 600 q 633 722 633 678 l 633 744 q 617 828 633 789 q 571 895 600 867 q 502 940 542 924 q 417 957 463 957 q 331 940 371 957 q 263 895 292 924 q 217 828 233 867 q 200 744 200 789 l 200 722 q 217 639 200 678 q 263 572 233 600 q 331 526 292 543 q 417 510 371 510 m 368 606 l 339 606 l 339 863 l 438 863 q 495 844 474 863 q 517 786 517 825 q 499 735 517 754 q 453 714 481 717 l 525 606 l 490 606 l 424 711 l 368 711 l 368 606 m 433 735 q 486 782 486 735 l 486 792 q 433 839 486 839 l 368 839 l 368 735 l 433 735 z "},"™":{"ha":833,"x_min":22,"x_max":742,"o":"m 158 593 l 158 938 l 22 938 l 22 969 l 332 969 l 332 938 l 196 938 l 196 593 l 158 593 m 419 593 l 419 969 l 465 969 l 579 746 l 583 746 l 699 969 l 742 969 l 742 593 l 708 593 l 708 917 l 706 917 l 581 679 l 456 917 l 453 917 l 453 593 l 419 593 z "},"ª":{"ha":833,"x_min":211,"x_max":625,"o":"m 625 514 l 563 514 q 524 551 524 514 l 524 582 l 519 582 q 467 528 504 551 q 364 504 431 504 q 250 539 289 504 q 211 633 211 574 q 254 728 211 693 q 396 763 297 763 l 522 763 l 522 831 q 488 922 522 892 q 392 951 454 951 q 310 932 344 951 q 256 872 275 913 l 226 892 q 286 960 246 933 q 393 986 326 986 q 518 947 474 986 q 563 835 563 907 l 563 550 l 625 550 l 625 514 m 394 729 q 287 706 319 729 q 254 644 254 682 l 254 626 q 285 561 254 583 q 368 539 317 539 q 426 547 399 539 q 476 569 454 554 q 510 605 497 583 q 522 654 522 626 l 522 729 l 394 729 z "},"º":{"ha":833,"x_min":214,"x_max":619,"o":"m 417 503 q 267 569 321 503 q 214 744 214 635 q 267 920 214 854 q 417 986 321 986 q 566 920 513 986 q 619 744 619 854 q 566 569 619 635 q 417 503 513 503 m 417 538 q 485 552 456 538 q 533 591 514 567 q 563 648 553 615 q 574 718 574 681 l 574 774 q 563 842 574 810 q 533 898 553 874 q 485 937 514 922 q 417 951 456 951 q 349 937 378 951 q 299 898 319 922 q 269 842 279 874 q 260 774 260 810 l 260 718 q 269 648 260 681 q 299 591 279 615 q 349 552 319 567 q 417 538 378 538 z "},"°":{"ha":833,"x_min":199,"x_max":635,"o":"m 417 549 q 331 565 371 549 q 261 611 290 582 q 215 681 232 640 q 199 768 199 721 q 215 855 199 815 q 261 924 232 894 q 331 969 290 953 q 417 986 371 986 q 503 969 463 986 q 572 924 543 953 q 618 855 601 894 q 635 768 635 815 q 618 681 635 721 q 572 611 601 640 q 503 565 543 582 q 417 549 463 549 m 417 590 q 488 604 456 590 q 542 642 519 618 q 578 698 565 665 q 590 768 590 731 q 578 838 590 806 q 542 894 565 869 q 488 931 519 918 q 417 944 456 944 q 346 931 378 944 q 291 894 314 918 q 256 838 268 869 q 243 768 243 806 q 256 698 243 731 q 291 642 268 665 q 346 604 314 618 q 417 590 378 590 z "},"*":{"ha":833,"x_min":65,"x_max":769,"o":"m 208 71 l 171 97 l 379 382 l 65 483 l 78 525 l 394 425 l 394 763 l 440 763 l 440 425 l 756 525 l 769 483 l 454 382 l 663 97 l 626 71 l 417 358 l 208 71 z "},"†":{"ha":833,"x_min":106,"x_max":729,"o":"m 394 -278 l 394 675 l 106 675 l 106 717 l 394 717 l 394 1028 l 440 1028 l 440 717 l 729 717 l 729 675 l 440 675 l 440 -278 l 394 -278 z "},"‡":{"ha":833,"x_min":106,"x_max":729,"o":"m 394 -278 l 394 33 l 106 33 l 106 75 l 394 75 l 394 675 l 106 675 l 106 717 l 394 717 l 394 1028 l 440 1028 l 440 717 l 729 717 l 729 675 l 440 675 l 440 75 l 729 75 l 729 33 l 440 33 l 440 -278 l 394 -278 z "},"#":{"ha":833,"x_min":29,"x_max":806,"o":"m 242 325 l 29 325 l 29 367 l 250 367 l 292 603 l 78 603 l 78 644 l 299 644 l 356 969 l 403 969 l 232 0 l 185 0 l 242 325 m 603 969 l 650 969 l 593 644 l 806 644 l 806 603 l 585 603 l 543 367 l 757 367 l 757 325 l 536 325 l 479 0 l 432 0 l 603 969 z "},"^":{"ha":833,"x_min":88,"x_max":746,"o":"m 706 436 l 418 924 l 414 924 l 126 436 l 88 457 l 390 969 l 443 969 l 746 457 l 706 436 z "},"~":{"ha":833,"x_min":79,"x_max":754,"o":"m 581 350 q 502 364 540 350 q 410 401 464 378 q 319 440 353 426 q 251 453 285 453 q 175 427 204 453 q 117 349 146 401 l 79 367 q 149 463 107 429 q 253 496 190 496 q 331 482 293 496 q 424 444 369 468 q 515 406 481 419 q 582 393 549 393 q 658 419 629 393 q 717 497 688 444 l 754 479 q 685 383 726 417 q 581 350 643 350 z "},"+":{"ha":833,"x_min":86,"x_max":747,"o":"m 393 86 l 393 403 l 86 403 l 86 446 l 393 446 l 393 763 l 440 763 l 440 446 l 747 446 l 747 403 l 440 403 l 440 86 l 393 86 z "},"−":{"ha":833,"x_min":86,"x_max":747,"o":"m 86 403 l 86 446 l 747 446 l 747 403 l 86 403 z "},"±":{"ha":833,"x_min":86,"x_max":747,"o":"m 393 172 l 393 485 l 86 485 l 86 528 l 393 528 l 393 842 l 440 842 l 440 528 l 747 528 l 747 485 l 440 485 l 440 172 l 393 172 m 86 0 l 86 43 l 747 43 l 747 0 l 86 0 z "},"×":{"ha":833,"x_min":140,"x_max":693,"o":"m 417 393 l 171 147 l 140 178 l 386 424 l 140 669 l 171 700 l 417 454 l 663 700 l 693 669 l 447 424 l 693 178 l 663 147 l 417 393 z "},"÷":{"ha":833,"x_min":86,"x_max":747,"o":"m 86 403 l 86 446 l 747 446 l 747 403 l 86 403 m 417 103 q 374 115 388 103 q 360 147 360 128 l 360 163 q 417 207 360 207 q 474 163 474 207 l 474 147 q 460 115 474 128 q 417 103 446 103 m 417 640 q 374 653 388 640 q 360 685 360 665 l 360 701 q 374 733 360 721 q 417 746 388 746 q 460 733 446 746 q 474 701 474 721 l 474 685 q 460 653 474 665 q 417 640 446 640 z "},"=":{"ha":833,"x_min":86,"x_max":747,"o":"m 86 531 l 86 574 l 747 574 l 747 531 l 86 531 m 86 276 l 86 319 l 747 319 l 747 276 l 86 276 z "},"≈":{"ha":833,"x_min":79,"x_max":754,"o":"m 581 471 q 502 485 540 471 q 410 522 464 499 q 319 560 353 547 q 251 574 285 574 q 175 548 204 574 q 117 469 146 522 l 79 488 q 149 583 107 550 q 253 617 190 617 q 331 603 293 617 q 424 565 369 589 q 515 527 481 540 q 582 514 549 514 q 658 540 629 514 q 717 618 688 565 l 754 600 q 685 504 726 538 q 581 471 643 471 m 581 231 q 502 244 540 231 q 410 282 464 258 q 319 320 353 307 q 251 333 285 333 q 175 308 204 333 q 117 229 146 282 l 79 247 q 149 343 107 310 q 253 376 190 376 q 331 363 293 376 q 424 325 369 349 q 515 287 481 300 q 582 274 549 274 q 658 299 629 274 q 717 378 688 325 l 754 360 q 685 264 726 297 q 581 231 643 231 z "},"≠":{"ha":833,"x_min":86,"x_max":747,"o":"m 215 121 l 307 276 l 86 276 l 86 319 l 331 319 l 457 531 l 86 531 l 86 574 l 481 574 l 572 728 l 618 728 l 526 574 l 747 574 l 747 531 l 503 531 l 376 319 l 747 319 l 747 276 l 353 276 l 261 121 l 215 121 z "},"<":{"ha":833,"x_min":118,"x_max":715,"o":"m 118 401 l 118 446 l 715 801 l 715 750 l 167 426 l 167 422 l 715 97 l 715 46 l 118 401 z "},">":{"ha":833,"x_min":118,"x_max":715,"o":"m 118 97 l 667 421 l 667 425 l 118 750 l 118 801 l 715 446 l 715 401 l 118 46 l 118 97 z "},"≤":{"ha":833,"x_min":118,"x_max":715,"o":"m 118 0 l 118 43 l 715 43 l 715 0 l 118 0 m 715 772 l 167 486 l 167 481 l 715 194 l 715 143 l 118 458 l 118 507 l 715 822 l 715 772 z "},"≥":{"ha":833,"x_min":118,"x_max":715,"o":"m 118 193 l 667 481 l 667 485 l 118 772 l 118 822 l 715 507 l 715 460 l 118 143 l 118 193 m 118 43 l 715 43 l 715 0 l 118 0 l 118 43 z "},"·":{"ha":833,"x_min":357,"x_max":476,"o":"m 417 367 q 371 380 385 367 q 357 415 357 393 l 357 429 q 371 465 357 451 q 417 478 385 478 q 463 465 449 478 q 476 429 476 451 l 476 415 q 463 380 476 393 q 417 367 449 367 z "},"•":{"ha":833,"x_min":285,"x_max":549,"o":"m 417 292 q 315 324 346 292 q 285 406 285 357 l 285 439 q 315 520 285 488 q 417 553 346 553 q 518 520 488 553 q 549 439 549 488 l 549 406 q 518 324 549 357 q 417 292 488 292 z "},"◊":{"ha":833,"x_min":76,"x_max":761,"o":"m 393 0 l 76 485 l 393 969 l 443 969 l 761 485 l 443 0 l 393 0 m 421 46 l 708 485 l 421 924 l 415 924 l 128 485 l 415 46 l 421 46 z "},"¬":{"ha":833,"x_min":86,"x_max":725,"o":"m 681 136 l 681 403 l 86 403 l 86 446 l 725 446 l 725 136 l 681 136 z "},"√":{"ha":833,"x_min":35,"x_max":756,"o":"m 389 0 l 196 675 l 35 675 l 35 717 l 233 717 l 422 50 l 426 50 l 707 969 l 756 969 l 456 0 l 389 0 z "},"∫":{"ha":833,"x_min":56,"x_max":742,"o":"m 56 -235 l 375 -235 l 375 958 q 443 1028 375 1028 l 742 1028 l 742 985 l 424 985 l 424 -208 q 354 -278 424 -278 l 56 -278 l 56 -235 z "},"∞":{"ha":833,"x_min":13,"x_max":821,"o":"m 208 175 q 63 240 113 175 q 13 424 13 306 q 63 607 13 542 q 211 672 114 672 q 342 617 286 672 q 424 463 397 563 l 428 463 q 503 617 450 561 q 625 672 556 672 q 771 607 721 672 q 821 424 821 542 q 770 240 821 306 q 622 175 719 175 q 492 230 547 175 q 410 385 436 285 l 406 385 q 331 231 383 286 q 208 175 278 175 m 210 215 q 317 269 269 215 q 394 424 365 322 q 317 582 365 532 q 210 632 269 632 q 102 585 143 632 q 61 451 61 539 l 61 396 q 102 262 61 308 q 210 215 143 215 m 624 215 q 731 262 690 215 q 772 396 772 308 l 772 451 q 731 585 772 539 q 624 632 690 632 q 516 578 564 632 q 439 424 468 525 q 516 265 468 315 q 624 215 564 215 z "},"℮":{"ha":833,"x_min":36,"x_max":797,"o":"m 122 249 q 167 157 139 199 q 233 85 196 115 q 317 37 271 54 q 417 19 363 19 q 519 34 474 19 q 602 75 565 49 q 668 138 639 101 q 721 218 697 174 l 756 200 q 699 116 731 156 q 625 47 667 76 q 532 1 583 18 q 417 -17 481 -17 q 260 22 331 -17 q 140 126 190 60 q 63 285 90 193 q 36 485 36 376 q 63 685 36 593 q 140 843 90 776 q 260 948 190 910 q 417 986 331 986 q 573 948 503 986 q 693 843 643 910 q 770 685 743 776 q 797 485 797 593 l 122 485 l 122 249 m 711 519 l 711 722 q 665 814 693 772 q 600 885 638 856 q 517 933 563 915 q 417 950 471 950 q 317 933 363 950 q 233 885 271 915 q 168 814 196 856 q 122 722 140 772 l 122 519 l 711 519 z "},"ℓ":{"ha":833,"x_min":132,"x_max":681,"o":"m 438 -17 q 351 1 386 -17 q 292 50 315 18 q 259 126 269 82 q 249 226 249 171 l 249 272 q 201 238 225 253 q 154 207 178 222 l 132 242 q 191 280 161 260 q 249 324 221 300 l 249 789 q 292 983 249 921 q 417 1044 335 1044 q 535 993 494 1044 q 575 840 575 942 q 554 694 575 767 q 497 551 533 621 q 408 418 460 482 q 297 300 357 354 l 297 232 q 331 76 297 128 q 439 25 364 25 q 506 38 476 25 q 560 72 536 50 q 605 122 585 93 q 643 182 625 150 l 681 161 q 642 96 664 128 q 590 39 619 64 q 523 -1 561 14 q 438 -17 485 -17 m 417 1003 q 331 956 364 1003 q 297 792 297 910 l 297 356 q 390 463 347 406 q 463 582 432 521 q 512 707 494 643 q 529 833 529 771 l 529 853 q 499 967 529 932 q 417 1003 468 1003 z "},"№":{"ha":833,"x_min":81,"x_max":817,"o":"m 674 501 q 565 559 599 501 q 531 740 531 617 q 565 921 531 864 q 674 978 599 978 q 783 921 749 978 q 817 740 817 864 q 783 559 817 617 q 674 501 749 501 m 81 0 l 81 969 l 161 969 l 404 61 l 410 61 l 410 969 l 454 969 l 454 0 l 374 0 l 131 908 l 125 908 l 125 0 l 81 0 m 674 539 q 751 584 731 539 q 772 700 772 629 l 772 779 q 751 897 772 851 q 674 942 731 942 q 596 897 617 942 q 575 779 575 851 l 575 700 q 596 584 575 629 q 674 539 617 539 m 539 399 l 539 438 l 810 438 l 810 399 l 539 399 z "},"∂":{"ha":833,"x_min":117,"x_max":717,"o":"m 717 353 q 695 194 717 263 q 635 78 674 125 q 540 8 596 32 q 418 -17 485 -17 q 294 8 350 -17 q 199 78 239 32 q 138 192 160 125 q 117 344 117 258 q 138 496 117 429 q 198 609 160 563 q 290 680 236 656 q 410 704 344 704 q 540 672 485 704 q 632 582 596 639 l 636 585 q 573 703 613 647 q 480 806 533 758 q 363 895 426 854 q 231 969 300 936 l 315 969 q 445 888 375 936 q 576 768 515 840 q 676 594 636 696 q 717 353 717 493 m 417 26 q 516 46 471 26 q 594 101 561 65 q 646 190 628 138 q 664 308 664 242 l 664 379 q 646 498 664 446 q 594 586 628 550 q 516 642 561 622 q 417 661 471 661 q 317 642 363 661 q 239 586 272 622 q 188 498 206 550 q 169 379 169 446 l 169 308 q 188 190 169 242 q 239 101 206 138 q 317 46 272 65 q 417 26 363 26 z "},"¢":{"ha":833,"x_min":144,"x_max":703,"o":"m 413 -158 l 413 -15 q 215 90 285 -4 q 144 358 144 185 q 215 626 144 532 q 413 732 285 721 l 413 875 l 454 875 l 454 733 q 608 687 547 731 q 693 575 668 643 l 651 558 q 578 654 628 621 q 453 690 528 688 l 453 26 q 585 66 532 29 q 665 165 638 103 l 703 143 q 613 32 675 78 q 454 -17 550 -14 l 454 -158 l 413 -158 m 197 318 q 253 117 197 193 q 413 29 308 40 l 413 688 q 253 600 308 676 q 197 399 197 524 l 197 318 z "},"€":{"ha":833,"x_min":107,"x_max":726,"o":"m 451 -17 q 195 103 283 -17 q 107 485 107 224 q 195 865 107 744 q 451 986 283 986 q 626 930 558 986 q 726 786 694 874 l 683 768 q 598 894 656 847 q 451 942 540 942 q 249 858 321 942 q 164 608 176 774 l 514 608 l 514 567 l 163 567 q 161 551 161 560 q 161 533 161 542 l 161 436 q 161 416 161 426 q 163 397 161 406 l 514 397 l 514 356 l 164 356 q 249 111 178 194 q 451 28 321 28 q 598 75 540 28 q 683 201 656 122 l 726 183 q 626 40 694 96 q 451 -17 558 -17 z "},"ƒ":{"ha":833,"x_min":-42,"x_max":831,"o":"m -35 -235 l 272 -235 l 401 540 l 149 540 l 156 583 l 408 583 l 463 901 q 486 952 468 935 q 540 969 504 969 l 831 969 l 824 926 l 517 926 l 458 583 l 721 583 l 714 540 l 451 540 l 326 -210 q 249 -278 315 -278 l -42 -278 l -35 -235 z "},"£":{"ha":833,"x_min":88,"x_max":739,"o":"m 110 0 l 110 61 q 203 164 168 100 q 238 311 238 228 q 233 370 238 342 q 221 425 228 399 l 88 425 l 88 468 l 207 468 q 167 581 188 525 q 147 704 147 636 q 169 822 147 769 q 231 910 192 874 q 326 967 271 947 q 450 986 382 986 q 619 947 546 986 q 739 829 692 908 l 697 803 q 592 908 654 875 q 449 940 531 940 q 267 880 335 940 q 200 703 200 819 q 220 581 200 636 q 260 468 240 525 l 561 468 l 561 425 l 272 425 q 283 373 279 400 q 288 315 288 346 q 253 164 288 232 q 161 51 219 96 l 161 47 l 733 47 l 733 0 l 110 0 z "},"$":{"ha":833,"x_min":86,"x_max":740,"o":"m 406 -17 q 297 -3 344 -15 q 211 31 250 10 q 142 82 172 53 q 86 144 111 111 l 125 175 q 177 117 150 143 q 238 72 204 90 q 312 42 271 53 q 406 29 353 31 l 406 475 l 360 482 q 238 519 286 494 q 163 578 190 544 q 123 653 135 613 q 111 738 111 693 q 191 921 111 858 q 406 986 271 983 l 406 1126 l 447 1126 l 447 986 q 619 943 551 981 q 728 846 686 906 l 689 817 q 592 904 649 874 q 447 940 535 935 l 447 518 l 489 511 q 613 472 564 499 q 690 412 661 446 q 729 336 718 378 q 740 250 740 294 q 662 57 740 124 q 447 -17 583 -10 l 447 -157 l 406 -157 l 406 -17 m 161 738 q 177 650 161 686 q 222 590 193 614 q 289 551 250 565 q 374 529 328 538 l 406 524 l 406 940 q 226 888 290 938 q 161 738 161 838 m 690 249 q 674 342 690 304 q 628 404 657 379 q 559 443 599 429 q 474 464 519 457 l 447 468 l 447 29 q 626 89 563 33 q 690 249 690 144 z "},"¥":{"ha":833,"x_min":38,"x_max":796,"o":"m 121 43 l 392 43 l 392 396 l 121 396 l 121 439 l 365 439 l 38 969 l 94 969 l 415 443 l 419 443 l 742 969 l 796 969 l 468 439 l 713 439 l 713 396 l 442 396 l 442 43 l 713 43 l 713 0 l 121 0 l 121 43 z "},"฿":{"ha":833,"x_min":133,"x_max":724,"o":"m 417 -157 l 375 -157 l 375 0 l 133 0 l 133 969 l 375 969 l 375 1126 l 417 1126 l 417 969 l 449 969 q 624 906 561 969 q 686 722 686 843 q 649 574 686 628 q 546 500 611 521 l 546 497 q 678 419 632 479 q 724 260 724 358 q 707 154 724 201 q 659 72 690 107 q 582 19 628 38 q 478 0 536 0 l 417 0 l 417 -157 m 375 515 l 375 925 l 185 925 l 185 515 l 375 515 m 417 515 l 446 515 q 528 529 493 515 q 587 567 564 543 q 622 622 610 590 q 633 690 633 654 l 633 749 q 622 817 633 785 q 587 873 610 849 q 528 911 564 897 q 446 925 493 925 l 417 925 l 417 515 m 375 44 l 375 472 l 185 472 l 185 44 l 375 44 m 417 44 l 469 44 q 558 59 521 44 q 621 99 596 74 q 658 158 646 124 q 671 229 671 192 l 671 288 q 658 359 671 325 q 621 418 646 393 q 558 458 596 443 q 469 472 521 472 l 417 472 l 417 44 z "},"₡":{"ha":833,"x_min":107,"x_max":726,"o":"m 425 -17 q 293 18 353 -12 l 272 -157 l 232 -157 l 256 42 q 144 206 182 97 q 107 485 107 314 q 174 831 107 711 q 368 978 240 951 l 386 1126 l 426 1126 l 410 983 q 430 985 419 985 q 451 986 440 986 q 544 972 503 986 l 563 1126 l 603 1126 l 583 957 q 669 888 633 932 q 726 786 706 843 l 683 769 q 641 851 668 815 q 576 908 614 886 l 469 29 q 603 80 550 33 q 683 201 657 126 l 726 183 q 629 42 694 97 q 465 -17 564 -12 l 449 -157 l 407 -157 l 425 -17 m 451 942 q 427 942 439 942 q 403 939 415 942 l 297 68 q 431 28 354 32 l 539 926 q 451 942 503 942 m 160 432 q 263 99 160 197 l 364 929 q 160 538 160 871 l 160 432 z "},"₤":{"ha":833,"x_min":79,"x_max":744,"o":"m 733 0 l 110 0 l 110 61 q 201 161 167 100 q 236 303 235 222 l 236 315 l 79 315 l 79 357 l 235 357 q 215 442 228 403 q 188 521 203 482 l 79 521 l 79 563 l 174 563 q 155 629 163 594 q 147 704 147 664 q 169 822 147 769 q 231 910 192 874 q 326 967 271 947 q 450 986 382 986 q 744 824 646 986 l 703 799 q 595 906 658 872 q 449 940 532 940 q 267 880 335 940 q 200 703 200 819 q 207 629 200 664 q 225 563 214 594 l 564 563 l 564 521 l 240 521 q 267 442 254 481 q 285 357 279 403 l 564 357 l 564 315 l 286 315 l 286 304 q 251 160 283 225 q 161 51 218 94 l 161 47 l 733 47 l 733 0 z "},"₦":{"ha":833,"x_min":38,"x_max":796,"o":"m 699 403 l 796 403 l 796 364 l 699 364 l 699 0 l 624 0 l 450 364 l 179 364 l 179 0 l 135 0 l 135 364 l 38 364 l 38 403 l 135 403 l 135 568 l 38 568 l 38 607 l 135 607 l 135 969 l 210 969 l 383 607 l 654 607 l 654 969 l 699 969 l 699 607 l 796 607 l 796 568 l 699 568 l 699 403 m 481 403 l 654 403 l 654 568 l 400 568 l 481 403 m 433 403 l 353 568 l 179 568 l 179 403 l 433 403 m 654 57 l 654 364 l 499 364 l 649 57 l 654 57 m 179 607 l 333 607 l 185 913 l 179 913 l 179 607 z "},"₨":{"ha":833,"x_min":93,"x_max":807,"o":"m 93 0 l 93 969 l 231 969 q 408 901 356 969 q 461 714 461 833 q 426 551 461 614 q 308 468 392 488 l 472 140 q 536 55 501 83 q 629 26 571 26 q 722 56 685 26 q 760 143 760 85 q 753 188 760 168 q 736 224 747 207 q 709 257 725 240 q 674 293 693 274 l 625 342 q 550 428 576 389 q 524 521 524 467 q 533 572 524 547 q 561 615 543 596 q 606 647 579 635 q 669 658 633 658 q 797 611 742 658 l 771 576 q 672 615 728 615 q 598 588 625 615 q 571 521 571 561 q 577 479 571 497 q 594 444 583 461 q 622 412 606 428 q 658 375 638 396 l 706 328 q 749 282 731 303 q 781 240 768 261 q 801 195 794 218 q 807 143 807 172 q 761 28 807 72 q 628 -17 715 -17 q 512 13 557 -17 q 431 114 467 42 l 260 458 l 221 458 l 143 458 l 143 0 l 93 0 m 228 501 q 365 548 319 501 q 410 682 410 594 l 410 744 q 365 878 410 832 q 228 925 319 925 l 143 925 l 143 501 l 228 501 z "},"₩":{"ha":833,"x_min":51,"x_max":782,"o":"m 247 0 l 165 0 l 147 357 l 51 357 l 51 396 l 146 396 l 138 565 l 51 565 l 51 604 l 136 604 l 118 969 l 165 969 l 182 604 l 653 604 l 671 969 l 715 969 l 697 604 l 782 604 l 782 565 l 696 565 l 688 396 l 782 396 l 782 357 l 685 357 l 668 0 l 586 0 l 481 357 l 351 357 l 247 0 m 183 565 l 190 396 l 321 396 l 372 565 l 183 565 m 464 565 l 514 396 l 643 396 l 651 565 l 464 565 m 217 47 l 310 357 l 193 357 l 207 47 l 217 47 m 628 47 l 642 357 l 526 357 l 619 47 l 628 47 m 421 565 l 413 565 l 363 396 l 469 396 l 421 565 z "},"₪":{"ha":833,"x_min":107,"x_max":726,"o":"m 297 788 l 346 788 l 346 42 l 513 42 q 633 88 588 42 q 678 225 678 135 l 678 969 l 726 969 l 726 231 q 669 59 726 118 q 513 0 613 0 l 297 0 l 297 788 m 107 0 l 107 969 l 322 969 q 479 911 422 969 q 536 740 536 853 l 536 182 l 488 182 l 488 744 q 442 881 488 835 q 322 928 397 928 l 156 928 l 156 0 l 107 0 z "},"₫":{"ha":833,"x_min":113,"x_max":749,"o":"m 603 263 l 599 263 q 522 182 575 217 q 385 147 469 147 q 184 226 256 147 q 113 456 113 304 q 184 687 113 608 q 385 765 256 765 q 522 730 469 765 q 599 649 575 694 l 603 649 l 603 888 l 378 888 l 378 928 l 603 928 l 603 1028 l 650 1028 l 650 928 l 749 928 l 749 888 l 650 888 l 650 163 l 603 163 l 603 263 m 397 188 q 476 200 439 188 q 541 235 513 213 q 586 288 569 257 q 603 357 603 319 l 603 554 q 586 623 603 592 q 541 676 569 654 q 476 711 513 699 q 397 724 439 724 q 225 662 286 724 q 164 494 164 600 l 164 418 q 225 250 164 313 q 397 188 286 188 m 113 0 l 113 43 l 697 43 l 697 0 l 113 0 z "},"₭":{"ha":833,"x_min":47,"x_max":761,"o":"m 221 0 l 169 0 l 169 488 l 47 488 l 47 531 l 169 531 l 169 969 l 221 969 l 221 531 l 329 531 l 681 969 l 739 969 l 388 531 l 725 531 l 725 488 l 390 488 l 761 0 l 700 0 l 331 488 l 221 488 l 221 0 z "},"₮":{"ha":833,"x_min":51,"x_max":782,"o":"m 443 339 l 443 0 l 392 0 l 392 315 l 179 214 l 179 258 l 392 361 l 392 528 l 179 425 l 179 471 l 392 572 l 392 924 l 51 924 l 51 969 l 782 969 l 782 924 l 443 924 l 443 594 l 656 697 l 656 651 l 443 550 l 443 383 l 656 486 l 656 442 l 443 339 z "},"₱":{"ha":833,"x_min":76,"x_max":785,"o":"m 210 0 l 158 0 l 158 529 l 76 529 l 76 571 l 158 571 l 158 735 l 76 735 l 76 776 l 158 776 l 158 969 l 454 969 q 615 918 556 969 q 693 776 675 867 l 785 776 l 785 735 l 699 735 q 699 721 699 733 q 700 693 700 708 q 700 665 700 678 q 700 651 700 653 q 700 638 700 650 q 700 611 700 625 q 699 585 700 597 q 699 571 699 572 l 785 571 l 785 529 l 693 529 q 615 388 675 440 q 454 336 556 336 l 210 336 l 210 0 m 210 775 l 646 775 q 587 881 635 838 q 454 925 539 925 l 210 925 l 210 775 m 649 571 l 649 735 l 210 735 l 210 571 l 649 571 m 454 381 q 587 424 539 381 q 646 531 635 468 l 210 531 l 210 381 l 454 381 z "},"₲":{"ha":833,"x_min":103,"x_max":713,"o":"m 315 0 q 158 158 213 40 q 103 485 103 276 q 190 866 103 746 q 439 986 276 986 q 467 985 453 986 q 494 981 482 983 l 522 1126 l 565 1126 l 536 971 q 644 900 600 949 q 711 786 688 851 l 668 769 q 614 867 649 826 q 528 926 579 907 l 439 447 l 713 447 l 713 367 q 692 188 713 261 q 632 69 671 115 q 538 3 593 24 q 415 -17 483 -17 q 383 -15 399 -17 q 356 -10 367 -12 l 328 -157 l 285 -157 l 315 0 m 488 938 q 464 941 476 940 q 439 942 451 942 q 228 839 300 942 q 156 538 156 736 l 156 432 q 324 47 156 124 l 488 938 m 415 26 q 518 44 472 26 q 597 100 564 61 q 647 201 629 139 q 664 354 664 264 l 664 404 l 431 404 l 363 33 q 386 28 372 31 q 415 26 400 26 z "},"₴":{"ha":833,"x_min":57,"x_max":776,"o":"m 429 -17 q 230 48 303 -17 q 157 225 157 113 q 171 308 157 274 q 204 369 185 342 l 57 369 l 57 411 l 239 411 l 525 583 l 525 588 l 57 588 l 57 629 l 578 629 q 611 686 601 656 q 621 757 621 717 q 566 893 621 844 q 415 942 511 942 q 299 917 356 942 q 188 833 242 892 l 153 865 q 280 958 211 929 q 418 986 349 986 q 601 926 532 986 q 671 758 671 865 q 661 683 671 714 q 632 629 651 653 l 776 629 l 776 588 l 600 588 l 314 414 l 314 411 l 776 411 l 776 369 l 261 369 q 221 307 235 340 q 207 228 207 274 q 266 80 207 132 q 431 28 325 28 q 556 56 494 28 q 679 151 617 85 l 713 119 q 577 16 650 49 q 429 -17 504 -17 z "},"₵":{"ha":833,"x_min":107,"x_max":726,"o":"m 318 7 q 160 164 214 47 q 107 485 107 281 q 195 865 107 744 q 451 986 283 986 q 499 982 478 986 l 525 1126 l 568 1126 l 540 974 q 655 903 610 954 q 726 786 700 853 l 683 769 q 624 869 663 828 q 531 929 586 911 l 365 38 q 451 28 403 28 q 598 75 540 28 q 683 201 656 122 l 726 183 q 626 40 694 96 q 451 -17 558 -17 q 403 -14 426 -17 q 358 -6 381 -11 l 331 -157 l 288 -157 l 318 7 m 490 939 q 470 942 478 942 q 453 942 463 942 q 233 839 306 942 q 160 538 160 736 l 160 432 q 202 187 160 281 q 326 53 244 93 l 490 939 z "},"₸":{"ha":833,"x_min":58,"x_max":775,"o":"m 58 925 l 58 969 l 775 969 l 775 925 l 58 925 m 442 715 l 442 0 l 392 0 l 392 715 l 58 715 l 58 760 l 775 760 l 775 715 l 442 715 z "},"₹":{"ha":833,"x_min":93,"x_max":765,"o":"m 619 0 l 286 438 l 93 438 l 93 481 l 354 481 q 503 536 453 481 q 554 678 554 592 l 554 694 l 93 694 l 93 738 l 553 738 q 539 809 553 775 q 499 869 525 843 q 437 910 474 894 q 354 925 400 925 l 93 925 l 93 969 l 765 969 l 765 925 l 483 925 l 483 922 q 565 853 532 900 q 601 738 599 806 l 765 738 l 765 694 l 606 694 l 606 690 q 543 513 603 582 q 371 439 483 443 l 347 439 l 682 0 l 619 0 z "},"₺":{"ha":833,"x_min":60,"x_max":742,"o":"m 231 403 l 60 321 l 60 365 l 231 447 l 231 614 l 60 532 l 60 578 l 231 658 l 231 969 l 282 969 l 282 682 l 563 817 l 563 771 l 282 636 l 282 469 l 563 604 l 563 560 l 282 425 l 282 46 l 407 46 q 528 74 475 46 q 617 153 581 103 q 673 273 654 204 q 692 424 692 342 l 742 424 q 720 256 742 333 q 657 122 699 179 q 553 33 615 65 q 410 0 490 0 l 231 0 l 231 403 z "},"₽":{"ha":833,"x_min":64,"x_max":775,"o":"m 254 228 l 254 0 l 203 0 l 203 228 l 64 228 l 64 271 l 203 271 l 203 436 l 64 436 l 64 482 l 203 482 l 203 969 l 525 969 q 712 897 649 969 q 775 703 775 825 q 711 508 775 581 q 525 436 647 436 l 254 436 l 254 271 l 590 271 l 590 228 l 254 228 m 254 482 l 525 482 q 612 497 575 482 q 673 538 649 513 q 709 597 697 563 q 721 668 721 631 l 721 738 q 709 809 721 775 q 673 868 697 843 q 612 908 649 893 q 525 924 575 924 l 254 924 l 254 482 z "},"₿":{"ha":833,"x_min":133,"x_max":725,"o":"m 446 0 l 321 0 l 321 -157 l 279 -157 l 279 0 l 133 0 l 133 969 l 279 969 l 279 1126 l 321 1126 l 321 969 l 446 969 l 446 1126 l 488 1126 l 488 967 q 632 893 581 956 q 683 722 683 831 q 647 576 683 629 q 544 501 610 524 l 544 499 q 679 420 633 481 q 725 260 725 360 q 664 75 725 146 q 488 0 603 4 l 488 -157 l 446 -157 l 446 0 m 185 515 l 443 515 q 525 529 490 515 q 583 567 560 543 q 617 623 606 590 q 629 692 629 656 l 629 749 q 617 817 629 785 q 583 873 606 849 q 525 911 560 897 q 443 925 490 925 l 185 925 l 185 515 m 185 44 l 471 44 q 558 59 521 44 q 621 99 596 74 q 658 158 646 125 q 671 229 671 192 l 671 288 q 658 358 671 325 q 621 417 646 392 q 558 458 596 443 q 471 472 521 472 l 185 472 l 185 44 z "},"ﬁ":{"ha":833,"x_min":60,"x_max":694,"o":"m 181 674 l 60 674 l 60 717 l 181 717 l 181 958 q 249 1028 181 1028 l 471 1028 l 471 985 l 229 985 l 229 717 l 667 717 l 667 0 l 618 0 l 618 674 l 229 674 l 229 0 l 181 0 l 181 674 m 643 940 q 603 952 615 940 q 592 982 592 964 l 592 994 q 603 1024 592 1013 q 643 1036 615 1036 q 683 1024 671 1036 q 694 994 694 1013 l 694 982 q 683 952 694 964 q 643 940 671 940 z "},"ﬂ":{"ha":833,"x_min":60,"x_max":667,"o":"m 181 674 l 60 674 l 60 717 l 181 717 l 181 958 q 249 1028 181 1028 l 493 1028 l 493 985 l 229 985 l 229 717 l 492 717 l 492 674 l 229 674 l 229 0 l 181 0 l 181 674 m 618 1028 l 667 1028 l 667 0 l 618 0 l 618 1028 z "},"á":{"ha":833,"x_min":104,"x_max":744,"o":"m 644 0 q 599 15 613 0 q 583 58 585 31 l 583 110 l 578 110 q 497 20 553 57 q 344 -17 442 -17 q 167 36 229 -17 q 104 186 104 89 q 118 268 104 231 q 165 333 132 306 q 253 374 199 360 q 386 389 307 389 l 582 389 l 582 492 q 528 642 582 593 q 382 690 475 690 q 250 659 307 690 q 164 561 193 628 l 128 585 q 220 692 157 651 q 383 733 283 733 q 565 672 500 733 q 631 497 631 610 l 631 43 l 744 43 l 744 0 l 644 0 m 349 25 q 438 37 396 25 q 513 72 481 49 q 563 128 544 94 q 582 206 582 161 l 582 350 l 388 350 q 210 310 264 350 q 157 207 157 271 l 157 165 q 210 61 157 97 q 349 25 263 25 m 369 825 l 336 843 l 482 1063 l 526 1039 l 369 825 z "},"ă":{"ha":833,"x_min":104,"x_max":744,"o":"m 644 0 q 599 15 613 0 q 583 58 585 31 l 583 110 l 578 110 q 497 20 553 57 q 344 -17 442 -17 q 167 36 229 -17 q 104 186 104 89 q 118 268 104 231 q 165 333 132 306 q 253 374 199 360 q 386 389 307 389 l 582 389 l 582 492 q 528 642 582 593 q 382 690 475 690 q 250 659 307 690 q 164 561 193 628 l 128 585 q 220 692 157 651 q 383 733 283 733 q 565 672 500 733 q 631 497 631 610 l 631 43 l 744 43 l 744 0 l 644 0 m 349 25 q 438 37 396 25 q 513 72 481 49 q 563 128 544 94 q 582 206 582 161 l 582 350 l 388 350 q 210 310 264 350 q 157 207 157 271 l 157 165 q 210 61 157 97 q 349 25 263 25 m 386 843 q 315 857 344 843 q 264 895 286 871 q 224 953 242 919 q 188 1029 206 988 l 219 1044 l 256 982 q 286 936 272 954 q 315 906 300 918 q 347 890 331 894 q 386 885 364 885 q 457 906 429 885 q 517 982 485 928 l 553 1044 l 585 1029 q 549 953 567 988 q 508 895 531 919 q 457 857 486 871 q 386 843 428 843 z "},"â":{"ha":833,"x_min":104,"x_max":744,"o":"m 644 0 q 599 15 613 0 q 583 58 585 31 l 583 110 l 578 110 q 497 20 553 57 q 344 -17 442 -17 q 167 36 229 -17 q 104 186 104 89 q 118 268 104 231 q 165 333 132 306 q 253 374 199 360 q 386 389 307 389 l 582 389 l 582 492 q 528 642 582 593 q 382 690 475 690 q 250 659 307 690 q 164 561 193 628 l 128 585 q 220 692 157 651 q 383 733 283 733 q 565 672 500 733 q 631 497 631 610 l 631 43 l 744 43 l 744 0 l 644 0 m 349 25 q 438 37 396 25 q 513 72 481 49 q 563 128 544 94 q 582 206 582 161 l 582 350 l 388 350 q 210 310 264 350 q 157 207 157 271 l 157 165 q 210 61 157 97 q 349 25 263 25 m 415 1050 l 588 861 l 558 840 l 386 1014 l 214 840 l 185 861 l 357 1050 l 415 1050 z "},"ä":{"ha":833,"x_min":104,"x_max":744,"o":"m 644 0 q 599 15 613 0 q 583 58 585 31 l 583 110 l 578 110 q 497 20 553 57 q 344 -17 442 -17 q 167 36 229 -17 q 104 186 104 89 q 118 268 104 231 q 165 333 132 306 q 253 374 199 360 q 386 389 307 389 l 582 389 l 582 492 q 528 642 582 593 q 382 690 475 690 q 250 659 307 690 q 164 561 193 628 l 128 585 q 220 692 157 651 q 383 733 283 733 q 565 672 500 733 q 631 497 631 610 l 631 43 l 744 43 l 744 0 l 644 0 m 349 25 q 438 37 396 25 q 513 72 481 49 q 563 128 544 94 q 582 206 582 161 l 582 350 l 388 350 q 210 310 264 350 q 157 207 157 271 l 157 165 q 210 61 157 97 q 349 25 263 25 m 260 892 q 221 903 232 892 q 210 931 210 914 l 210 944 q 221 972 210 961 q 260 983 232 983 q 297 972 286 983 q 308 944 308 961 l 308 931 q 297 903 308 914 q 260 892 286 892 m 513 892 q 475 903 486 892 q 464 931 464 914 l 464 944 q 475 972 464 961 q 513 983 486 983 q 551 972 540 983 q 563 944 563 961 l 563 931 q 551 903 563 914 q 513 892 540 892 z "},"ạ":{"ha":833,"x_min":104,"x_max":744,"o":"m 644 0 q 599 15 613 0 q 583 58 585 31 l 583 110 l 578 110 q 497 20 553 57 q 344 -17 442 -17 q 167 36 229 -17 q 104 186 104 89 q 118 268 104 231 q 165 333 132 306 q 253 374 199 360 q 386 389 307 389 l 582 389 l 582 492 q 528 642 582 593 q 382 690 475 690 q 250 659 307 690 q 164 561 193 628 l 128 585 q 220 692 157 651 q 383 733 283 733 q 565 672 500 733 q 631 497 631 610 l 631 43 l 744 43 l 744 0 l 644 0 m 349 25 q 438 37 396 25 q 513 72 481 49 q 563 128 544 94 q 582 206 582 161 l 582 350 l 388 350 q 210 310 264 350 q 157 207 157 271 l 157 165 q 210 61 157 97 q 349 25 263 25 m 385 -201 q 346 -190 357 -201 q 335 -162 335 -179 l 335 -149 q 346 -121 335 -132 q 385 -110 357 -110 q 424 -121 413 -110 q 435 -149 435 -132 l 435 -162 q 424 -190 435 -179 q 385 -201 413 -201 z "},"à":{"ha":833,"x_min":104,"x_max":744,"o":"m 644 0 q 599 15 613 0 q 583 58 585 31 l 583 110 l 578 110 q 497 20 553 57 q 344 -17 442 -17 q 167 36 229 -17 q 104 186 104 89 q 118 268 104 231 q 165 333 132 306 q 253 374 199 360 q 386 389 307 389 l 582 389 l 582 492 q 528 642 582 593 q 382 690 475 690 q 250 659 307 690 q 164 561 193 628 l 128 585 q 220 692 157 651 q 383 733 283 733 q 565 672 500 733 q 631 497 631 610 l 631 43 l 744 43 l 744 0 l 644 0 m 349 25 q 438 37 396 25 q 513 72 481 49 q 563 128 544 94 q 582 206 582 161 l 582 350 l 388 350 q 210 310 264 350 q 157 207 157 271 l 157 165 q 210 61 157 97 q 349 25 263 25 m 244 1039 l 289 1063 l 435 843 l 401 825 l 244 1039 z "},"ả":{"ha":833,"x_min":104,"x_max":744,"o":"m 644 0 q 599 15 613 0 q 583 58 585 31 l 583 110 l 578 110 q 497 20 553 57 q 344 -17 442 -17 q 167 36 229 -17 q 104 186 104 89 q 118 268 104 231 q 165 333 132 306 q 253 374 199 360 q 386 389 307 389 l 582 389 l 582 492 q 528 642 582 593 q 382 690 475 690 q 250 659 307 690 q 164 561 193 628 l 128 585 q 220 692 157 651 q 383 733 283 733 q 565 672 500 733 q 631 497 631 610 l 631 43 l 744 43 l 744 0 l 644 0 m 349 25 q 438 37 396 25 q 513 72 481 49 q 563 128 544 94 q 582 206 582 161 l 582 350 l 388 350 q 210 310 264 350 q 157 207 157 271 l 157 165 q 210 61 157 97 q 349 25 263 25 m 279 1043 l 460 1043 q 496 1033 485 1043 q 507 1006 507 1022 q 497 973 507 993 q 458 911 486 953 l 399 821 l 367 836 l 467 1004 l 279 1004 l 279 1043 z "},"ā":{"ha":833,"x_min":104,"x_max":744,"o":"m 644 0 q 599 15 613 0 q 583 58 585 31 l 583 110 l 578 110 q 497 20 553 57 q 344 -17 442 -17 q 167 36 229 -17 q 104 186 104 89 q 118 268 104 231 q 165 333 132 306 q 253 374 199 360 q 386 389 307 389 l 582 389 l 582 492 q 528 642 582 593 q 382 690 475 690 q 250 659 307 690 q 164 561 193 628 l 128 585 q 220 692 157 651 q 383 733 283 733 q 565 672 500 733 q 631 497 631 610 l 631 43 l 744 43 l 744 0 l 644 0 m 349 25 q 438 37 396 25 q 513 72 481 49 q 563 128 544 94 q 582 206 582 161 l 582 350 l 388 350 q 210 310 264 350 q 157 207 157 271 l 157 165 q 210 61 157 97 q 349 25 263 25 m 203 960 l 569 960 l 569 918 l 203 918 l 203 960 z "},"ą":{"ha":833,"x_min":104,"x_max":765,"o":"m 744 0 q 621 -92 661 -53 q 581 -178 581 -131 q 602 -229 581 -214 q 656 -244 624 -244 q 707 -234 688 -244 q 738 -210 726 -224 l 765 -235 q 724 -268 751 -254 q 656 -282 696 -282 q 570 -257 604 -282 q 536 -183 536 -232 q 571 -96 536 -140 q 693 -3 606 -51 l 692 0 l 640 0 q 583 58 586 1 l 583 110 l 578 110 q 497 20 553 57 q 344 -17 442 -17 q 167 36 229 -17 q 104 186 104 89 q 118 268 104 231 q 165 333 132 306 q 253 374 199 360 q 386 389 307 389 l 582 389 l 582 492 q 528 642 582 593 q 382 690 475 690 q 250 659 307 690 q 164 561 193 628 l 128 585 q 220 692 157 651 q 383 733 283 733 q 565 672 500 733 q 631 497 631 610 l 631 43 l 744 43 l 744 0 m 388 350 q 210 310 264 350 q 157 207 157 271 l 157 165 q 210 61 157 97 q 349 25 263 25 q 438 37 396 25 q 513 72 481 49 q 563 128 544 94 q 582 206 582 161 l 582 350 l 388 350 z "},"å":{"ha":833,"x_min":104,"x_max":744,"o":"m 644 0 q 599 15 613 0 q 583 58 585 31 l 583 110 l 578 110 q 497 20 553 57 q 344 -17 442 -17 q 167 36 229 -17 q 104 186 104 89 q 118 268 104 231 q 165 333 132 306 q 253 374 199 360 q 386 389 307 389 l 582 389 l 582 492 q 528 642 582 593 q 382 690 475 690 q 250 659 307 690 q 164 561 193 628 l 128 585 q 220 692 157 651 q 383 733 283 733 q 565 672 500 733 q 631 497 631 610 l 631 43 l 744 43 l 744 0 l 644 0 m 349 25 q 438 37 396 25 q 513 72 481 49 q 563 128 544 94 q 582 206 582 161 l 582 350 l 388 350 q 210 310 264 350 q 157 207 157 271 l 157 165 q 210 61 157 97 q 349 25 263 25 m 386 825 q 290 862 326 825 q 253 958 253 899 q 290 1056 253 1018 q 386 1093 326 1093 q 483 1056 446 1093 q 519 958 519 1018 q 483 862 519 899 q 386 825 446 825 m 386 860 q 454 884 429 860 q 479 950 479 908 l 479 968 q 454 1033 479 1008 q 386 1058 429 1058 q 318 1033 343 1058 q 293 968 293 1008 l 293 950 q 318 884 293 908 q 386 860 343 860 z "},"ǻ":{"ha":833,"x_min":104,"x_max":744,"o":"m 644 0 q 599 15 613 0 q 583 58 585 31 l 583 110 l 578 110 q 497 20 553 57 q 344 -17 442 -17 q 167 36 229 -17 q 104 186 104 89 q 118 268 104 231 q 165 333 132 306 q 253 374 199 360 q 386 389 307 389 l 582 389 l 582 492 q 528 642 582 593 q 382 690 475 690 q 250 659 307 690 q 164 561 193 628 l 128 585 q 220 692 157 651 q 383 733 283 733 q 565 672 500 733 q 631 497 631 610 l 631 43 l 744 43 l 744 0 l 644 0 m 349 25 q 438 37 396 25 q 513 72 481 49 q 563 128 544 94 q 582 206 582 161 l 582 350 l 388 350 q 210 310 264 350 q 157 207 157 271 l 157 165 q 210 61 157 97 q 349 25 263 25 m 390 1125 l 360 1143 l 469 1290 l 510 1265 l 390 1125 m 386 821 q 290 858 326 821 q 253 956 253 896 q 290 1053 253 1015 q 386 1090 326 1090 q 483 1053 446 1090 q 519 956 519 1015 q 483 858 519 896 q 386 821 446 821 m 386 857 q 454 881 429 857 q 479 946 479 906 l 479 964 q 454 1030 479 1006 q 386 1054 429 1054 q 318 1030 343 1054 q 293 964 293 1006 l 293 946 q 318 881 293 906 q 386 857 343 857 z "},"ã":{"ha":833,"x_min":104,"x_max":744,"o":"m 644 0 q 599 15 613 0 q 583 58 585 31 l 583 110 l 578 110 q 497 20 553 57 q 344 -17 442 -17 q 167 36 229 -17 q 104 186 104 89 q 118 268 104 231 q 165 333 132 306 q 253 374 199 360 q 386 389 307 389 l 582 389 l 582 492 q 528 642 582 593 q 382 690 475 690 q 250 659 307 690 q 164 561 193 628 l 128 585 q 220 692 157 651 q 383 733 283 733 q 565 672 500 733 q 631 497 631 610 l 631 43 l 744 43 l 744 0 l 644 0 m 349 25 q 438 37 396 25 q 513 72 481 49 q 563 128 544 94 q 582 206 582 161 l 582 350 l 388 350 q 210 310 264 350 q 157 207 157 271 l 157 165 q 210 61 157 97 q 349 25 263 25 m 485 878 q 434 888 458 878 q 378 918 410 899 q 325 945 346 938 q 285 953 304 953 q 239 942 260 953 q 196 910 218 932 l 172 935 q 224 978 196 963 q 288 994 253 994 q 338 984 314 994 q 394 954 363 974 q 447 927 426 935 q 488 919 468 919 q 533 930 513 919 q 576 963 554 940 l 600 938 q 548 894 576 910 q 485 878 519 878 z "},"ắ":{"ha":833,"x_min":104,"x_max":744,"o":"m 644 0 q 599 15 613 0 q 583 58 585 31 l 583 110 l 578 110 q 497 20 553 57 q 344 -17 442 -17 q 167 36 229 -17 q 104 186 104 89 q 118 268 104 231 q 165 333 132 306 q 253 374 199 360 q 386 389 307 389 l 582 389 l 582 492 q 528 642 582 593 q 382 690 475 690 q 250 659 307 690 q 164 561 193 628 l 128 585 q 220 692 157 651 q 383 733 283 733 q 565 672 500 733 q 631 497 631 610 l 631 43 l 744 43 l 744 0 l 644 0 m 349 25 q 438 37 396 25 q 513 72 481 49 q 563 128 544 94 q 582 206 582 161 l 582 350 l 388 350 q 210 310 264 350 q 157 207 157 271 l 157 165 q 210 61 157 97 q 349 25 263 25 m 385 832 q 313 845 343 832 q 260 882 283 858 q 219 939 238 906 q 183 1014 201 972 l 215 1029 l 251 967 q 312 893 283 914 q 385 872 340 872 q 458 893 429 872 q 518 967 486 914 l 554 1029 l 586 1014 q 549 939 567 972 q 508 881 531 906 q 456 844 485 857 q 385 832 426 832 m 378 982 l 346 1000 l 492 1219 l 535 1196 l 378 982 z "},"ặ":{"ha":833,"x_min":104,"x_max":744,"o":"m 644 0 q 599 15 613 0 q 583 58 585 31 l 583 110 l 578 110 q 497 20 553 57 q 344 -17 442 -17 q 167 36 229 -17 q 104 186 104 89 q 118 268 104 231 q 165 333 132 306 q 253 374 199 360 q 386 389 307 389 l 582 389 l 582 492 q 528 642 582 593 q 382 690 475 690 q 250 659 307 690 q 164 561 193 628 l 128 585 q 220 692 157 651 q 383 733 283 733 q 565 672 500 733 q 631 497 631 610 l 631 43 l 744 43 l 744 0 l 644 0 m 349 25 q 438 37 396 25 q 513 72 481 49 q 563 128 544 94 q 582 206 582 161 l 582 350 l 388 350 q 210 310 264 350 q 157 207 157 271 l 157 165 q 210 61 157 97 q 349 25 263 25 m 386 843 q 315 857 344 843 q 264 895 286 871 q 224 953 242 919 q 188 1029 206 988 l 219 1044 l 256 982 q 286 936 272 954 q 315 906 300 918 q 347 890 331 894 q 386 885 364 885 q 457 906 429 885 q 517 982 485 928 l 553 1044 l 585 1029 q 549 953 567 988 q 508 895 531 919 q 457 857 486 871 q 386 843 428 843 m 385 -201 q 346 -190 357 -201 q 335 -162 335 -179 l 335 -149 q 346 -121 335 -132 q 385 -110 357 -110 q 424 -121 413 -110 q 435 -149 435 -132 l 435 -162 q 424 -190 435 -179 q 385 -201 413 -201 z "},"ằ":{"ha":833,"x_min":104,"x_max":744,"o":"m 644 0 q 599 15 613 0 q 583 58 585 31 l 583 110 l 578 110 q 497 20 553 57 q 344 -17 442 -17 q 167 36 229 -17 q 104 186 104 89 q 118 268 104 231 q 165 333 132 306 q 253 374 199 360 q 386 389 307 389 l 582 389 l 582 492 q 528 642 582 593 q 382 690 475 690 q 250 659 307 690 q 164 561 193 628 l 128 585 q 220 692 157 651 q 383 733 283 733 q 565 672 500 733 q 631 497 631 610 l 631 43 l 744 43 l 744 0 l 644 0 m 349 25 q 438 37 396 25 q 513 72 481 49 q 563 128 544 94 q 582 206 582 161 l 582 350 l 388 350 q 210 310 264 350 q 157 207 157 271 l 157 165 q 210 61 157 97 q 349 25 263 25 m 385 832 q 314 844 343 832 q 262 881 285 857 q 220 939 239 906 q 183 1014 201 972 l 215 1029 l 251 967 q 312 893 283 914 q 385 872 340 872 q 458 893 429 872 q 518 967 486 914 l 554 1029 l 586 1014 q 550 939 568 972 q 509 882 532 906 q 456 845 486 858 q 385 832 426 832 m 235 1196 l 278 1219 l 424 1000 l 392 982 l 235 1196 z "},"ẳ":{"ha":833,"x_min":104,"x_max":744,"o":"m 644 0 q 599 15 613 0 q 583 58 585 31 l 583 110 l 578 110 q 497 20 553 57 q 344 -17 442 -17 q 167 36 229 -17 q 104 186 104 89 q 118 268 104 231 q 165 333 132 306 q 253 374 199 360 q 386 389 307 389 l 582 389 l 582 492 q 528 642 582 593 q 382 690 475 690 q 250 659 307 690 q 164 561 193 628 l 128 585 q 220 692 157 651 q 383 733 283 733 q 565 672 500 733 q 631 497 631 610 l 631 43 l 744 43 l 744 0 l 644 0 m 349 25 q 438 37 396 25 q 513 72 481 49 q 563 128 544 94 q 582 206 582 161 l 582 350 l 388 350 q 210 310 264 350 q 157 207 157 271 l 157 165 q 210 61 157 97 q 349 25 263 25 m 385 832 q 314 844 343 832 q 262 881 285 857 q 220 939 239 906 q 183 1014 201 972 l 215 1029 l 251 967 q 312 893 283 914 q 385 872 340 872 q 458 893 429 872 q 518 967 486 914 l 554 1029 l 586 1014 q 550 939 568 972 q 509 882 532 906 q 456 845 486 858 q 385 832 426 832 m 278 1201 l 454 1201 q 490 1191 479 1201 q 501 1164 501 1181 q 491 1130 501 1150 q 453 1068 481 1110 l 393 978 l 361 994 l 461 1163 l 278 1163 l 278 1201 z "},"ẵ":{"ha":833,"x_min":104,"x_max":744,"o":"m 644 0 q 599 15 613 0 q 583 58 585 31 l 583 110 l 578 110 q 497 20 553 57 q 344 -17 442 -17 q 167 36 229 -17 q 104 186 104 89 q 118 268 104 231 q 165 333 132 306 q 253 374 199 360 q 386 389 307 389 l 582 389 l 582 492 q 528 642 582 593 q 382 690 475 690 q 250 659 307 690 q 164 561 193 628 l 128 585 q 220 692 157 651 q 383 733 283 733 q 565 672 500 733 q 631 497 631 610 l 631 43 l 744 43 l 744 0 l 644 0 m 349 25 q 438 37 396 25 q 513 72 481 49 q 563 128 544 94 q 582 206 582 161 l 582 350 l 388 350 q 210 310 264 350 q 157 207 157 271 l 157 165 q 210 61 157 97 q 349 25 263 25 m 385 832 q 314 844 343 832 q 262 881 285 857 q 220 939 239 906 q 183 1014 201 972 l 215 1029 l 251 967 q 312 893 283 914 q 385 872 340 872 q 458 893 429 872 q 518 967 486 914 l 554 1029 l 586 1014 q 550 939 568 972 q 509 882 532 906 q 456 845 486 858 q 385 832 426 832 m 483 1072 q 432 1083 456 1072 q 376 1113 408 1093 q 324 1140 344 1132 q 283 1149 303 1149 q 238 1138 258 1149 q 194 1104 217 1126 l 172 1129 q 286 1188 219 1188 q 338 1177 314 1188 q 393 1147 361 1167 q 446 1119 425 1128 q 486 1111 467 1111 q 532 1122 511 1111 q 575 1156 553 1133 l 597 1131 q 483 1072 550 1072 z "},"ấ":{"ha":833,"x_min":104,"x_max":744,"o":"m 644 0 q 599 15 613 0 q 583 58 585 31 l 583 110 l 578 110 q 497 20 553 57 q 344 -17 442 -17 q 167 36 229 -17 q 104 186 104 89 q 118 268 104 231 q 165 333 132 306 q 253 374 199 360 q 386 389 307 389 l 582 389 l 582 492 q 528 642 582 593 q 382 690 475 690 q 250 659 307 690 q 164 561 193 628 l 128 585 q 220 692 157 651 q 383 733 283 733 q 565 672 500 733 q 631 497 631 610 l 631 43 l 744 43 l 744 0 l 644 0 m 349 25 q 438 37 396 25 q 513 72 481 49 q 563 128 544 94 q 582 206 582 161 l 582 350 l 388 350 q 210 310 264 350 q 157 207 157 271 l 157 165 q 210 61 157 97 q 349 25 263 25 m 556 983 l 524 1001 l 669 1221 l 713 1197 l 556 983 m 414 1038 l 586 850 l 557 828 l 385 1001 l 213 828 l 183 850 l 356 1038 l 414 1038 z "},"ậ":{"ha":833,"x_min":104,"x_max":744,"o":"m 644 0 q 599 15 613 0 q 583 58 585 31 l 583 110 l 578 110 q 497 20 553 57 q 344 -17 442 -17 q 167 36 229 -17 q 104 186 104 89 q 118 268 104 231 q 165 333 132 306 q 253 374 199 360 q 386 389 307 389 l 582 389 l 582 492 q 528 642 582 593 q 382 690 475 690 q 250 659 307 690 q 164 561 193 628 l 128 585 q 220 692 157 651 q 383 733 283 733 q 565 672 500 733 q 631 497 631 610 l 631 43 l 744 43 l 744 0 l 644 0 m 349 25 q 438 37 396 25 q 513 72 481 49 q 563 128 544 94 q 582 206 582 161 l 582 350 l 388 350 q 210 310 264 350 q 157 207 157 271 l 157 165 q 210 61 157 97 q 349 25 263 25 m 415 1050 l 588 861 l 558 840 l 386 1014 l 214 840 l 185 861 l 357 1050 l 415 1050 m 385 -201 q 346 -190 357 -201 q 335 -162 335 -179 l 335 -149 q 346 -121 335 -132 q 385 -110 357 -110 q 424 -121 413 -110 q 435 -149 435 -132 l 435 -162 q 424 -190 435 -179 q 385 -201 413 -201 z "},"ầ":{"ha":833,"x_min":57,"x_max":744,"o":"m 644 0 q 599 15 613 0 q 583 58 585 31 l 583 110 l 578 110 q 497 20 553 57 q 344 -17 442 -17 q 167 36 229 -17 q 104 186 104 89 q 118 268 104 231 q 165 333 132 306 q 253 374 199 360 q 386 389 307 389 l 582 389 l 582 492 q 528 642 582 593 q 382 690 475 690 q 250 659 307 690 q 164 561 193 628 l 128 585 q 220 692 157 651 q 383 733 283 733 q 565 672 500 733 q 631 497 631 610 l 631 43 l 744 43 l 744 0 l 644 0 m 349 25 q 438 37 396 25 q 513 72 481 49 q 563 128 544 94 q 582 206 582 161 l 582 350 l 388 350 q 210 310 264 350 q 157 207 157 271 l 157 165 q 210 61 157 97 q 349 25 263 25 m 57 1197 l 100 1221 l 246 1001 l 214 983 l 57 1197 m 414 1038 l 586 850 l 557 828 l 385 1001 l 213 828 l 183 850 l 356 1038 l 414 1038 z "},"ẩ":{"ha":833,"x_min":104,"x_max":744,"o":"m 644 0 q 599 15 613 0 q 583 58 585 31 l 583 110 l 578 110 q 497 20 553 57 q 344 -17 442 -17 q 167 36 229 -17 q 104 186 104 89 q 118 268 104 231 q 165 333 132 306 q 253 374 199 360 q 386 389 307 389 l 582 389 l 582 492 q 528 642 582 593 q 382 690 475 690 q 250 659 307 690 q 164 561 193 628 l 128 585 q 220 692 157 651 q 383 733 283 733 q 565 672 500 733 q 631 497 631 610 l 631 43 l 744 43 l 744 0 l 644 0 m 349 25 q 438 37 396 25 q 513 72 481 49 q 563 128 544 94 q 582 206 582 161 l 582 350 l 388 350 q 210 310 264 350 q 157 207 157 271 l 157 165 q 210 61 157 97 q 349 25 263 25 m 443 1203 l 625 1203 q 660 1192 649 1203 q 672 1165 672 1182 q 662 1131 672 1151 q 624 1069 651 1111 l 563 979 l 531 996 l 632 1164 l 443 1164 l 443 1203 m 414 1038 l 586 850 l 557 828 l 385 1001 l 213 828 l 183 850 l 356 1038 l 414 1038 z "},"ẫ":{"ha":833,"x_min":104,"x_max":744,"o":"m 644 0 q 599 15 613 0 q 583 58 585 31 l 583 110 l 578 110 q 497 20 553 57 q 344 -17 442 -17 q 167 36 229 -17 q 104 186 104 89 q 118 268 104 231 q 165 333 132 306 q 253 374 199 360 q 386 389 307 389 l 582 389 l 582 492 q 528 642 582 593 q 382 690 475 690 q 250 659 307 690 q 164 561 193 628 l 128 585 q 220 692 157 651 q 383 733 283 733 q 565 672 500 733 q 631 497 631 610 l 631 43 l 744 43 l 744 0 l 644 0 m 349 25 q 438 37 396 25 q 513 72 481 49 q 563 128 544 94 q 582 206 582 161 l 582 350 l 388 350 q 210 310 264 350 q 157 207 157 271 l 157 165 q 210 61 157 97 q 349 25 263 25 m 286 1201 q 338 1192 314 1201 q 393 1161 361 1182 q 446 1133 425 1142 q 486 1125 467 1125 q 532 1136 511 1125 q 575 1169 553 1147 l 597 1144 q 483 1086 550 1086 q 432 1096 456 1086 q 376 1126 408 1106 q 324 1154 344 1146 q 283 1163 303 1163 q 238 1151 258 1163 q 194 1118 217 1140 l 172 1143 q 286 1201 219 1201 m 414 1035 l 586 850 l 557 828 l 385 999 l 213 828 l 183 850 l 356 1035 l 414 1035 z "},"æ":{"ha":833,"x_min":29,"x_max":801,"o":"m 213 -17 q 79 38 129 -17 q 29 189 29 92 q 93 342 29 294 q 279 389 157 389 l 386 389 l 386 499 q 345 649 386 606 q 242 693 304 693 q 182 683 208 693 q 135 656 156 672 q 101 617 115 639 q 76 574 86 596 l 42 593 q 71 645 53 619 q 114 690 89 671 q 171 722 139 710 q 243 733 203 733 q 356 698 310 733 q 418 583 401 663 l 422 583 q 494 699 449 664 q 601 733 539 733 q 747 660 693 733 q 801 428 801 588 l 801 351 l 431 351 l 431 325 q 443 186 431 243 q 478 93 456 129 q 530 41 500 57 q 594 25 560 25 q 692 64 653 25 q 753 176 731 103 l 792 161 q 763 93 781 125 q 722 37 746 61 q 665 -2 697 13 q 592 -17 632 -17 q 478 26 526 -17 q 407 161 429 69 l 403 161 q 340 31 389 78 q 213 -17 290 -17 m 218 24 q 342 81 297 24 q 386 225 386 138 l 386 351 l 283 351 q 128 317 179 351 q 76 200 76 282 l 76 176 q 114 66 76 108 q 218 24 151 24 m 600 694 q 476 630 521 694 q 431 424 431 565 l 431 389 l 757 389 l 757 440 q 745 561 757 513 q 713 640 733 610 q 663 682 692 669 q 600 694 635 694 z "},"ǽ":{"ha":833,"x_min":29,"x_max":801,"o":"m 213 -17 q 79 38 129 -17 q 29 189 29 92 q 93 342 29 294 q 279 389 157 389 l 386 389 l 386 499 q 345 649 386 606 q 242 693 304 693 q 182 683 208 693 q 135 656 156 672 q 101 617 115 639 q 76 574 86 596 l 42 593 q 71 645 53 619 q 114 690 89 671 q 171 722 139 710 q 243 733 203 733 q 356 698 310 733 q 418 583 401 663 l 422 583 q 494 699 449 664 q 601 733 539 733 q 747 660 693 733 q 801 428 801 588 l 801 351 l 431 351 l 431 325 q 443 186 431 243 q 478 93 456 129 q 530 41 500 57 q 594 25 560 25 q 692 64 653 25 q 753 176 731 103 l 792 161 q 763 93 781 125 q 722 37 746 61 q 665 -2 697 13 q 592 -17 632 -17 q 478 26 526 -17 q 407 161 429 69 l 403 161 q 340 31 389 78 q 213 -17 290 -17 m 218 24 q 342 81 297 24 q 386 225 386 138 l 386 351 l 283 351 q 128 317 179 351 q 76 200 76 282 l 76 176 q 114 66 76 108 q 218 24 151 24 m 600 694 q 476 630 521 694 q 431 424 431 565 l 431 389 l 757 389 l 757 440 q 745 561 757 513 q 713 640 733 610 q 663 682 692 669 q 600 694 635 694 m 399 825 l 365 843 l 511 1063 l 556 1039 l 399 825 z "},"ć":{"ha":833,"x_min":144,"x_max":703,"o":"m 446 -17 q 224 79 303 -17 q 144 358 144 175 q 224 638 144 542 q 446 733 303 733 q 604 690 542 733 q 693 575 667 646 l 651 558 q 575 656 628 622 q 446 690 522 690 q 261 612 325 690 q 197 399 197 533 l 197 318 q 261 105 197 183 q 446 26 325 26 q 582 64 528 26 q 665 165 636 101 l 703 143 q 665 81 689 110 q 610 31 642 53 q 537 -4 578 8 q 446 -17 496 -17 m 425 825 l 392 843 l 538 1063 l 582 1039 l 425 825 z "},"č":{"ha":833,"x_min":144,"x_max":703,"o":"m 446 -17 q 224 79 303 -17 q 144 358 144 175 q 224 638 144 542 q 446 733 303 733 q 604 690 542 733 q 693 575 667 646 l 651 558 q 575 656 628 622 q 446 690 522 690 q 261 612 325 690 q 197 399 197 533 l 197 318 q 261 105 197 183 q 446 26 325 26 q 582 64 528 26 q 665 165 636 101 l 703 143 q 665 81 689 110 q 610 31 642 53 q 537 -4 578 8 q 446 -17 496 -17 m 413 847 l 240 1035 l 271 1057 l 442 883 l 614 1057 l 643 1035 l 471 847 l 413 847 z "},"ç":{"ha":833,"x_min":144,"x_max":703,"o":"m 446 733 q 604 690 542 733 q 693 575 667 646 l 651 558 q 575 656 628 622 q 446 690 522 690 q 261 612 325 690 q 197 399 197 533 l 197 318 q 261 105 197 183 q 446 26 325 26 q 582 64 528 26 q 665 165 636 101 l 703 143 q 611 31 675 76 q 450 -17 547 -15 l 432 -97 l 435 -100 q 479 -96 456 -96 q 546 -118 519 -96 q 572 -179 572 -140 q 538 -253 572 -224 q 449 -282 504 -282 q 375 -268 406 -282 q 331 -235 344 -254 l 357 -207 q 395 -235 372 -225 q 449 -246 418 -246 q 506 -229 485 -246 q 528 -181 528 -212 q 509 -138 528 -156 q 442 -118 490 -121 l 393 -114 l 415 -15 q 215 90 286 -6 q 144 358 144 185 q 224 638 144 542 q 446 733 303 733 z "},"ĉ":{"ha":833,"x_min":144,"x_max":703,"o":"m 446 -17 q 224 79 303 -17 q 144 358 144 175 q 224 638 144 542 q 446 733 303 733 q 604 690 542 733 q 693 575 667 646 l 651 558 q 575 656 628 622 q 446 690 522 690 q 261 612 325 690 q 197 399 197 533 l 197 318 q 261 105 197 183 q 446 26 325 26 q 582 64 528 26 q 665 165 636 101 l 703 143 q 665 81 689 110 q 610 31 642 53 q 537 -4 578 8 q 446 -17 496 -17 m 471 1050 l 643 861 l 614 840 l 442 1014 l 269 840 l 240 861 l 413 1050 l 471 1050 z "},"ċ":{"ha":833,"x_min":144,"x_max":703,"o":"m 446 -17 q 224 79 303 -17 q 144 358 144 175 q 224 638 144 542 q 446 733 303 733 q 604 690 542 733 q 693 575 667 646 l 651 558 q 575 656 628 622 q 446 690 522 690 q 261 612 325 690 q 197 399 197 533 l 197 318 q 261 105 197 183 q 446 26 325 26 q 582 64 528 26 q 665 165 636 101 l 703 143 q 665 81 689 110 q 610 31 642 53 q 537 -4 578 8 q 446 -17 496 -17 m 442 889 q 402 900 414 889 q 390 929 390 911 l 390 944 q 402 974 390 963 q 442 985 414 985 q 481 974 469 985 q 493 944 493 963 l 493 929 q 481 900 493 911 q 442 889 469 889 z "},"ď":{"ha":833,"x_min":100,"x_max":835,"o":"m 385 -17 q 175 78 250 -17 q 100 358 100 172 q 175 639 100 544 q 385 733 250 733 q 526 695 472 733 q 606 607 581 657 l 610 607 l 610 1028 l 658 1028 l 658 0 l 610 0 l 610 110 l 606 110 q 526 22 581 60 q 385 -17 472 -17 m 394 26 q 475 39 436 26 q 544 75 514 51 q 592 132 574 99 q 610 206 610 165 l 610 511 q 592 585 610 551 q 544 642 574 618 q 475 678 514 665 q 394 690 436 690 q 215 612 276 690 q 153 399 153 533 l 153 318 q 215 105 153 183 q 394 26 276 26 m 775 1028 l 835 1028 l 793 779 l 756 779 l 775 1028 z "},"đ":{"ha":833,"x_min":104,"x_max":767,"o":"m 621 110 l 617 110 q 536 22 592 60 q 393 -17 481 -17 q 181 78 257 -17 q 104 358 104 172 q 181 639 104 544 q 393 733 257 733 q 536 695 481 733 q 617 607 592 657 l 621 607 l 621 874 l 396 874 l 396 914 l 621 914 l 621 1028 l 669 1028 l 669 914 l 767 914 l 767 874 l 669 874 l 669 0 l 621 0 l 621 110 m 404 26 q 486 39 447 26 q 555 75 525 51 q 603 132 585 99 q 621 206 621 165 l 621 511 q 603 585 621 551 q 555 642 585 618 q 486 678 525 665 q 404 690 447 690 q 221 612 285 690 q 157 399 157 533 l 157 318 q 221 105 157 183 q 404 26 285 26 z "},"ð":{"ha":833,"x_min":117,"x_max":717,"o":"m 611 1015 l 465 910 q 559 810 514 865 q 640 684 604 754 q 696 531 675 614 q 717 350 717 447 q 695 193 717 261 q 635 78 674 125 q 540 8 596 32 q 418 -17 485 -17 q 294 8 350 -17 q 199 78 239 32 q 138 192 160 125 q 117 344 117 258 q 138 496 117 429 q 198 609 160 563 q 290 680 236 656 q 410 704 344 704 q 541 672 485 704 q 635 582 597 639 l 639 585 q 544 759 594 688 q 431 886 493 831 l 288 783 l 264 813 l 403 910 q 320 972 363 943 q 231 1028 278 1000 l 310 1028 q 372 987 339 1010 q 438 936 404 964 l 588 1044 l 611 1015 m 417 26 q 516 46 471 26 q 594 101 561 65 q 646 190 628 138 q 664 308 664 242 l 664 379 q 646 498 664 446 q 594 586 628 550 q 516 642 561 622 q 417 661 471 661 q 317 642 363 661 q 239 586 272 622 q 188 498 206 550 q 169 379 169 446 l 169 308 q 188 190 169 242 q 239 101 206 138 q 317 46 272 65 q 417 26 363 26 z "},"é":{"ha":833,"x_min":119,"x_max":717,"o":"m 426 -17 q 201 79 282 -17 q 119 358 119 175 q 200 638 119 542 q 419 733 281 733 q 547 708 492 733 q 640 635 603 682 q 697 521 678 588 q 717 374 717 454 l 717 354 l 172 354 l 172 318 q 238 105 172 183 q 426 26 304 26 q 572 67 513 26 q 664 188 632 107 l 703 167 q 601 33 671 83 q 426 -17 531 -17 m 419 692 q 237 613 301 692 q 172 399 172 533 l 172 393 l 665 393 l 665 400 q 601 613 665 535 q 419 692 538 692 m 403 825 l 369 843 l 515 1063 l 560 1039 l 403 825 z "},"ĕ":{"ha":833,"x_min":119,"x_max":717,"o":"m 426 -17 q 201 79 282 -17 q 119 358 119 175 q 200 638 119 542 q 419 733 281 733 q 547 708 492 733 q 640 635 603 682 q 697 521 678 588 q 717 374 717 454 l 717 354 l 172 354 l 172 318 q 238 105 172 183 q 426 26 304 26 q 572 67 513 26 q 664 188 632 107 l 703 167 q 601 33 671 83 q 426 -17 531 -17 m 419 692 q 237 613 301 692 q 172 399 172 533 l 172 393 l 665 393 l 665 400 q 601 613 665 535 q 419 692 538 692 m 419 843 q 349 857 378 843 q 297 895 319 871 q 257 953 275 919 q 221 1029 239 988 l 253 1044 l 289 982 q 319 936 306 954 q 349 906 333 918 q 381 890 364 894 q 419 885 397 885 q 490 906 463 885 q 550 982 518 928 l 586 1044 l 618 1029 q 582 953 600 988 q 542 895 564 919 q 490 857 519 871 q 419 843 461 843 z "},"ě":{"ha":833,"x_min":119,"x_max":717,"o":"m 426 -17 q 201 79 282 -17 q 119 358 119 175 q 200 638 119 542 q 419 733 281 733 q 547 708 492 733 q 640 635 603 682 q 697 521 678 588 q 717 374 717 454 l 717 354 l 172 354 l 172 318 q 238 105 172 183 q 426 26 304 26 q 572 67 513 26 q 664 188 632 107 l 703 167 q 601 33 671 83 q 426 -17 531 -17 m 419 692 q 237 613 301 692 q 172 399 172 533 l 172 393 l 665 393 l 665 400 q 601 613 665 535 q 419 692 538 692 m 390 847 l 218 1035 l 249 1057 l 419 883 l 592 1057 l 621 1035 l 449 847 l 390 847 z "},"ê":{"ha":833,"x_min":119,"x_max":717,"o":"m 426 -17 q 201 79 282 -17 q 119 358 119 175 q 200 638 119 542 q 419 733 281 733 q 547 708 492 733 q 640 635 603 682 q 697 521 678 588 q 717 374 717 454 l 717 354 l 172 354 l 172 318 q 238 105 172 183 q 426 26 304 26 q 572 67 513 26 q 664 188 632 107 l 703 167 q 601 33 671 83 q 426 -17 531 -17 m 419 692 q 237 613 301 692 q 172 399 172 533 l 172 393 l 665 393 l 665 400 q 601 613 665 535 q 419 692 538 692 m 449 1050 l 621 861 l 592 840 l 419 1014 l 247 840 l 218 861 l 390 1050 l 449 1050 z "},"ë":{"ha":833,"x_min":119,"x_max":717,"o":"m 426 -17 q 201 79 282 -17 q 119 358 119 175 q 200 638 119 542 q 419 733 281 733 q 547 708 492 733 q 640 635 603 682 q 697 521 678 588 q 717 374 717 454 l 717 354 l 172 354 l 172 318 q 238 105 172 183 q 426 26 304 26 q 572 67 513 26 q 664 188 632 107 l 703 167 q 601 33 671 83 q 426 -17 531 -17 m 419 692 q 237 613 301 692 q 172 399 172 533 l 172 393 l 665 393 l 665 400 q 601 613 665 535 q 419 692 538 692 m 293 892 q 254 903 265 892 q 243 931 243 914 l 243 944 q 254 972 243 961 q 293 983 265 983 q 331 972 319 983 q 342 944 342 961 l 342 931 q 331 903 342 914 q 293 892 319 892 m 546 892 q 508 903 519 892 q 497 931 497 914 l 497 944 q 508 972 497 961 q 546 983 519 983 q 585 972 574 983 q 596 944 596 961 l 596 931 q 585 903 596 914 q 546 892 574 892 z "},"ė":{"ha":833,"x_min":119,"x_max":717,"o":"m 426 -17 q 201 79 282 -17 q 119 358 119 175 q 200 638 119 542 q 419 733 281 733 q 547 708 492 733 q 640 635 603 682 q 697 521 678 588 q 717 374 717 454 l 717 354 l 172 354 l 172 318 q 238 105 172 183 q 426 26 304 26 q 572 67 513 26 q 664 188 632 107 l 703 167 q 601 33 671 83 q 426 -17 531 -17 m 419 692 q 237 613 301 692 q 172 399 172 533 l 172 393 l 665 393 l 665 400 q 601 613 665 535 q 419 692 538 692 m 419 889 q 380 900 392 889 q 368 929 368 911 l 368 944 q 380 974 368 963 q 419 985 392 985 q 459 974 447 985 q 471 944 471 963 l 471 929 q 459 900 471 911 q 419 889 447 889 z "},"ẹ":{"ha":833,"x_min":119,"x_max":717,"o":"m 426 -17 q 201 79 282 -17 q 119 358 119 175 q 200 638 119 542 q 419 733 281 733 q 547 708 492 733 q 640 635 603 682 q 697 521 678 588 q 717 374 717 454 l 717 354 l 172 354 l 172 318 q 238 105 172 183 q 426 26 304 26 q 572 67 513 26 q 664 188 632 107 l 703 167 q 601 33 671 83 q 426 -17 531 -17 m 419 692 q 237 613 301 692 q 172 399 172 533 l 172 393 l 665 393 l 665 400 q 601 613 665 535 q 419 692 538 692 m 426 -201 q 388 -190 399 -201 q 376 -162 376 -179 l 376 -149 q 388 -121 376 -132 q 426 -110 399 -110 q 465 -121 454 -110 q 476 -149 476 -132 l 476 -162 q 465 -190 476 -179 q 426 -201 454 -201 z "},"è":{"ha":833,"x_min":119,"x_max":717,"o":"m 426 -17 q 201 79 282 -17 q 119 358 119 175 q 200 638 119 542 q 419 733 281 733 q 547 708 492 733 q 640 635 603 682 q 697 521 678 588 q 717 374 717 454 l 717 354 l 172 354 l 172 318 q 238 105 172 183 q 426 26 304 26 q 572 67 513 26 q 664 188 632 107 l 703 167 q 601 33 671 83 q 426 -17 531 -17 m 419 692 q 237 613 301 692 q 172 399 172 533 l 172 393 l 665 393 l 665 400 q 601 613 665 535 q 419 692 538 692 m 278 1039 l 322 1063 l 468 843 l 435 825 l 278 1039 z "},"ẻ":{"ha":833,"x_min":119,"x_max":717,"o":"m 426 -17 q 201 79 282 -17 q 119 358 119 175 q 200 638 119 542 q 419 733 281 733 q 547 708 492 733 q 640 635 603 682 q 697 521 678 588 q 717 374 717 454 l 717 354 l 172 354 l 172 318 q 238 105 172 183 q 426 26 304 26 q 572 67 513 26 q 664 188 632 107 l 703 167 q 601 33 671 83 q 426 -17 531 -17 m 419 692 q 237 613 301 692 q 172 399 172 533 l 172 393 l 665 393 l 665 400 q 601 613 665 535 q 419 692 538 692 m 314 1043 l 494 1043 q 531 1033 519 1043 q 542 1006 542 1022 q 531 973 542 993 q 493 911 521 953 l 433 821 l 401 836 l 501 1004 l 314 1004 l 314 1043 z "},"ē":{"ha":833,"x_min":119,"x_max":717,"o":"m 426 -17 q 201 79 282 -17 q 119 358 119 175 q 200 638 119 542 q 419 733 281 733 q 547 708 492 733 q 640 635 603 682 q 697 521 678 588 q 717 374 717 454 l 717 354 l 172 354 l 172 318 q 238 105 172 183 q 426 26 304 26 q 572 67 513 26 q 664 188 632 107 l 703 167 q 601 33 671 83 q 426 -17 531 -17 m 419 692 q 237 613 301 692 q 172 399 172 533 l 172 393 l 665 393 l 665 400 q 601 613 665 535 q 419 692 538 692 m 236 960 l 603 960 l 603 918 l 236 918 l 236 960 z "},"ę":{"ha":833,"x_min":119,"x_max":717,"o":"m 469 -282 q 384 -257 418 -282 q 350 -183 350 -232 q 384 -98 350 -142 q 508 -6 418 -54 l 507 -3 q 424 -17 468 -17 q 200 79 281 -17 q 119 358 119 175 q 200 638 119 542 q 419 733 281 733 q 547 708 492 733 q 640 635 603 682 q 697 521 678 588 q 717 374 717 454 l 717 354 l 172 354 l 172 318 q 238 105 172 183 q 426 26 304 26 q 572 67 513 26 q 664 188 632 107 l 703 167 q 650 77 683 118 q 557 0 617 36 q 438 -89 482 -47 q 394 -178 394 -131 q 416 -229 394 -214 q 469 -244 438 -244 q 521 -234 501 -244 q 551 -210 540 -224 l 579 -235 q 538 -268 565 -254 q 469 -282 510 -282 m 665 393 l 665 400 q 601 613 665 535 q 419 692 538 692 q 237 613 301 692 q 172 399 172 533 l 172 393 l 665 393 z "},"ẽ":{"ha":833,"x_min":119,"x_max":717,"o":"m 426 -17 q 201 79 282 -17 q 119 358 119 175 q 200 638 119 542 q 419 733 281 733 q 547 708 492 733 q 640 635 603 682 q 697 521 678 588 q 717 374 717 454 l 717 354 l 172 354 l 172 318 q 238 105 172 183 q 426 26 304 26 q 572 67 513 26 q 664 188 632 107 l 703 167 q 601 33 671 83 q 426 -17 531 -17 m 419 692 q 237 613 301 692 q 172 399 172 533 l 172 393 l 665 393 l 665 400 q 601 613 665 535 q 419 692 538 692 m 518 878 q 467 888 492 878 q 411 918 443 899 q 358 945 379 938 q 318 953 338 953 q 272 942 293 953 q 229 910 251 932 l 206 935 q 258 978 229 963 q 321 994 286 994 q 372 984 347 994 q 428 954 396 974 q 481 927 460 935 q 521 919 501 919 q 567 930 546 919 q 610 963 588 940 l 633 938 q 581 894 610 910 q 518 878 553 878 z "},"ế":{"ha":833,"x_min":119,"x_max":747,"o":"m 426 -17 q 201 79 282 -17 q 119 358 119 175 q 200 638 119 542 q 419 733 281 733 q 547 708 492 733 q 640 635 603 682 q 697 521 678 588 q 717 374 717 454 l 717 354 l 172 354 l 172 318 q 238 105 172 183 q 426 26 304 26 q 572 67 513 26 q 664 188 632 107 l 703 167 q 601 33 671 83 q 426 -17 531 -17 m 419 692 q 237 613 301 692 q 172 399 172 533 l 172 393 l 665 393 l 665 400 q 601 613 665 535 q 419 692 538 692 m 590 983 l 558 1001 l 704 1221 l 747 1197 l 590 983 m 449 1038 l 621 850 l 592 828 l 419 1001 l 247 828 l 218 850 l 390 1038 l 449 1038 z "},"ệ":{"ha":833,"x_min":119,"x_max":717,"o":"m 426 -17 q 201 79 282 -17 q 119 358 119 175 q 200 638 119 542 q 419 733 281 733 q 547 708 492 733 q 640 635 603 682 q 697 521 678 588 q 717 374 717 454 l 717 354 l 172 354 l 172 318 q 238 105 172 183 q 426 26 304 26 q 572 67 513 26 q 664 188 632 107 l 703 167 q 601 33 671 83 q 426 -17 531 -17 m 419 692 q 237 613 301 692 q 172 399 172 533 l 172 393 l 665 393 l 665 400 q 601 613 665 535 q 419 692 538 692 m 449 1050 l 621 861 l 592 840 l 419 1014 l 247 840 l 218 861 l 390 1050 l 449 1050 m 426 -201 q 388 -190 399 -201 q 376 -162 376 -179 l 376 -149 q 388 -121 376 -132 q 426 -110 399 -110 q 465 -121 454 -110 q 476 -149 476 -132 l 476 -162 q 465 -190 476 -179 q 426 -201 454 -201 z "},"ề":{"ha":833,"x_min":92,"x_max":717,"o":"m 426 -17 q 201 79 282 -17 q 119 358 119 175 q 200 638 119 542 q 419 733 281 733 q 547 708 492 733 q 640 635 603 682 q 697 521 678 588 q 717 374 717 454 l 717 354 l 172 354 l 172 318 q 238 105 172 183 q 426 26 304 26 q 572 67 513 26 q 664 188 632 107 l 703 167 q 601 33 671 83 q 426 -17 531 -17 m 419 692 q 237 613 301 692 q 172 399 172 533 l 172 393 l 665 393 l 665 400 q 601 613 665 535 q 419 692 538 692 m 92 1197 l 135 1221 l 281 1001 l 249 983 l 92 1197 m 449 1038 l 621 850 l 592 828 l 419 1001 l 247 828 l 218 850 l 390 1038 l 449 1038 z "},"ể":{"ha":833,"x_min":119,"x_max":717,"o":"m 426 -17 q 201 79 282 -17 q 119 358 119 175 q 200 638 119 542 q 419 733 281 733 q 547 708 492 733 q 640 635 603 682 q 697 521 678 588 q 717 374 717 454 l 717 354 l 172 354 l 172 318 q 238 105 172 183 q 426 26 304 26 q 572 67 513 26 q 664 188 632 107 l 703 167 q 601 33 671 83 q 426 -17 531 -17 m 419 692 q 237 613 301 692 q 172 399 172 533 l 172 393 l 665 393 l 665 400 q 601 613 665 535 q 419 692 538 692 m 478 1203 l 660 1203 q 695 1192 683 1203 q 707 1165 707 1182 q 697 1131 707 1151 q 658 1069 686 1111 l 597 979 l 565 996 l 667 1164 l 478 1164 l 478 1203 m 449 1038 l 621 850 l 592 828 l 419 1001 l 247 828 l 218 850 l 390 1038 l 449 1038 z "},"ễ":{"ha":833,"x_min":119,"x_max":717,"o":"m 426 -17 q 201 79 282 -17 q 119 358 119 175 q 200 638 119 542 q 419 733 281 733 q 547 708 492 733 q 640 635 603 682 q 697 521 678 588 q 717 374 717 454 l 717 354 l 172 354 l 172 318 q 238 105 172 183 q 426 26 304 26 q 572 67 513 26 q 664 188 632 107 l 703 167 q 601 33 671 83 q 426 -17 531 -17 m 419 692 q 237 613 301 692 q 172 399 172 533 l 172 393 l 665 393 l 665 400 q 601 613 665 535 q 419 692 538 692 m 321 1201 q 372 1192 349 1201 q 428 1161 396 1182 q 481 1133 460 1142 q 521 1125 501 1125 q 567 1136 546 1125 q 610 1169 588 1147 l 632 1144 q 518 1086 585 1086 q 467 1096 490 1086 q 411 1126 443 1106 q 358 1154 379 1146 q 318 1163 338 1163 q 272 1151 293 1163 q 229 1118 251 1140 l 207 1143 q 321 1201 254 1201 m 449 1035 l 621 850 l 592 828 l 419 999 l 247 828 l 218 850 l 390 1035 l 449 1035 z "},"ə":{"ha":833,"x_min":118,"x_max":715,"o":"m 663 363 l 663 399 q 597 612 663 533 q 408 690 531 690 q 263 650 322 690 q 171 529 203 610 l 132 550 q 234 683 164 633 q 408 733 304 733 q 634 638 553 733 q 715 358 715 542 q 635 79 715 175 q 415 -17 554 -17 q 288 9 343 -17 q 194 82 232 35 q 138 195 157 129 q 118 343 118 261 l 118 363 l 663 363 m 169 317 q 233 103 169 182 q 415 25 297 25 q 598 104 533 25 q 663 318 663 183 l 663 324 l 169 324 l 169 317 z "},"ğ":{"ha":833,"x_min":118,"x_max":760,"o":"m 421 843 q 350 857 379 843 q 299 895 321 871 q 258 953 276 919 q 222 1029 240 988 l 254 1044 l 290 982 q 321 936 307 954 q 350 906 335 918 q 382 890 365 894 q 421 885 399 885 q 492 906 464 885 q 551 982 519 928 l 588 1044 l 619 1029 q 583 953 601 988 q 543 895 565 919 q 492 857 521 871 q 421 843 463 843 m 421 -294 q 189 -245 260 -294 q 118 -114 118 -196 q 153 -12 118 -51 q 253 47 189 28 l 253 54 q 181 149 181 78 q 217 229 181 200 q 301 272 253 258 l 301 276 q 206 359 240 304 q 172 493 172 414 q 190 592 172 547 q 239 667 207 636 q 317 716 271 699 q 421 733 364 733 q 524 717 478 733 l 758 717 l 758 675 l 588 675 q 649 599 628 646 q 671 493 671 551 q 653 394 671 439 q 601 317 635 349 q 522 269 568 286 q 421 251 476 251 q 346 260 385 251 q 258 221 290 246 q 225 156 225 196 q 251 106 225 126 q 344 85 276 85 l 525 85 q 704 38 649 85 q 760 -86 760 -8 q 672 -244 760 -194 q 421 -294 585 -294 m 421 292 q 567 342 517 292 q 618 468 618 392 l 618 518 q 567 643 618 593 q 421 693 517 693 q 275 643 325 693 q 225 518 225 593 l 225 468 q 276 342 225 392 q 421 292 326 292 m 713 -89 q 670 5 713 -29 q 522 39 628 39 l 300 39 q 204 -13 240 22 q 168 -108 168 -49 q 224 -214 168 -175 q 381 -253 281 -253 l 458 -253 q 643 -213 574 -253 q 713 -89 713 -174 z "},"ĝ":{"ha":833,"x_min":118,"x_max":760,"o":"m 450 1050 l 622 861 l 593 840 l 421 1014 l 249 840 l 219 861 l 392 1050 l 450 1050 m 421 -294 q 189 -245 260 -294 q 118 -114 118 -196 q 153 -12 118 -51 q 253 47 189 28 l 253 54 q 181 149 181 78 q 217 229 181 200 q 301 272 253 258 l 301 276 q 206 359 240 304 q 172 493 172 414 q 190 592 172 547 q 239 667 207 636 q 317 716 271 699 q 421 733 364 733 q 524 717 478 733 l 758 717 l 758 675 l 588 675 q 649 599 628 646 q 671 493 671 551 q 653 394 671 439 q 601 317 635 349 q 522 269 568 286 q 421 251 476 251 q 346 260 385 251 q 258 221 290 246 q 225 156 225 196 q 251 106 225 126 q 344 85 276 85 l 525 85 q 704 38 649 85 q 760 -86 760 -8 q 672 -244 760 -194 q 421 -294 585 -294 m 421 292 q 567 342 517 292 q 618 468 618 392 l 618 518 q 567 643 618 593 q 421 693 517 693 q 275 643 325 693 q 225 518 225 593 l 225 468 q 276 342 225 392 q 421 292 326 292 m 713 -89 q 670 5 713 -29 q 522 39 628 39 l 300 39 q 204 -13 240 22 q 168 -108 168 -49 q 224 -214 168 -175 q 381 -253 281 -253 l 458 -253 q 643 -213 574 -253 q 713 -89 713 -174 z "},"ģ":{"ha":833,"x_min":118,"x_max":772,"o":"m 760 -86 q 672 -244 760 -194 q 421 -294 585 -294 q 189 -245 260 -294 q 118 -114 118 -196 q 153 -12 118 -51 q 253 47 189 28 l 253 54 q 181 149 181 78 q 217 229 181 200 q 301 272 253 258 l 301 276 q 206 359 240 304 q 172 493 172 414 q 190 592 172 547 q 239 667 207 636 q 317 716 271 699 q 421 733 364 733 q 572 690 510 733 l 572 736 q 624 788 572 788 l 772 788 l 772 744 l 606 744 l 606 664 q 654 589 638 632 q 671 493 671 546 q 653 394 671 439 q 601 317 635 349 q 522 269 568 286 q 421 251 476 251 q 346 260 383 251 q 258 221 290 246 q 225 156 225 196 q 251 106 225 126 q 344 85 276 85 l 525 85 q 704 38 649 85 q 760 -86 760 -8 m 713 -89 q 670 5 713 -29 q 522 39 628 39 l 300 39 q 204 -13 240 22 q 168 -108 168 -49 q 224 -214 168 -175 q 381 -253 281 -253 l 458 -253 q 643 -213 574 -253 q 713 -89 713 -174 m 421 292 q 567 342 517 292 q 618 468 618 392 l 618 518 q 567 643 618 593 q 421 693 517 693 q 275 643 325 693 q 225 518 225 593 l 225 468 q 276 342 225 392 q 421 292 326 292 m 478 1071 l 517 1071 l 450 822 l 389 822 l 478 1071 z "},"ġ":{"ha":833,"x_min":118,"x_max":772,"o":"m 760 -86 q 672 -244 760 -194 q 421 -294 585 -294 q 189 -245 260 -294 q 118 -114 118 -196 q 153 -12 118 -51 q 253 47 189 28 l 253 54 q 181 149 181 78 q 217 229 181 200 q 301 272 253 258 l 301 276 q 206 359 240 304 q 172 493 172 414 q 190 592 172 547 q 239 667 207 636 q 317 716 271 699 q 421 733 364 733 q 572 690 510 733 l 572 736 q 624 788 572 788 l 772 788 l 772 744 l 606 744 l 606 664 q 654 589 638 632 q 671 493 671 546 q 653 394 671 439 q 601 317 635 349 q 522 269 568 286 q 421 251 476 251 q 346 260 383 251 q 258 221 290 246 q 225 156 225 196 q 251 106 225 126 q 344 85 276 85 l 525 85 q 704 38 649 85 q 760 -86 760 -8 m 713 -89 q 670 5 713 -29 q 522 39 628 39 l 300 39 q 204 -13 240 22 q 168 -108 168 -49 q 224 -214 168 -175 q 381 -253 281 -253 l 458 -253 q 643 -213 574 -253 q 713 -89 713 -174 m 421 292 q 567 342 517 292 q 618 468 618 392 l 618 518 q 567 643 618 593 q 421 693 517 693 q 275 643 325 693 q 225 518 225 593 l 225 468 q 276 342 225 392 q 421 292 326 292 m 421 889 q 381 900 393 889 q 369 929 369 911 l 369 944 q 381 974 369 963 q 421 985 393 985 q 460 974 449 985 q 472 944 472 963 l 472 929 q 460 900 472 911 q 421 889 449 889 z "},"ħ":{"ha":833,"x_min":69,"x_max":679,"o":"m 167 0 l 167 874 l 69 874 l 69 914 l 167 914 l 167 1028 l 215 1028 l 215 914 l 440 914 l 440 874 l 215 874 l 215 611 l 219 611 q 247 657 229 635 q 290 696 264 679 q 353 723 317 713 q 436 733 389 733 q 617 665 554 733 q 679 465 679 596 l 679 0 l 631 0 l 631 457 q 578 635 631 579 q 425 690 525 690 q 347 679 385 690 q 279 646 308 668 q 233 590 250 624 q 215 513 215 557 l 215 0 l 167 0 z "},"ĥ":{"ha":833,"x_min":-10,"x_max":679,"o":"m 167 1028 l 215 1028 l 215 611 l 219 611 q 247 657 229 635 q 290 696 264 679 q 353 723 317 713 q 436 733 389 733 q 617 665 554 733 q 679 465 679 596 l 679 0 l 631 0 l 631 457 q 578 635 631 579 q 425 690 525 690 q 347 679 385 690 q 279 646 308 668 q 233 590 250 624 q 215 513 215 557 l 215 0 l 167 0 l 167 1028 m 221 1303 l 393 1114 l 364 1093 l 192 1267 l 19 1093 l -10 1114 l 163 1303 l 221 1303 z "},"ı":{"ha":833,"x_min":158,"x_max":747,"o":"m 158 43 l 438 43 l 438 674 l 158 674 l 158 717 l 486 717 l 486 43 l 747 43 l 747 0 l 158 0 l 158 43 z "},"í":{"ha":833,"x_min":158,"x_max":747,"o":"m 158 43 l 438 43 l 438 674 l 158 674 l 158 717 l 486 717 l 486 43 l 747 43 l 747 0 l 158 0 l 158 43 m 444 825 l 411 843 l 557 1063 l 601 1039 l 444 825 z "},"ĭ":{"ha":833,"x_min":158,"x_max":747,"o":"m 158 43 l 438 43 l 438 674 l 158 674 l 158 717 l 486 717 l 486 43 l 747 43 l 747 0 l 158 0 l 158 43 m 461 843 q 390 857 419 843 q 339 895 361 871 q 299 953 317 919 q 263 1029 281 988 l 294 1044 l 331 982 q 361 936 347 954 q 390 906 375 918 q 422 890 406 894 q 461 885 439 885 q 532 906 504 885 q 592 982 560 928 l 628 1044 l 660 1029 q 624 953 642 988 q 583 895 606 919 q 532 857 561 871 q 461 843 503 843 z "},"î":{"ha":833,"x_min":158,"x_max":747,"o":"m 158 43 l 438 43 l 438 674 l 158 674 l 158 717 l 486 717 l 486 43 l 747 43 l 747 0 l 158 0 l 158 43 m 490 1050 l 663 861 l 633 840 l 461 1014 l 289 840 l 260 861 l 432 1050 l 490 1050 z "},"ï":{"ha":833,"x_min":158,"x_max":747,"o":"m 158 43 l 438 43 l 438 674 l 158 674 l 158 717 l 486 717 l 486 43 l 747 43 l 747 0 l 158 0 l 158 43 m 335 892 q 296 903 307 892 q 285 931 285 914 l 285 944 q 296 972 285 961 q 335 983 307 983 q 372 972 361 983 q 383 944 383 961 l 383 931 q 372 903 383 914 q 335 892 361 892 m 588 892 q 550 903 561 892 q 539 931 539 914 l 539 944 q 550 972 539 961 q 588 983 561 983 q 626 972 615 983 q 638 944 638 961 l 638 931 q 626 903 638 914 q 588 892 615 892 z "},"ị":{"ha":833,"x_min":158,"x_max":747,"o":"m 461 940 q 422 952 433 940 q 410 982 410 964 l 410 994 q 422 1024 410 1013 q 461 1036 433 1036 q 501 1024 489 1036 q 513 994 513 1013 l 513 982 q 501 952 513 964 q 461 940 489 940 m 158 43 l 438 43 l 438 674 l 158 674 l 158 717 l 486 717 l 486 43 l 747 43 l 747 0 l 158 0 l 158 43 m 461 -201 q 422 -190 433 -201 q 411 -162 411 -179 l 411 -149 q 422 -121 411 -132 q 461 -110 433 -110 q 500 -121 489 -110 q 511 -149 511 -132 l 511 -162 q 500 -190 511 -179 q 461 -201 489 -201 z "},"ì":{"ha":833,"x_min":158,"x_max":747,"o":"m 158 43 l 438 43 l 438 674 l 158 674 l 158 717 l 486 717 l 486 43 l 747 43 l 747 0 l 158 0 l 158 43 m 319 1039 l 364 1063 l 510 843 l 476 825 l 319 1039 z "},"ỉ":{"ha":833,"x_min":158,"x_max":747,"o":"m 158 43 l 438 43 l 438 674 l 158 674 l 158 717 l 486 717 l 486 43 l 747 43 l 747 0 l 158 0 l 158 43 m 356 1043 l 536 1043 q 572 1033 561 1043 q 583 1006 583 1022 q 573 973 583 993 q 535 911 563 953 l 475 821 l 443 836 l 543 1004 l 356 1004 l 356 1043 z "},"ī":{"ha":833,"x_min":158,"x_max":747,"o":"m 158 43 l 438 43 l 438 674 l 158 674 l 158 717 l 486 717 l 486 43 l 747 43 l 747 0 l 158 0 l 158 43 m 278 960 l 644 960 l 644 918 l 278 918 l 278 960 z "},"į":{"ha":833,"x_min":158,"x_max":768,"o":"m 658 -282 q 573 -257 607 -282 q 539 -183 539 -232 q 574 -96 539 -140 q 696 -3 608 -51 l 694 0 l 158 0 l 158 43 l 438 43 l 438 674 l 158 674 l 158 717 l 486 717 l 486 43 l 747 43 l 747 0 q 624 -92 664 -53 q 583 -178 583 -131 q 605 -229 583 -214 q 658 -244 626 -244 q 710 -234 690 -244 q 740 -210 729 -224 l 768 -235 q 726 -268 754 -254 q 658 -282 699 -282 m 461 940 q 422 952 433 940 q 410 982 410 964 l 410 994 q 422 1024 410 1013 q 461 1036 433 1036 q 501 1024 489 1036 q 513 994 513 1013 l 513 982 q 501 952 513 964 q 461 940 489 940 z "},"ĩ":{"ha":833,"x_min":158,"x_max":747,"o":"m 158 43 l 438 43 l 438 674 l 158 674 l 158 717 l 486 717 l 486 43 l 747 43 l 747 0 l 158 0 l 158 43 m 560 878 q 509 888 533 878 q 453 918 485 899 q 400 945 421 938 q 360 953 379 953 q 314 942 335 953 q 271 910 293 932 l 247 935 q 299 978 271 963 q 363 994 328 994 q 413 984 389 994 q 469 954 438 974 q 522 927 501 935 q 563 919 543 919 q 608 930 588 919 q 651 963 629 940 l 675 938 q 623 894 651 910 q 560 878 594 878 z "},"ĳ":{"ha":833,"x_min":147,"x_max":686,"o":"m 175 717 l 224 717 l 224 0 l 175 0 l 175 717 m 222 -235 l 610 -235 l 610 717 l 658 717 l 658 -208 q 590 -278 658 -278 l 222 -278 l 222 -235 m 199 940 q 159 952 171 940 q 147 982 147 964 l 147 994 q 159 1024 147 1013 q 199 1036 171 1036 q 238 1024 226 1036 q 250 994 250 1013 l 250 982 q 238 952 250 964 q 199 940 226 940 m 635 940 q 595 952 607 940 q 583 982 583 964 l 583 994 q 595 1024 583 1013 q 635 1036 607 1036 q 674 1024 663 1036 q 686 994 686 1013 l 686 982 q 674 952 686 964 q 635 940 663 940 z "},"ȷ":{"ha":833,"x_min":132,"x_max":594,"o":"m 151 -235 l 546 -235 l 546 674 l 132 674 l 132 717 l 594 717 l 594 -208 q 526 -278 594 -278 l 151 -278 l 151 -235 z "},"ĵ":{"ha":833,"x_min":132,"x_max":772,"o":"m 151 -235 l 546 -235 l 546 674 l 132 674 l 132 717 l 594 717 l 594 -208 q 526 -278 594 -278 l 151 -278 l 151 -235 m 600 1050 l 772 861 l 743 840 l 571 1014 l 399 840 l 369 861 l 542 1050 l 600 1050 z "},"ķ":{"ha":833,"x_min":182,"x_max":783,"o":"m 182 1028 l 231 1028 l 231 322 l 235 322 l 390 460 l 683 717 l 746 717 l 429 436 l 783 0 l 724 0 l 392 406 l 231 265 l 231 0 l 182 0 l 182 1028 m 435 -93 l 497 -93 l 418 -349 l 379 -349 l 435 -93 z "},"ĸ":{"ha":833,"x_min":182,"x_max":785,"o":"m 394 393 l 231 247 l 231 0 l 182 0 l 182 717 l 231 717 l 231 306 l 235 306 l 394 450 l 685 717 l 747 717 l 428 425 l 785 0 l 725 0 l 394 393 z "},"ĺ":{"ha":833,"x_min":122,"x_max":711,"o":"m 122 43 l 393 43 l 393 985 l 122 985 l 122 1028 l 442 1028 l 442 43 l 711 43 l 711 0 l 122 0 l 122 43 m 400 1078 l 367 1096 l 513 1315 l 557 1292 l 400 1078 z "},"ľ":{"ha":833,"x_min":122,"x_max":711,"o":"m 122 43 l 393 43 l 393 985 l 122 985 l 122 1028 l 442 1028 l 442 43 l 711 43 l 711 0 l 122 0 l 122 43 m 619 779 l 582 779 l 601 1028 l 661 1028 l 619 779 z "},"ļ":{"ha":833,"x_min":122,"x_max":711,"o":"m 122 43 l 393 43 l 393 985 l 122 985 l 122 1028 l 442 1028 l 442 43 l 711 43 l 711 0 l 122 0 l 122 43 m 388 -93 l 450 -93 l 371 -349 l 332 -349 l 388 -93 z "},"ŀ":{"ha":833,"x_min":122,"x_max":763,"o":"m 122 43 l 393 43 l 393 985 l 122 985 l 122 1028 l 442 1028 l 442 43 l 711 43 l 711 0 l 122 0 l 122 43 m 711 375 q 672 386 683 375 q 660 415 660 397 l 660 431 q 672 460 660 449 q 711 471 683 471 q 751 460 739 471 q 763 431 763 449 l 763 415 q 751 386 763 397 q 711 375 739 375 z "},"ł":{"ha":833,"x_min":122,"x_max":711,"o":"m 122 43 l 393 43 l 393 436 l 158 360 l 158 404 l 393 479 l 393 985 l 122 985 l 122 1028 l 442 1028 l 442 493 l 675 569 l 675 526 l 442 450 l 442 43 l 711 43 l 711 0 l 122 0 l 122 43 z "},"ń":{"ha":833,"x_min":167,"x_max":679,"o":"m 167 0 l 167 717 l 215 717 l 215 611 l 219 611 q 247 657 229 635 q 290 696 264 679 q 353 723 317 713 q 436 733 389 733 q 617 665 554 733 q 679 465 679 596 l 679 0 l 631 0 l 631 457 q 578 635 631 579 q 425 690 525 690 q 347 679 385 690 q 279 646 308 668 q 233 590 250 624 q 215 513 215 557 l 215 0 l 167 0 m 407 825 l 374 843 l 519 1063 l 564 1039 l 407 825 z "},"ň":{"ha":833,"x_min":167,"x_max":679,"o":"m 167 0 l 167 717 l 215 717 l 215 611 l 219 611 q 247 657 229 635 q 290 696 264 679 q 353 723 317 713 q 436 733 389 733 q 617 665 554 733 q 679 465 679 596 l 679 0 l 631 0 l 631 457 q 578 635 631 579 q 425 690 525 690 q 347 679 385 690 q 279 646 308 668 q 233 590 250 624 q 215 513 215 557 l 215 0 l 167 0 m 394 847 l 222 1035 l 253 1057 l 424 883 l 596 1057 l 625 1035 l 453 847 l 394 847 z "},"ņ":{"ha":833,"x_min":167,"x_max":679,"o":"m 167 0 l 167 717 l 215 717 l 215 611 l 219 611 q 247 657 229 635 q 290 696 264 679 q 353 723 317 713 q 436 733 389 733 q 617 665 554 733 q 679 465 679 596 l 679 0 l 631 0 l 631 457 q 578 635 631 579 q 425 690 525 690 q 347 679 385 690 q 279 646 308 668 q 233 590 250 624 q 215 513 215 557 l 215 0 l 167 0 m 394 -93 l 457 -93 l 378 -349 l 339 -349 l 394 -93 z "},"ñ":{"ha":833,"x_min":167,"x_max":679,"o":"m 167 0 l 167 717 l 215 717 l 215 611 l 219 611 q 247 657 229 635 q 290 696 264 679 q 353 723 317 713 q 436 733 389 733 q 617 665 554 733 q 679 465 679 596 l 679 0 l 631 0 l 631 457 q 578 635 631 579 q 425 690 525 690 q 347 679 385 690 q 279 646 308 668 q 233 590 250 624 q 215 513 215 557 l 215 0 l 167 0 m 522 878 q 472 888 496 878 q 415 918 447 899 q 363 945 383 938 q 322 953 342 953 q 276 942 297 953 q 233 910 256 932 l 210 935 q 262 978 233 963 q 325 994 290 994 q 376 984 351 994 q 432 954 400 974 q 485 927 464 935 q 525 919 506 919 q 571 930 550 919 q 614 963 592 940 l 638 938 q 585 894 614 910 q 522 878 557 878 z "},"ŉ":{"ha":833,"x_min":15,"x_max":679,"o":"m 167 717 l 215 717 l 215 611 l 219 611 q 247 657 229 635 q 290 696 264 679 q 353 723 317 713 q 436 733 389 733 q 617 665 554 733 q 679 465 679 596 l 679 0 l 631 0 l 631 457 q 578 635 631 579 q 425 690 525 690 q 347 679 385 690 q 279 646 308 668 q 233 590 250 624 q 215 513 215 557 l 215 0 l 167 0 l 167 717 m 50 1028 l 121 1028 l 51 771 l 15 771 l 50 1028 z "},"ŋ":{"ha":833,"x_min":167,"x_max":679,"o":"m 279 -235 l 631 -235 l 631 457 q 578 635 631 579 q 425 690 525 690 q 347 679 385 690 q 279 646 308 668 q 233 590 250 624 q 215 513 215 557 l 215 0 l 167 0 l 167 717 l 215 717 l 215 611 l 219 611 q 247 657 229 635 q 290 696 264 679 q 353 723 317 713 q 436 733 389 733 q 617 665 554 733 q 679 465 679 596 l 679 -208 q 611 -278 679 -278 l 279 -278 l 279 -235 z "},"ó":{"ha":833,"x_min":117,"x_max":717,"o":"m 417 -17 q 196 79 275 -17 q 117 358 117 175 q 196 638 117 542 q 417 733 275 733 q 638 638 558 733 q 717 358 717 542 q 638 79 717 175 q 417 -17 558 -17 m 417 26 q 599 104 535 26 q 664 321 664 182 l 664 396 q 599 613 664 535 q 417 690 535 690 q 234 613 299 690 q 169 396 169 535 l 169 321 q 234 104 169 182 q 417 26 299 26 m 400 825 l 367 843 l 513 1063 l 557 1039 l 400 825 z "},"ŏ":{"ha":833,"x_min":117,"x_max":717,"o":"m 417 -17 q 196 79 275 -17 q 117 358 117 175 q 196 638 117 542 q 417 733 275 733 q 638 638 558 733 q 717 358 717 542 q 638 79 717 175 q 417 -17 558 -17 m 417 26 q 599 104 535 26 q 664 321 664 182 l 664 396 q 599 613 664 535 q 417 690 535 690 q 234 613 299 690 q 169 396 169 535 l 169 321 q 234 104 169 182 q 417 26 299 26 m 417 843 q 346 857 375 843 q 294 895 317 871 q 254 953 272 919 q 218 1029 236 988 l 250 1044 l 286 982 q 317 936 303 954 q 346 906 331 918 q 378 890 361 894 q 417 885 394 885 q 488 906 460 885 q 547 982 515 928 l 583 1044 l 615 1029 q 579 953 597 988 q 539 895 561 919 q 488 857 517 871 q 417 843 458 843 z "},"ô":{"ha":833,"x_min":117,"x_max":717,"o":"m 417 -17 q 196 79 275 -17 q 117 358 117 175 q 196 638 117 542 q 417 733 275 733 q 638 638 558 733 q 717 358 717 542 q 638 79 717 175 q 417 -17 558 -17 m 417 26 q 599 104 535 26 q 664 321 664 182 l 664 396 q 599 613 664 535 q 417 690 535 690 q 234 613 299 690 q 169 396 169 535 l 169 321 q 234 104 169 182 q 417 26 299 26 m 446 1050 l 618 861 l 589 840 l 417 1014 l 244 840 l 215 861 l 388 1050 l 446 1050 z "},"ö":{"ha":833,"x_min":117,"x_max":717,"o":"m 417 -17 q 196 79 275 -17 q 117 358 117 175 q 196 638 117 542 q 417 733 275 733 q 638 638 558 733 q 717 358 717 542 q 638 79 717 175 q 417 -17 558 -17 m 417 26 q 599 104 535 26 q 664 321 664 182 l 664 396 q 599 613 664 535 q 417 690 535 690 q 234 613 299 690 q 169 396 169 535 l 169 321 q 234 104 169 182 q 417 26 299 26 m 290 892 q 251 903 263 892 q 240 931 240 914 l 240 944 q 251 972 240 961 q 290 983 263 983 q 328 972 317 983 q 339 944 339 961 l 339 931 q 328 903 339 914 q 290 892 317 892 m 543 892 q 506 903 517 892 q 494 931 494 914 l 494 944 q 506 972 494 961 q 543 983 517 983 q 582 972 571 983 q 593 944 593 961 l 593 931 q 582 903 593 914 q 543 892 571 892 z "},"ọ":{"ha":833,"x_min":117,"x_max":717,"o":"m 417 -17 q 196 79 275 -17 q 117 358 117 175 q 196 638 117 542 q 417 733 275 733 q 638 638 558 733 q 717 358 717 542 q 638 79 717 175 q 417 -17 558 -17 m 417 26 q 599 104 535 26 q 664 321 664 182 l 664 396 q 599 613 664 535 q 417 690 535 690 q 234 613 299 690 q 169 396 169 535 l 169 321 q 234 104 169 182 q 417 26 299 26 m 417 -201 q 378 -190 389 -201 q 367 -162 367 -179 l 367 -149 q 378 -121 367 -132 q 417 -110 389 -110 q 456 -121 444 -110 q 467 -149 467 -132 l 467 -162 q 456 -190 467 -179 q 417 -201 444 -201 z "},"ò":{"ha":833,"x_min":117,"x_max":717,"o":"m 417 -17 q 196 79 275 -17 q 117 358 117 175 q 196 638 117 542 q 417 733 275 733 q 638 638 558 733 q 717 358 717 542 q 638 79 717 175 q 417 -17 558 -17 m 417 26 q 599 104 535 26 q 664 321 664 182 l 664 396 q 599 613 664 535 q 417 690 535 690 q 234 613 299 690 q 169 396 169 535 l 169 321 q 234 104 169 182 q 417 26 299 26 m 275 1039 l 319 1063 l 465 843 l 432 825 l 275 1039 z "},"ỏ":{"ha":833,"x_min":117,"x_max":717,"o":"m 417 -17 q 196 79 275 -17 q 117 358 117 175 q 196 638 117 542 q 417 733 275 733 q 638 638 558 733 q 717 358 717 542 q 638 79 717 175 q 417 -17 558 -17 m 417 26 q 599 104 535 26 q 664 321 664 182 l 664 396 q 599 613 664 535 q 417 690 535 690 q 234 613 299 690 q 169 396 169 535 l 169 321 q 234 104 169 182 q 417 26 299 26 m 311 1043 l 492 1043 q 528 1033 517 1043 q 539 1006 539 1022 q 528 973 539 993 q 490 911 518 953 l 431 821 l 399 836 l 499 1004 l 311 1004 l 311 1043 z "},"ő":{"ha":833,"x_min":117,"x_max":717,"o":"m 417 -17 q 196 79 275 -17 q 117 358 117 175 q 196 638 117 542 q 417 733 275 733 q 638 638 558 733 q 717 358 717 542 q 638 79 717 175 q 417 -17 558 -17 m 417 26 q 599 104 535 26 q 664 321 664 182 l 664 396 q 599 613 664 535 q 417 690 535 690 q 234 613 299 690 q 169 396 169 535 l 169 321 q 234 104 169 182 q 417 26 299 26 m 308 825 l 276 843 l 422 1063 l 465 1039 l 308 825 m 531 825 l 499 843 l 644 1063 l 688 1039 l 531 825 z "},"ō":{"ha":833,"x_min":117,"x_max":717,"o":"m 417 -17 q 196 79 275 -17 q 117 358 117 175 q 196 638 117 542 q 417 733 275 733 q 638 638 558 733 q 717 358 717 542 q 638 79 717 175 q 417 -17 558 -17 m 417 26 q 599 104 535 26 q 664 321 664 182 l 664 396 q 599 613 664 535 q 417 690 535 690 q 234 613 299 690 q 169 396 169 535 l 169 321 q 234 104 169 182 q 417 26 299 26 m 233 960 l 600 960 l 600 918 l 233 918 l 233 960 z "},"ø":{"ha":833,"x_min":86,"x_max":747,"o":"m 86 -18 l 182 100 q 117 358 117 194 q 196 638 117 542 q 417 733 275 733 q 628 647 550 733 l 717 757 l 747 735 l 651 617 q 717 358 717 522 q 638 79 717 175 q 417 -17 558 -17 q 206 69 283 -17 l 117 -40 l 86 -18 m 417 690 q 234 613 299 690 q 169 396 169 535 l 169 321 q 213 136 169 211 l 599 613 q 521 670 567 650 q 417 690 475 690 m 417 26 q 599 104 535 26 q 664 321 664 182 l 664 396 q 621 581 664 506 l 235 104 q 417 26 300 26 z "},"ǿ":{"ha":833,"x_min":86,"x_max":747,"o":"m 86 -18 l 182 100 q 117 358 117 194 q 196 638 117 542 q 417 733 275 733 q 628 647 550 733 l 717 757 l 747 735 l 651 617 q 717 358 717 522 q 638 79 717 175 q 417 -17 558 -17 q 206 69 283 -17 l 117 -40 l 86 -18 m 417 690 q 234 613 299 690 q 169 396 169 535 l 169 321 q 213 136 169 211 l 599 613 q 521 670 567 650 q 417 690 475 690 m 417 26 q 599 104 535 26 q 664 321 664 182 l 664 396 q 621 581 664 506 l 235 104 q 417 26 300 26 m 400 825 l 367 843 l 513 1063 l 557 1039 l 400 825 z "},"õ":{"ha":833,"x_min":117,"x_max":717,"o":"m 417 -17 q 196 79 275 -17 q 117 358 117 175 q 196 638 117 542 q 417 733 275 733 q 638 638 558 733 q 717 358 717 542 q 638 79 717 175 q 417 -17 558 -17 m 417 26 q 599 104 535 26 q 664 321 664 182 l 664 396 q 599 613 664 535 q 417 690 535 690 q 234 613 299 690 q 169 396 169 535 l 169 321 q 234 104 169 182 q 417 26 299 26 m 515 878 q 465 888 489 878 q 408 918 440 899 q 356 945 376 938 q 315 953 335 953 q 269 942 290 953 q 226 910 249 932 l 203 935 q 255 978 226 963 q 318 994 283 994 q 369 984 344 994 q 425 954 393 974 q 478 927 457 935 q 518 919 499 919 q 564 930 543 919 q 607 963 585 940 l 631 938 q 578 894 607 910 q 515 878 550 878 z "},"ơ":{"ha":833,"x_min":117,"x_max":717,"o":"m 707 871 l 707 733 q 696 696 707 710 q 656 682 685 682 l 586 682 q 683 557 649 638 q 717 358 717 476 q 638 79 717 175 q 417 -17 558 -17 q 196 79 275 -17 q 117 358 117 175 q 196 638 117 542 q 417 733 275 733 q 522 717 474 733 l 663 717 l 663 871 l 707 871 m 417 26 q 599 104 535 26 q 664 321 664 182 l 664 396 q 599 613 664 535 q 417 690 535 690 q 234 613 299 690 q 169 396 169 535 l 169 321 q 234 104 169 182 q 417 26 299 26 z "},"ớ":{"ha":833,"x_min":117,"x_max":717,"o":"m 707 871 l 707 733 q 696 696 707 710 q 656 682 685 682 l 586 682 q 683 557 649 638 q 717 358 717 476 q 638 79 717 175 q 417 -17 558 -17 q 196 79 275 -17 q 117 358 117 175 q 196 638 117 542 q 417 733 275 733 q 522 717 474 733 l 663 717 l 663 871 l 707 871 m 417 26 q 599 104 535 26 q 664 321 664 182 l 664 396 q 599 613 664 535 q 417 690 535 690 q 234 613 299 690 q 169 396 169 535 l 169 321 q 234 104 169 182 q 417 26 299 26 m 400 825 l 367 843 l 513 1063 l 557 1039 l 400 825 z "},"ợ":{"ha":833,"x_min":117,"x_max":717,"o":"m 707 871 l 707 733 q 696 696 707 710 q 656 682 685 682 l 586 682 q 683 557 649 638 q 717 358 717 476 q 638 79 717 175 q 417 -17 558 -17 q 196 79 275 -17 q 117 358 117 175 q 196 638 117 542 q 417 733 275 733 q 522 717 474 733 l 663 717 l 663 871 l 707 871 m 417 26 q 599 104 535 26 q 664 321 664 182 l 664 396 q 599 613 664 535 q 417 690 535 690 q 234 613 299 690 q 169 396 169 535 l 169 321 q 234 104 169 182 q 417 26 299 26 m 417 -201 q 378 -190 389 -201 q 367 -162 367 -179 l 367 -149 q 378 -121 367 -132 q 417 -110 389 -110 q 456 -121 444 -110 q 467 -149 467 -132 l 467 -162 q 456 -190 467 -179 q 417 -201 444 -201 z "},"ờ":{"ha":833,"x_min":117,"x_max":717,"o":"m 707 871 l 707 733 q 696 696 707 710 q 656 682 685 682 l 586 682 q 683 557 649 638 q 717 358 717 476 q 638 79 717 175 q 417 -17 558 -17 q 196 79 275 -17 q 117 358 117 175 q 196 638 117 542 q 417 733 275 733 q 522 717 474 733 l 663 717 l 663 871 l 707 871 m 417 26 q 599 104 535 26 q 664 321 664 182 l 664 396 q 599 613 664 535 q 417 690 535 690 q 234 613 299 690 q 169 396 169 535 l 169 321 q 234 104 169 182 q 417 26 299 26 m 275 1039 l 319 1063 l 465 843 l 432 825 l 275 1039 z "},"ở":{"ha":833,"x_min":117,"x_max":717,"o":"m 707 871 l 707 733 q 696 696 707 710 q 656 682 685 682 l 586 682 q 683 557 649 638 q 717 358 717 476 q 638 79 717 175 q 417 -17 558 -17 q 196 79 275 -17 q 117 358 117 175 q 196 638 117 542 q 417 733 275 733 q 522 717 474 733 l 663 717 l 663 871 l 707 871 m 417 26 q 599 104 535 26 q 664 321 664 182 l 664 396 q 599 613 664 535 q 417 690 535 690 q 234 613 299 690 q 169 396 169 535 l 169 321 q 234 104 169 182 q 417 26 299 26 m 311 1043 l 492 1043 q 528 1033 517 1043 q 539 1006 539 1022 q 528 973 539 993 q 490 911 518 953 l 431 821 l 399 836 l 499 1004 l 311 1004 l 311 1043 z "},"ỡ":{"ha":833,"x_min":117,"x_max":717,"o":"m 707 871 l 707 733 q 696 696 707 710 q 656 682 685 682 l 586 682 q 683 557 649 638 q 717 358 717 476 q 638 79 717 175 q 417 -17 558 -17 q 196 79 275 -17 q 117 358 117 175 q 196 638 117 542 q 417 733 275 733 q 522 717 474 733 l 663 717 l 663 871 l 707 871 m 417 26 q 599 104 535 26 q 664 321 664 182 l 664 396 q 599 613 664 535 q 417 690 535 690 q 234 613 299 690 q 169 396 169 535 l 169 321 q 234 104 169 182 q 417 26 299 26 m 513 879 q 463 889 486 879 q 408 918 440 899 q 359 944 379 936 q 319 951 339 951 q 232 908 274 951 l 208 935 q 321 993 256 993 q 370 983 347 993 q 425 954 393 974 q 474 928 454 936 q 514 921 494 921 q 601 964 560 921 l 625 938 q 513 879 578 879 z "},"ố":{"ha":833,"x_min":117,"x_max":744,"o":"m 417 -17 q 196 79 275 -17 q 117 358 117 175 q 196 638 117 542 q 417 733 275 733 q 638 638 558 733 q 717 358 717 542 q 638 79 717 175 q 417 -17 558 -17 m 417 26 q 599 104 535 26 q 664 321 664 182 l 664 396 q 599 613 664 535 q 417 690 535 690 q 234 613 299 690 q 169 396 169 535 l 169 321 q 234 104 169 182 q 417 26 299 26 m 588 983 l 556 1001 l 701 1221 l 744 1197 l 588 983 m 446 1038 l 618 850 l 589 828 l 417 1001 l 244 828 l 215 850 l 388 1038 l 446 1038 z "},"ộ":{"ha":833,"x_min":117,"x_max":717,"o":"m 417 -17 q 196 79 275 -17 q 117 358 117 175 q 196 638 117 542 q 417 733 275 733 q 638 638 558 733 q 717 358 717 542 q 638 79 717 175 q 417 -17 558 -17 m 417 26 q 599 104 535 26 q 664 321 664 182 l 664 396 q 599 613 664 535 q 417 690 535 690 q 234 613 299 690 q 169 396 169 535 l 169 321 q 234 104 169 182 q 417 26 299 26 m 446 1050 l 618 861 l 589 840 l 417 1014 l 244 840 l 215 861 l 388 1050 l 446 1050 m 417 -201 q 378 -190 389 -201 q 367 -162 367 -179 l 367 -149 q 378 -121 367 -132 q 417 -110 389 -110 q 456 -121 444 -110 q 467 -149 467 -132 l 467 -162 q 456 -190 467 -179 q 417 -201 444 -201 z "},"ồ":{"ha":833,"x_min":89,"x_max":717,"o":"m 417 -17 q 196 79 275 -17 q 117 358 117 175 q 196 638 117 542 q 417 733 275 733 q 638 638 558 733 q 717 358 717 542 q 638 79 717 175 q 417 -17 558 -17 m 417 26 q 599 104 535 26 q 664 321 664 182 l 664 396 q 599 613 664 535 q 417 690 535 690 q 234 613 299 690 q 169 396 169 535 l 169 321 q 234 104 169 182 q 417 26 299 26 m 89 1197 l 132 1221 l 278 1001 l 246 983 l 89 1197 m 446 1038 l 618 850 l 589 828 l 417 1001 l 244 828 l 215 850 l 388 1038 l 446 1038 z "},"ổ":{"ha":833,"x_min":117,"x_max":717,"o":"m 417 -17 q 196 79 275 -17 q 117 358 117 175 q 196 638 117 542 q 417 733 275 733 q 638 638 558 733 q 717 358 717 542 q 638 79 717 175 q 417 -17 558 -17 m 417 26 q 599 104 535 26 q 664 321 664 182 l 664 396 q 599 613 664 535 q 417 690 535 690 q 234 613 299 690 q 169 396 169 535 l 169 321 q 234 104 169 182 q 417 26 299 26 m 475 1203 l 657 1203 q 692 1192 681 1203 q 704 1165 704 1182 q 694 1131 704 1151 q 656 1069 683 1111 l 594 979 l 563 996 l 664 1164 l 475 1164 l 475 1203 m 446 1038 l 618 850 l 589 828 l 417 1001 l 244 828 l 215 850 l 388 1038 l 446 1038 z "},"ỗ":{"ha":833,"x_min":117,"x_max":717,"o":"m 417 -17 q 196 79 275 -17 q 117 358 117 175 q 196 638 117 542 q 417 733 275 733 q 638 638 558 733 q 717 358 717 542 q 638 79 717 175 q 417 -17 558 -17 m 417 26 q 599 104 535 26 q 664 321 664 182 l 664 396 q 599 613 664 535 q 417 690 535 690 q 234 613 299 690 q 169 396 169 535 l 169 321 q 234 104 169 182 q 417 26 299 26 m 318 1201 q 369 1192 346 1201 q 425 1161 393 1182 q 478 1133 457 1142 q 518 1125 499 1125 q 564 1136 543 1125 q 607 1169 585 1147 l 629 1144 q 515 1086 582 1086 q 464 1096 488 1086 q 408 1126 440 1106 q 356 1154 376 1146 q 315 1163 335 1163 q 269 1151 290 1163 q 226 1118 249 1140 l 204 1143 q 318 1201 251 1201 m 446 1035 l 618 850 l 589 828 l 417 999 l 244 828 l 215 850 l 388 1035 l 446 1035 z "},"œ":{"ha":833,"x_min":31,"x_max":801,"o":"m 236 24 q 349 93 306 24 q 393 311 393 163 l 393 406 q 349 624 393 554 q 236 693 306 693 q 123 624 167 693 q 79 406 79 554 l 79 311 q 123 93 79 163 q 236 24 167 24 m 757 389 l 757 440 q 746 561 757 513 q 714 640 735 610 q 665 682 693 669 q 604 694 638 694 q 483 630 528 694 q 439 424 439 565 l 439 389 l 757 389 m 596 -17 q 484 26 533 -17 q 415 164 435 68 l 411 164 q 344 26 392 69 q 233 -17 297 -17 q 85 74 139 -17 q 31 358 31 165 q 85 642 31 551 q 233 733 139 733 q 349 687 301 733 q 415 550 396 640 l 419 550 q 488 690 440 647 q 607 733 536 733 q 749 660 697 733 q 801 428 801 588 l 801 351 l 439 351 l 439 310 q 451 178 439 232 q 485 90 464 124 q 536 40 507 56 q 599 25 565 25 q 696 67 658 25 q 753 176 733 108 l 792 161 q 765 96 782 128 q 725 39 749 64 q 669 -1 701 14 q 596 -17 638 -17 z "},"ŕ":{"ha":833,"x_min":110,"x_max":774,"o":"m 110 43 l 349 43 l 349 674 l 110 674 l 110 717 l 397 717 l 397 568 l 401 568 q 431 626 414 599 q 476 673 449 653 q 540 705 503 693 q 628 717 578 717 l 774 717 l 774 671 l 615 671 q 530 656 569 671 q 461 614 490 642 q 415 544 432 586 q 397 447 397 501 l 397 43 l 703 43 l 703 0 l 110 0 l 110 43 m 500 825 l 467 843 l 613 1063 l 657 1039 l 500 825 z "},"ř":{"ha":833,"x_min":110,"x_max":774,"o":"m 110 43 l 349 43 l 349 674 l 110 674 l 110 717 l 397 717 l 397 568 l 401 568 q 431 626 414 599 q 476 673 449 653 q 540 705 503 693 q 628 717 578 717 l 774 717 l 774 671 l 615 671 q 530 656 569 671 q 461 614 490 642 q 415 544 432 586 q 397 447 397 501 l 397 43 l 703 43 l 703 0 l 110 0 l 110 43 m 488 847 l 315 1035 l 346 1057 l 517 883 l 689 1057 l 718 1035 l 546 847 l 488 847 z "},"ŗ":{"ha":833,"x_min":110,"x_max":774,"o":"m 110 43 l 349 43 l 349 674 l 110 674 l 110 717 l 397 717 l 397 568 l 401 568 q 431 626 414 599 q 476 673 449 653 q 540 705 503 693 q 628 717 578 717 l 774 717 l 774 671 l 615 671 q 530 656 569 671 q 461 614 490 642 q 415 544 432 586 q 397 447 397 501 l 397 43 l 703 43 l 703 0 l 110 0 l 110 43 m 344 -93 l 407 -93 l 328 -349 l 289 -349 l 344 -93 z "},"ś":{"ha":833,"x_min":118,"x_max":721,"o":"m 438 -17 q 255 19 333 -17 q 118 125 176 54 l 153 154 q 276 56 207 88 q 438 25 344 25 q 608 66 543 25 q 672 193 672 107 q 660 256 672 231 q 624 297 647 281 q 567 322 600 313 q 493 336 533 331 l 382 351 q 294 369 336 358 q 222 400 253 379 q 172 453 190 421 q 153 536 153 486 q 174 626 153 589 q 230 688 194 664 q 313 722 265 711 q 415 733 361 733 q 509 724 467 733 q 585 699 551 715 q 647 663 619 683 q 694 621 674 643 l 661 588 q 622 626 644 607 q 570 659 600 644 q 502 683 540 674 q 414 692 464 692 q 259 655 317 692 q 201 539 201 618 q 214 477 201 501 q 250 437 226 453 q 307 412 274 421 q 381 397 340 403 l 493 381 q 580 363 539 374 q 652 333 621 353 q 702 279 683 313 q 721 196 721 246 q 699 101 721 142 q 640 35 678 61 q 551 -3 603 10 q 438 -17 499 -17 m 397 825 l 364 843 l 510 1063 l 554 1039 l 397 825 z "},"š":{"ha":833,"x_min":118,"x_max":721,"o":"m 438 -17 q 255 19 333 -17 q 118 125 176 54 l 153 154 q 276 56 207 88 q 438 25 344 25 q 608 66 543 25 q 672 193 672 107 q 660 256 672 231 q 624 297 647 281 q 567 322 600 313 q 493 336 533 331 l 382 351 q 294 369 336 358 q 222 400 253 379 q 172 453 190 421 q 153 536 153 486 q 174 626 153 589 q 230 688 194 664 q 313 722 265 711 q 415 733 361 733 q 509 724 467 733 q 585 699 551 715 q 647 663 619 683 q 694 621 674 643 l 661 588 q 622 626 644 607 q 570 659 600 644 q 502 683 540 674 q 414 692 464 692 q 259 655 317 692 q 201 539 201 618 q 214 477 201 501 q 250 437 226 453 q 307 412 274 421 q 381 397 340 403 l 493 381 q 580 363 539 374 q 652 333 621 353 q 702 279 683 313 q 721 196 721 246 q 699 101 721 142 q 640 35 678 61 q 551 -3 603 10 q 438 -17 499 -17 m 385 847 l 213 1035 l 243 1057 l 414 883 l 586 1057 l 615 1035 l 443 847 l 385 847 z "},"ş":{"ha":833,"x_min":118,"x_max":721,"o":"m 439 -282 q 364 -268 394 -282 q 321 -235 333 -254 l 347 -207 q 384 -235 361 -225 q 439 -246 407 -246 q 496 -229 474 -246 q 518 -181 518 -212 q 499 -138 518 -156 q 431 -118 481 -121 l 383 -114 l 406 -17 q 242 25 313 -10 q 118 125 171 60 l 153 154 q 276 56 207 88 q 438 25 344 25 q 608 66 543 25 q 672 193 672 107 q 660 256 672 231 q 624 297 647 281 q 567 322 600 313 q 493 336 533 331 l 382 351 q 294 369 336 358 q 222 400 253 379 q 172 453 190 421 q 153 536 153 486 q 174 626 153 589 q 230 688 194 664 q 313 722 265 711 q 415 733 361 733 q 509 724 467 733 q 585 699 551 715 q 647 663 619 683 q 694 621 674 643 l 661 588 q 622 626 644 607 q 570 659 600 644 q 502 683 540 674 q 414 692 464 692 q 259 655 317 692 q 201 539 201 618 q 214 477 201 501 q 250 437 226 453 q 307 412 274 421 q 381 397 340 403 l 493 381 q 580 363 539 374 q 652 333 621 353 q 702 279 683 313 q 721 196 721 246 q 700 102 721 142 q 642 36 679 63 q 553 -3 604 10 q 442 -17 501 -17 l 440 -17 l 421 -97 l 425 -100 q 469 -96 446 -96 q 536 -118 510 -96 q 563 -179 563 -140 q 528 -253 563 -224 q 439 -282 494 -282 z "},"ŝ":{"ha":833,"x_min":118,"x_max":721,"o":"m 438 -17 q 255 19 333 -17 q 118 125 176 54 l 153 154 q 276 56 207 88 q 438 25 344 25 q 608 66 543 25 q 672 193 672 107 q 660 256 672 231 q 624 297 647 281 q 567 322 600 313 q 493 336 533 331 l 382 351 q 294 369 336 358 q 222 400 253 379 q 172 453 190 421 q 153 536 153 486 q 174 626 153 589 q 230 688 194 664 q 313 722 265 711 q 415 733 361 733 q 509 724 467 733 q 585 699 551 715 q 647 663 619 683 q 694 621 674 643 l 661 588 q 622 626 644 607 q 570 659 600 644 q 502 683 540 674 q 414 692 464 692 q 259 655 317 692 q 201 539 201 618 q 214 477 201 501 q 250 437 226 453 q 307 412 274 421 q 381 397 340 403 l 493 381 q 580 363 539 374 q 652 333 621 353 q 702 279 683 313 q 721 196 721 246 q 699 101 721 142 q 640 35 678 61 q 551 -3 603 10 q 438 -17 499 -17 m 443 1050 l 615 861 l 586 840 l 414 1014 l 242 840 l 213 861 l 385 1050 l 443 1050 z "},"ș":{"ha":833,"x_min":118,"x_max":721,"o":"m 438 -17 q 255 19 333 -17 q 118 125 176 54 l 153 154 q 276 56 207 88 q 438 25 344 25 q 608 66 543 25 q 672 193 672 107 q 660 256 672 231 q 624 297 647 281 q 567 322 600 313 q 493 336 533 331 l 382 351 q 294 369 336 358 q 222 400 253 379 q 172 453 190 421 q 153 536 153 486 q 174 626 153 589 q 230 688 194 664 q 313 722 265 711 q 415 733 361 733 q 509 724 467 733 q 585 699 551 715 q 647 663 619 683 q 694 621 674 643 l 661 588 q 622 626 644 607 q 570 659 600 644 q 502 683 540 674 q 414 692 464 692 q 259 655 317 692 q 201 539 201 618 q 214 477 201 501 q 250 437 226 453 q 307 412 274 421 q 381 397 340 403 l 493 381 q 580 363 539 374 q 652 333 621 353 q 702 279 683 313 q 721 196 721 246 q 699 101 721 142 q 640 35 678 61 q 551 -3 603 10 q 438 -17 499 -17 m 404 -93 l 467 -93 l 388 -349 l 349 -349 l 404 -93 z "},"ß":{"ha":833,"x_min":182,"x_max":788,"o":"m 182 0 l 182 958 q 250 1028 182 1028 l 525 1028 l 525 985 l 231 985 l 231 717 l 733 717 l 733 669 l 436 290 q 698 224 608 288 q 788 14 788 160 q 695 -205 788 -132 q 428 -278 603 -278 l 339 -278 l 339 -235 l 428 -235 q 735 -4 735 -235 l 735 36 q 713 135 735 94 q 651 201 692 175 q 553 238 611 226 q 421 250 494 250 l 386 250 l 386 294 l 685 674 l 231 674 l 231 0 l 182 0 z "},"ŧ":{"ha":833,"x_min":51,"x_max":726,"o":"m 725 0 l 389 0 q 321 69 321 0 l 321 381 l 147 381 l 147 421 l 321 421 l 321 674 l 51 674 l 51 717 l 275 717 q 322 763 322 717 l 322 969 l 369 969 l 369 717 l 726 717 l 726 674 l 369 674 l 369 421 l 631 421 l 631 381 l 369 381 l 369 43 l 725 43 l 725 0 z "},"ť":{"ha":833,"x_min":51,"x_max":726,"o":"m 389 0 q 321 69 321 0 l 321 674 l 51 674 l 51 717 l 275 717 q 322 763 322 717 l 322 969 l 369 969 l 369 717 l 726 717 l 726 674 l 369 674 l 369 43 l 726 43 l 726 0 l 389 0 m 578 807 l 540 807 l 560 1056 l 619 1056 l 578 807 z "},"ţ":{"ha":833,"x_min":51,"x_max":726,"o":"m 389 0 q 321 69 321 0 l 321 674 l 51 674 l 51 717 l 275 717 q 322 763 322 717 l 322 969 l 369 969 l 369 717 l 726 717 l 726 674 l 369 674 l 369 43 l 726 43 l 726 0 l 389 0 m 494 -93 l 557 -93 l 478 -349 l 439 -349 l 494 -93 z "},"ț":{"ha":833,"x_min":51,"x_max":726,"o":"m 389 0 q 321 69 321 0 l 321 674 l 51 674 l 51 717 l 275 717 q 322 763 322 717 l 322 969 l 369 969 l 369 717 l 726 717 l 726 674 l 369 674 l 369 43 l 726 43 l 726 0 l 389 0 m 494 -93 l 557 -93 l 478 -349 l 439 -349 l 494 -93 z "},"þ":{"ha":833,"x_min":164,"x_max":729,"o":"m 164 1028 l 213 1028 l 213 607 l 217 607 q 249 654 229 632 q 297 694 269 676 q 361 723 325 713 q 443 733 397 733 q 560 711 507 733 q 650 643 613 689 q 708 526 688 597 q 729 358 729 456 q 708 190 729 261 q 650 74 688 119 q 560 6 613 28 q 443 -17 507 -17 q 361 -6 397 -17 q 297 22 325 4 q 249 63 269 40 q 217 110 229 85 l 213 110 l 213 -278 l 164 -278 l 164 1028 m 431 26 q 610 100 543 26 q 676 314 676 174 l 676 403 q 610 617 676 543 q 431 690 543 690 q 348 678 388 690 q 278 642 308 665 q 231 585 249 618 q 213 511 213 551 l 213 206 q 231 132 213 165 q 278 75 249 99 q 348 39 308 51 q 431 26 388 26 z "},"ú":{"ha":833,"x_min":154,"x_max":667,"o":"m 618 106 l 614 106 q 542 21 594 58 q 397 -17 490 -17 q 217 52 279 -17 q 154 251 154 121 l 154 717 l 203 717 l 203 260 q 256 82 203 138 q 408 26 308 26 q 487 38 449 26 q 554 71 525 49 q 601 126 583 93 q 618 204 618 160 l 618 717 l 667 717 l 667 0 l 618 0 l 618 106 m 396 825 l 363 843 l 508 1063 l 553 1039 l 396 825 z "},"ŭ":{"ha":833,"x_min":154,"x_max":667,"o":"m 618 106 l 614 106 q 542 21 594 58 q 397 -17 490 -17 q 217 52 279 -17 q 154 251 154 121 l 154 717 l 203 717 l 203 260 q 256 82 203 138 q 408 26 308 26 q 487 38 449 26 q 554 71 525 49 q 601 126 583 93 q 618 204 618 160 l 618 717 l 667 717 l 667 0 l 618 0 l 618 106 m 413 843 q 342 857 371 843 q 290 895 313 871 q 250 953 268 919 q 214 1029 232 988 l 246 1044 l 282 982 q 313 936 299 954 q 342 906 326 918 q 374 890 357 894 q 413 885 390 885 q 483 906 456 885 q 543 982 511 928 l 579 1044 l 611 1029 q 575 953 593 988 q 535 895 557 919 q 483 857 513 871 q 413 843 454 843 z "},"û":{"ha":833,"x_min":154,"x_max":667,"o":"m 618 106 l 614 106 q 542 21 594 58 q 397 -17 490 -17 q 217 52 279 -17 q 154 251 154 121 l 154 717 l 203 717 l 203 260 q 256 82 203 138 q 408 26 308 26 q 487 38 449 26 q 554 71 525 49 q 601 126 583 93 q 618 204 618 160 l 618 717 l 667 717 l 667 0 l 618 0 l 618 106 m 442 1050 l 614 861 l 585 840 l 413 1014 l 240 840 l 211 861 l 383 1050 l 442 1050 z "},"ü":{"ha":833,"x_min":154,"x_max":667,"o":"m 618 106 l 614 106 q 542 21 594 58 q 397 -17 490 -17 q 217 52 279 -17 q 154 251 154 121 l 154 717 l 203 717 l 203 260 q 256 82 203 138 q 408 26 308 26 q 487 38 449 26 q 554 71 525 49 q 601 126 583 93 q 618 204 618 160 l 618 717 l 667 717 l 667 0 l 618 0 l 618 106 m 286 892 q 247 903 258 892 q 236 931 236 914 l 236 944 q 247 972 236 961 q 286 983 258 983 q 324 972 313 983 q 335 944 335 961 l 335 931 q 324 903 335 914 q 286 892 313 892 m 539 892 q 501 903 513 892 q 490 931 490 914 l 490 944 q 501 972 490 961 q 539 983 513 983 q 578 972 567 983 q 589 944 589 961 l 589 931 q 578 903 589 914 q 539 892 567 892 z "},"ụ":{"ha":833,"x_min":154,"x_max":667,"o":"m 618 106 l 614 106 q 542 21 594 58 q 397 -17 490 -17 q 217 52 279 -17 q 154 251 154 121 l 154 717 l 203 717 l 203 260 q 256 82 203 138 q 408 26 308 26 q 487 38 449 26 q 554 71 525 49 q 601 126 583 93 q 618 204 618 160 l 618 717 l 667 717 l 667 0 l 618 0 l 618 106 m 411 -201 q 372 -190 383 -201 q 361 -162 361 -179 l 361 -149 q 372 -121 361 -132 q 411 -110 383 -110 q 450 -121 439 -110 q 461 -149 461 -132 l 461 -162 q 450 -190 461 -179 q 411 -201 439 -201 z "},"ù":{"ha":833,"x_min":154,"x_max":667,"o":"m 618 106 l 614 106 q 542 21 594 58 q 397 -17 490 -17 q 217 52 279 -17 q 154 251 154 121 l 154 717 l 203 717 l 203 260 q 256 82 203 138 q 408 26 308 26 q 487 38 449 26 q 554 71 525 49 q 601 126 583 93 q 618 204 618 160 l 618 717 l 667 717 l 667 0 l 618 0 l 618 106 m 271 1039 l 315 1063 l 461 843 l 428 825 l 271 1039 z "},"ủ":{"ha":833,"x_min":154,"x_max":667,"o":"m 618 106 l 614 106 q 542 21 594 58 q 397 -17 490 -17 q 217 52 279 -17 q 154 251 154 121 l 154 717 l 203 717 l 203 260 q 256 82 203 138 q 408 26 308 26 q 487 38 449 26 q 554 71 525 49 q 601 126 583 93 q 618 204 618 160 l 618 717 l 667 717 l 667 0 l 618 0 l 618 106 m 306 1043 l 486 1043 q 522 1033 511 1043 q 533 1006 533 1022 q 523 973 533 993 q 485 911 513 953 l 425 821 l 393 836 l 493 1004 l 306 1004 l 306 1043 z "},"ű":{"ha":833,"x_min":154,"x_max":683,"o":"m 618 106 l 614 106 q 542 21 594 58 q 397 -17 490 -17 q 217 52 279 -17 q 154 251 154 121 l 154 717 l 203 717 l 203 260 q 256 82 203 138 q 408 26 308 26 q 487 38 449 26 q 554 71 525 49 q 601 126 583 93 q 618 204 618 160 l 618 717 l 667 717 l 667 0 l 618 0 l 618 106 m 304 825 l 272 843 l 418 1063 l 461 1039 l 304 825 m 526 825 l 494 843 l 640 1063 l 683 1039 l 526 825 z "},"ū":{"ha":833,"x_min":154,"x_max":667,"o":"m 618 106 l 614 106 q 542 21 594 58 q 397 -17 490 -17 q 217 52 279 -17 q 154 251 154 121 l 154 717 l 203 717 l 203 260 q 256 82 203 138 q 408 26 308 26 q 487 38 449 26 q 554 71 525 49 q 601 126 583 93 q 618 204 618 160 l 618 717 l 667 717 l 667 0 l 618 0 l 618 106 m 229 960 l 596 960 l 596 918 l 229 918 l 229 960 z "},"ų":{"ha":833,"x_min":154,"x_max":689,"o":"m 667 0 q 543 -92 583 -53 q 503 -178 503 -131 q 525 -229 503 -214 q 579 -244 547 -244 q 630 -234 611 -244 q 660 -210 649 -224 l 689 -235 q 647 -268 675 -254 q 578 -282 619 -282 q 492 -257 526 -282 q 458 -183 458 -232 q 493 -94 458 -140 q 618 1 528 -49 l 618 106 l 614 106 q 542 21 594 58 q 397 -17 490 -17 q 217 52 279 -17 q 154 251 154 121 l 154 717 l 203 717 l 203 260 q 256 82 203 138 q 408 26 308 26 q 487 38 449 26 q 554 71 525 49 q 601 126 583 93 q 618 204 618 160 l 618 717 l 667 717 l 667 0 z "},"ů":{"ha":833,"x_min":154,"x_max":667,"o":"m 618 106 l 614 106 q 542 21 594 58 q 397 -17 490 -17 q 217 52 279 -17 q 154 251 154 121 l 154 717 l 203 717 l 203 260 q 256 82 203 138 q 408 26 308 26 q 487 38 449 26 q 554 71 525 49 q 601 126 583 93 q 618 204 618 160 l 618 717 l 667 717 l 667 0 l 618 0 l 618 106 m 413 825 q 316 862 353 825 q 279 958 279 899 q 316 1056 279 1018 q 413 1093 353 1093 q 509 1056 472 1093 q 546 958 546 1018 q 509 862 546 899 q 413 825 472 825 m 413 860 q 481 884 456 860 q 506 950 506 908 l 506 968 q 481 1033 506 1008 q 413 1058 456 1058 q 344 1033 369 1058 q 319 968 319 1008 l 319 950 q 344 884 319 908 q 413 860 369 860 z "},"ũ":{"ha":833,"x_min":154,"x_max":667,"o":"m 618 106 l 614 106 q 542 21 594 58 q 397 -17 490 -17 q 217 52 279 -17 q 154 251 154 121 l 154 717 l 203 717 l 203 260 q 256 82 203 138 q 408 26 308 26 q 487 38 449 26 q 554 71 525 49 q 601 126 583 93 q 618 204 618 160 l 618 717 l 667 717 l 667 0 l 618 0 l 618 106 m 511 878 q 460 888 485 878 q 404 918 436 899 q 351 945 372 938 q 311 953 331 953 q 265 942 286 953 q 222 910 244 932 l 199 935 q 251 978 222 963 q 314 994 279 994 q 365 984 340 994 q 421 954 389 974 q 474 927 453 935 q 514 919 494 919 q 560 930 539 919 q 603 963 581 940 l 626 938 q 574 894 603 910 q 511 878 546 878 z "},"ư":{"ha":833,"x_min":154,"x_max":796,"o":"m 796 732 q 784 694 796 707 q 744 681 772 681 l 667 681 l 667 0 l 618 0 l 618 106 l 614 106 q 542 21 594 58 q 397 -17 490 -17 q 217 52 279 -17 q 154 251 154 121 l 154 717 l 203 717 l 203 260 q 256 82 203 138 q 408 26 308 26 q 487 38 449 26 q 554 71 525 49 q 601 126 583 93 q 618 204 618 160 l 618 717 l 751 717 l 751 871 l 796 871 l 796 732 z "},"ứ":{"ha":833,"x_min":154,"x_max":796,"o":"m 796 732 q 784 694 796 707 q 744 681 772 681 l 667 681 l 667 0 l 618 0 l 618 106 l 614 106 q 542 21 594 58 q 397 -17 490 -17 q 217 52 279 -17 q 154 251 154 121 l 154 717 l 203 717 l 203 260 q 256 82 203 138 q 408 26 308 26 q 487 38 449 26 q 554 71 525 49 q 601 126 583 93 q 618 204 618 160 l 618 717 l 751 717 l 751 871 l 796 871 l 796 732 m 396 825 l 363 843 l 508 1063 l 553 1039 l 396 825 z "},"ự":{"ha":833,"x_min":154,"x_max":796,"o":"m 796 732 q 784 694 796 707 q 744 681 772 681 l 667 681 l 667 0 l 618 0 l 618 106 l 614 106 q 542 21 594 58 q 397 -17 490 -17 q 217 52 279 -17 q 154 251 154 121 l 154 717 l 203 717 l 203 260 q 256 82 203 138 q 408 26 308 26 q 487 38 449 26 q 554 71 525 49 q 601 126 583 93 q 618 204 618 160 l 618 717 l 751 717 l 751 871 l 796 871 l 796 732 m 411 -201 q 372 -190 383 -201 q 361 -162 361 -179 l 361 -149 q 372 -121 361 -132 q 411 -110 383 -110 q 450 -121 439 -110 q 461 -149 461 -132 l 461 -162 q 450 -190 461 -179 q 411 -201 439 -201 z "},"ừ":{"ha":833,"x_min":154,"x_max":796,"o":"m 796 732 q 784 694 796 707 q 744 681 772 681 l 667 681 l 667 0 l 618 0 l 618 106 l 614 106 q 542 21 594 58 q 397 -17 490 -17 q 217 52 279 -17 q 154 251 154 121 l 154 717 l 203 717 l 203 260 q 256 82 203 138 q 408 26 308 26 q 487 38 449 26 q 554 71 525 49 q 601 126 583 93 q 618 204 618 160 l 618 717 l 751 717 l 751 871 l 796 871 l 796 732 m 271 1039 l 315 1063 l 461 843 l 428 825 l 271 1039 z "},"ử":{"ha":833,"x_min":154,"x_max":796,"o":"m 796 732 q 784 694 796 707 q 744 681 772 681 l 667 681 l 667 0 l 618 0 l 618 106 l 614 106 q 542 21 594 58 q 397 -17 490 -17 q 217 52 279 -17 q 154 251 154 121 l 154 717 l 203 717 l 203 260 q 256 82 203 138 q 408 26 308 26 q 487 38 449 26 q 554 71 525 49 q 601 126 583 93 q 618 204 618 160 l 618 717 l 751 717 l 751 871 l 796 871 l 796 732 m 306 1043 l 486 1043 q 522 1033 511 1043 q 533 1006 533 1022 q 523 973 533 993 q 485 911 513 953 l 425 821 l 393 836 l 493 1004 l 306 1004 l 306 1043 z "},"ữ":{"ha":833,"x_min":154,"x_max":796,"o":"m 796 732 q 784 694 796 707 q 744 681 772 681 l 667 681 l 667 0 l 618 0 l 618 106 l 614 106 q 542 21 594 58 q 397 -17 490 -17 q 217 52 279 -17 q 154 251 154 121 l 154 717 l 203 717 l 203 260 q 256 82 203 138 q 408 26 308 26 q 487 38 449 26 q 554 71 525 49 q 601 126 583 93 q 618 204 618 160 l 618 717 l 751 717 l 751 871 l 796 871 l 796 732 m 508 879 q 459 889 482 879 q 404 918 436 899 q 355 944 375 936 q 315 951 335 951 q 228 908 269 951 l 204 935 q 317 993 251 993 q 366 983 343 993 q 421 954 389 974 q 470 928 450 936 q 510 921 490 921 q 597 964 556 921 l 621 938 q 508 879 574 879 z "},"ẃ":{"ha":833,"x_min":50,"x_max":783,"o":"m 50 717 l 94 717 l 214 43 l 219 43 l 386 717 l 449 717 l 615 43 l 621 43 l 740 717 l 783 717 l 654 0 l 585 0 l 421 668 l 415 668 l 249 0 l 179 0 l 50 717 m 400 825 l 367 843 l 513 1063 l 557 1039 l 400 825 z "},"ŵ":{"ha":833,"x_min":50,"x_max":783,"o":"m 50 717 l 94 717 l 214 43 l 219 43 l 386 717 l 449 717 l 615 43 l 621 43 l 740 717 l 783 717 l 654 0 l 585 0 l 421 668 l 415 668 l 249 0 l 179 0 l 50 717 m 446 1050 l 618 861 l 589 840 l 417 1014 l 244 840 l 215 861 l 388 1050 l 446 1050 z "},"ẅ":{"ha":833,"x_min":50,"x_max":783,"o":"m 50 717 l 94 717 l 214 43 l 219 43 l 386 717 l 449 717 l 615 43 l 621 43 l 740 717 l 783 717 l 654 0 l 585 0 l 421 668 l 415 668 l 249 0 l 179 0 l 50 717 m 290 892 q 251 903 263 892 q 240 931 240 914 l 240 944 q 251 972 240 961 q 290 983 263 983 q 328 972 317 983 q 339 944 339 961 l 339 931 q 328 903 339 914 q 290 892 317 892 m 543 892 q 506 903 517 892 q 494 931 494 914 l 494 944 q 506 972 494 961 q 543 983 517 983 q 582 972 571 983 q 593 944 593 961 l 593 931 q 582 903 593 914 q 543 892 571 892 z "},"ẁ":{"ha":833,"x_min":50,"x_max":783,"o":"m 50 717 l 94 717 l 214 43 l 219 43 l 386 717 l 449 717 l 615 43 l 621 43 l 740 717 l 783 717 l 654 0 l 585 0 l 421 668 l 415 668 l 249 0 l 179 0 l 50 717 m 275 1039 l 319 1063 l 465 843 l 432 825 l 275 1039 z "},"ý":{"ha":833,"x_min":106,"x_max":728,"o":"m 678 717 l 728 717 l 336 -229 q 308 -266 325 -254 q 260 -278 292 -278 l 126 -278 l 126 -235 l 285 -235 l 392 24 l 106 717 l 157 717 l 415 86 l 419 86 l 678 717 m 399 825 l 365 843 l 511 1063 l 556 1039 l 399 825 z "},"ŷ":{"ha":833,"x_min":106,"x_max":728,"o":"m 678 717 l 728 717 l 336 -229 q 308 -266 325 -254 q 260 -278 292 -278 l 126 -278 l 126 -235 l 285 -235 l 392 24 l 106 717 l 157 717 l 415 86 l 419 86 l 678 717 m 444 1050 l 617 861 l 588 840 l 415 1014 l 243 840 l 214 861 l 386 1050 l 444 1050 z "},"ÿ":{"ha":833,"x_min":106,"x_max":728,"o":"m 678 717 l 728 717 l 336 -229 q 308 -266 325 -254 q 260 -278 292 -278 l 126 -278 l 126 -235 l 285 -235 l 392 24 l 106 717 l 157 717 l 415 86 l 419 86 l 678 717 m 289 892 q 250 903 261 892 q 239 931 239 914 l 239 944 q 250 972 239 961 q 289 983 261 983 q 326 972 315 983 q 338 944 338 961 l 338 931 q 326 903 338 914 q 289 892 315 892 m 542 892 q 504 903 515 892 q 493 931 493 914 l 493 944 q 504 972 493 961 q 542 983 515 983 q 581 972 569 983 q 592 944 592 961 l 592 931 q 581 903 592 914 q 542 892 569 892 z "},"ỵ":{"ha":833,"x_min":106,"x_max":728,"o":"m 678 717 l 728 717 l 336 -229 q 308 -266 325 -254 q 260 -278 292 -278 l 126 -278 l 126 -235 l 285 -235 l 392 24 l 106 717 l 157 717 l 415 86 l 419 86 l 678 717 m 618 -201 q 579 -190 590 -201 q 568 -162 568 -179 l 568 -149 q 579 -121 568 -132 q 618 -110 590 -110 q 657 -121 646 -110 q 668 -149 668 -132 l 668 -162 q 657 -190 668 -179 q 618 -201 646 -201 z "},"ỳ":{"ha":833,"x_min":106,"x_max":728,"o":"m 678 717 l 728 717 l 336 -229 q 308 -266 325 -254 q 260 -278 292 -278 l 126 -278 l 126 -235 l 285 -235 l 392 24 l 106 717 l 157 717 l 415 86 l 419 86 l 678 717 m 274 1039 l 318 1063 l 464 843 l 431 825 l 274 1039 z "},"ỷ":{"ha":833,"x_min":106,"x_max":728,"o":"m 678 717 l 728 717 l 336 -229 q 308 -266 325 -254 q 260 -278 292 -278 l 126 -278 l 126 -235 l 285 -235 l 392 24 l 106 717 l 157 717 l 415 86 l 419 86 l 678 717 m 308 1043 l 489 1043 q 525 1033 514 1043 q 536 1006 536 1022 q 526 973 536 993 q 488 911 515 953 l 428 821 l 396 836 l 496 1004 l 308 1004 l 308 1043 z "},"ỹ":{"ha":833,"x_min":106,"x_max":728,"o":"m 678 717 l 728 717 l 336 -229 q 308 -266 325 -254 q 260 -278 292 -278 l 126 -278 l 126 -235 l 285 -235 l 392 24 l 106 717 l 157 717 l 415 86 l 419 86 l 678 717 m 514 878 q 463 888 488 878 q 407 918 439 899 q 354 945 375 938 q 314 953 333 953 q 268 942 289 953 q 225 910 247 932 l 201 935 q 253 978 225 963 q 317 994 282 994 q 367 984 343 994 q 424 954 392 974 q 476 927 456 935 q 517 919 497 919 q 563 930 542 919 q 606 963 583 940 l 629 938 q 577 894 606 910 q 514 878 549 878 z "},"ź":{"ha":833,"x_min":136,"x_max":697,"o":"m 136 0 l 136 47 l 631 674 l 150 674 l 150 717 l 683 717 l 683 669 l 189 43 l 697 43 l 697 0 l 136 0 m 400 825 l 367 843 l 513 1063 l 557 1039 l 400 825 z "},"ž":{"ha":833,"x_min":136,"x_max":697,"o":"m 136 0 l 136 47 l 631 674 l 150 674 l 150 717 l 683 717 l 683 669 l 189 43 l 697 43 l 697 0 l 136 0 m 388 847 l 215 1035 l 246 1057 l 417 883 l 589 1057 l 618 1035 l 446 847 l 388 847 z "},"ż":{"ha":833,"x_min":136,"x_max":697,"o":"m 136 0 l 136 47 l 631 674 l 150 674 l 150 717 l 683 717 l 683 669 l 189 43 l 697 43 l 697 0 l 136 0 m 417 889 q 377 900 389 889 q 365 929 365 911 l 365 944 q 377 974 365 963 q 417 985 389 985 q 456 974 444 985 q 468 944 468 963 l 468 929 q 456 900 468 911 q 417 889 444 889 z "},"Á":{"ha":833,"x_min":65,"x_max":768,"o":"m 715 0 l 613 314 l 221 314 l 118 0 l 65 0 l 383 969 l 451 969 l 768 0 l 715 0 m 419 914 l 413 914 l 233 358 l 600 358 l 419 914 m 400 1061 l 367 1079 l 513 1299 l 557 1275 l 400 1061 z "},"Ă":{"ha":833,"x_min":65,"x_max":768,"o":"m 715 0 l 613 314 l 221 314 l 118 0 l 65 0 l 383 969 l 451 969 l 768 0 l 715 0 m 419 914 l 413 914 l 233 358 l 600 358 l 419 914 m 417 1079 q 346 1093 375 1079 q 294 1131 317 1107 q 254 1190 272 1156 q 218 1265 236 1224 l 250 1281 l 286 1218 q 317 1172 303 1190 q 346 1142 331 1154 q 378 1126 361 1131 q 417 1121 394 1121 q 488 1142 460 1121 q 547 1218 515 1164 l 583 1281 l 615 1265 q 579 1190 597 1224 q 539 1131 561 1156 q 488 1093 517 1107 q 417 1079 458 1079 z "},"Â":{"ha":833,"x_min":65,"x_max":768,"o":"m 715 0 l 613 314 l 221 314 l 118 0 l 65 0 l 383 969 l 451 969 l 768 0 l 715 0 m 419 914 l 413 914 l 233 358 l 600 358 l 419 914 m 446 1286 l 618 1097 l 589 1076 l 417 1250 l 244 1076 l 215 1097 l 388 1286 l 446 1286 z "},"Ä":{"ha":833,"x_min":65,"x_max":768,"o":"m 715 0 l 613 314 l 221 314 l 118 0 l 65 0 l 383 969 l 451 969 l 768 0 l 715 0 m 419 914 l 413 914 l 233 358 l 600 358 l 419 914 m 290 1128 q 251 1139 263 1128 q 240 1167 240 1150 l 240 1181 q 251 1208 240 1197 q 290 1219 263 1219 q 328 1208 317 1219 q 339 1181 339 1197 l 339 1167 q 328 1139 339 1150 q 290 1128 317 1128 m 543 1128 q 506 1139 517 1128 q 494 1167 494 1150 l 494 1181 q 506 1208 494 1197 q 543 1219 517 1219 q 582 1208 571 1219 q 593 1181 593 1197 l 593 1167 q 582 1139 593 1150 q 543 1128 571 1128 z "},"Ạ":{"ha":833,"x_min":65,"x_max":768,"o":"m 715 0 l 613 314 l 221 314 l 118 0 l 65 0 l 383 969 l 451 969 l 768 0 l 715 0 m 419 914 l 413 914 l 233 358 l 600 358 l 419 914 m 417 -201 q 378 -190 389 -201 q 367 -162 367 -179 l 367 -149 q 378 -121 367 -132 q 417 -110 389 -110 q 456 -121 444 -110 q 467 -149 467 -132 l 467 -162 q 456 -190 467 -179 q 417 -201 444 -201 z "},"À":{"ha":833,"x_min":65,"x_max":768,"o":"m 715 0 l 613 314 l 221 314 l 118 0 l 65 0 l 383 969 l 451 969 l 768 0 l 715 0 m 419 914 l 413 914 l 233 358 l 600 358 l 419 914 m 275 1275 l 319 1299 l 465 1079 l 432 1061 l 275 1275 z "},"Ả":{"ha":833,"x_min":65,"x_max":768,"o":"m 715 0 l 613 314 l 221 314 l 118 0 l 65 0 l 383 969 l 451 969 l 768 0 l 715 0 m 419 914 l 413 914 l 233 358 l 600 358 l 419 914 m 311 1279 l 492 1279 q 528 1269 517 1279 q 539 1242 539 1258 q 528 1209 539 1229 q 490 1147 518 1189 l 431 1057 l 399 1072 l 499 1240 l 311 1240 l 311 1279 z "},"Ā":{"ha":833,"x_min":65,"x_max":768,"o":"m 715 0 l 613 314 l 221 314 l 118 0 l 65 0 l 383 969 l 451 969 l 768 0 l 715 0 m 419 914 l 413 914 l 233 358 l 600 358 l 419 914 m 233 1196 l 600 1196 l 600 1154 l 233 1154 l 233 1196 z "},"Ą":{"ha":833,"x_min":65,"x_max":790,"o":"m 383 969 l 451 969 l 768 0 q 646 -92 686 -53 q 606 -178 606 -131 q 627 -229 606 -214 q 681 -244 649 -244 q 732 -234 713 -244 q 763 -210 751 -224 l 790 -235 q 749 -268 776 -254 q 681 -282 721 -282 q 594 -257 629 -282 q 560 -183 560 -232 q 593 -94 560 -140 q 715 1 626 -47 l 613 314 l 221 314 l 118 0 l 65 0 l 383 969 m 419 914 l 413 914 l 233 358 l 600 358 l 419 914 z "},"Å":{"ha":833,"x_min":65,"x_max":768,"o":"m 715 0 l 613 314 l 221 314 l 118 0 l 65 0 l 383 969 l 451 969 l 768 0 l 715 0 m 419 914 l 413 914 l 233 358 l 600 358 l 419 914 m 417 1061 q 320 1098 357 1061 q 283 1194 283 1135 q 320 1292 283 1254 q 417 1329 357 1329 q 513 1292 476 1329 q 550 1194 550 1254 q 513 1098 550 1135 q 417 1061 476 1061 m 417 1096 q 485 1120 460 1096 q 510 1186 510 1144 l 510 1204 q 485 1269 510 1244 q 417 1294 460 1294 q 349 1269 374 1294 q 324 1204 324 1244 l 324 1186 q 349 1120 324 1144 q 417 1096 374 1096 z "},"Ǻ":{"ha":833,"x_min":65,"x_max":768,"o":"m 715 0 l 613 314 l 221 314 l 118 0 l 65 0 l 383 969 l 451 969 l 768 0 l 715 0 m 419 914 l 413 914 l 233 358 l 600 358 l 419 914 m 421 1363 l 390 1378 l 499 1525 l 542 1503 l 421 1363 m 417 1057 q 320 1094 357 1057 q 283 1192 283 1132 q 320 1289 283 1251 q 417 1326 357 1326 q 513 1289 476 1326 q 550 1192 550 1251 q 513 1094 550 1132 q 417 1057 476 1057 m 417 1093 q 485 1117 460 1093 q 510 1182 510 1142 l 510 1200 q 485 1266 510 1242 q 417 1290 460 1290 q 349 1266 374 1290 q 324 1200 324 1242 l 324 1182 q 349 1117 324 1142 q 417 1093 374 1093 z "},"Ã":{"ha":833,"x_min":65,"x_max":768,"o":"m 715 0 l 613 314 l 221 314 l 118 0 l 65 0 l 383 969 l 451 969 l 768 0 l 715 0 m 419 914 l 413 914 l 233 358 l 600 358 l 419 914 m 515 1114 q 465 1124 489 1114 q 408 1154 440 1135 q 356 1181 376 1174 q 315 1189 335 1189 q 269 1178 290 1189 q 226 1146 249 1168 l 203 1171 q 255 1215 226 1199 q 318 1231 283 1231 q 369 1220 344 1231 q 425 1190 393 1210 q 478 1163 457 1171 q 518 1156 499 1156 q 564 1166 543 1156 q 607 1199 585 1176 l 631 1174 q 578 1130 607 1146 q 515 1114 550 1114 z "},"Ắ":{"ha":833,"x_min":65,"x_max":768,"o":"m 715 0 l 613 314 l 221 314 l 118 0 l 65 0 l 383 969 l 451 969 l 768 0 l 715 0 m 419 914 l 413 914 l 233 358 l 600 358 l 419 914 m 417 1068 q 345 1081 375 1068 q 292 1118 315 1094 q 251 1175 269 1142 q 215 1250 233 1208 l 247 1265 l 283 1203 q 344 1129 315 1150 q 417 1108 372 1108 q 490 1129 461 1108 q 550 1203 518 1150 l 586 1265 l 618 1250 q 581 1175 599 1208 q 540 1117 563 1142 q 488 1081 517 1093 q 417 1068 458 1068 m 410 1218 l 378 1236 l 524 1456 l 567 1432 l 410 1218 z "},"Ặ":{"ha":833,"x_min":65,"x_max":768,"o":"m 715 0 l 613 314 l 221 314 l 118 0 l 65 0 l 383 969 l 451 969 l 768 0 l 715 0 m 419 914 l 413 914 l 233 358 l 600 358 l 419 914 m 417 1079 q 346 1093 375 1079 q 294 1131 317 1107 q 254 1190 272 1156 q 218 1265 236 1224 l 250 1281 l 286 1218 q 317 1172 303 1190 q 346 1142 331 1154 q 378 1126 361 1131 q 417 1121 394 1121 q 488 1142 460 1121 q 547 1218 515 1164 l 583 1281 l 615 1265 q 579 1190 597 1224 q 539 1131 561 1156 q 488 1093 517 1107 q 417 1079 458 1079 m 417 -201 q 378 -190 389 -201 q 367 -162 367 -179 l 367 -149 q 378 -121 367 -132 q 417 -110 389 -110 q 456 -121 444 -110 q 467 -149 467 -132 l 467 -162 q 456 -190 467 -179 q 417 -201 444 -201 z "},"Ằ":{"ha":833,"x_min":65,"x_max":768,"o":"m 715 0 l 613 314 l 221 314 l 118 0 l 65 0 l 383 969 l 451 969 l 768 0 l 715 0 m 419 914 l 413 914 l 233 358 l 600 358 l 419 914 m 417 1068 q 346 1081 375 1068 q 294 1117 317 1093 q 252 1175 271 1142 q 215 1250 233 1208 l 247 1265 l 283 1203 q 344 1129 315 1150 q 417 1108 372 1108 q 490 1129 461 1108 q 550 1203 518 1150 l 586 1265 l 618 1250 q 582 1175 600 1208 q 541 1118 564 1142 q 488 1081 518 1094 q 417 1068 458 1068 m 267 1432 l 310 1456 l 456 1236 l 424 1218 l 267 1432 z "},"Ẳ":{"ha":833,"x_min":65,"x_max":768,"o":"m 715 0 l 613 314 l 221 314 l 118 0 l 65 0 l 383 969 l 451 969 l 768 0 l 715 0 m 419 914 l 413 914 l 233 358 l 600 358 l 419 914 m 310 1438 l 486 1438 q 522 1427 511 1438 q 533 1400 533 1417 q 523 1366 533 1386 q 485 1304 513 1346 l 425 1214 l 393 1231 l 493 1399 l 310 1399 l 310 1438 m 417 1068 q 346 1081 375 1068 q 294 1117 317 1093 q 252 1175 271 1142 q 215 1250 233 1208 l 247 1265 l 283 1203 q 344 1129 315 1150 q 417 1108 372 1108 q 490 1129 461 1108 q 550 1203 518 1150 l 586 1265 l 618 1250 q 582 1175 600 1208 q 541 1118 564 1142 q 488 1081 518 1094 q 417 1068 458 1068 z "},"Ẵ":{"ha":833,"x_min":65,"x_max":768,"o":"m 715 0 l 613 314 l 221 314 l 118 0 l 65 0 l 383 969 l 451 969 l 768 0 l 715 0 m 419 914 l 413 914 l 233 358 l 600 358 l 419 914 m 515 1308 q 464 1319 488 1308 q 408 1349 440 1329 q 356 1376 376 1368 q 315 1385 335 1385 q 269 1374 290 1385 q 226 1340 249 1363 l 204 1365 q 318 1424 251 1424 q 369 1413 346 1424 q 425 1383 393 1403 q 478 1356 457 1364 q 518 1347 499 1347 q 564 1358 543 1347 q 607 1392 585 1369 l 629 1367 q 515 1308 582 1308 m 417 1068 q 346 1081 375 1068 q 294 1117 317 1093 q 252 1175 271 1142 q 215 1250 233 1208 l 247 1265 l 283 1203 q 344 1129 315 1150 q 417 1108 372 1108 q 490 1129 461 1108 q 550 1203 518 1150 l 586 1265 l 618 1250 q 582 1175 600 1208 q 541 1118 564 1142 q 488 1081 518 1094 q 417 1068 458 1068 z "},"Ấ":{"ha":833,"x_min":65,"x_max":768,"o":"m 715 0 l 613 314 l 221 314 l 118 0 l 65 0 l 383 969 l 451 969 l 768 0 l 715 0 m 419 914 l 413 914 l 233 358 l 600 358 l 419 914 m 588 1219 l 556 1238 l 701 1457 l 744 1433 l 588 1219 m 446 1274 l 618 1086 l 589 1064 l 417 1238 l 244 1064 l 215 1086 l 388 1274 l 446 1274 z "},"Ậ":{"ha":833,"x_min":65,"x_max":768,"o":"m 715 0 l 613 314 l 221 314 l 118 0 l 65 0 l 383 969 l 451 969 l 768 0 l 715 0 m 419 914 l 413 914 l 233 358 l 600 358 l 419 914 m 446 1286 l 618 1097 l 589 1076 l 417 1250 l 244 1076 l 215 1097 l 388 1286 l 446 1286 m 417 -201 q 378 -190 389 -201 q 367 -162 367 -179 l 367 -149 q 378 -121 367 -132 q 417 -110 389 -110 q 456 -121 444 -110 q 467 -149 467 -132 l 467 -162 q 456 -190 467 -179 q 417 -201 444 -201 z "},"Ầ":{"ha":833,"x_min":65,"x_max":768,"o":"m 715 0 l 613 314 l 221 314 l 118 0 l 65 0 l 383 969 l 451 969 l 768 0 l 715 0 m 419 914 l 413 914 l 233 358 l 600 358 l 419 914 m 89 1433 l 132 1457 l 278 1238 l 246 1219 l 89 1433 m 446 1274 l 618 1086 l 589 1064 l 417 1238 l 244 1064 l 215 1086 l 388 1274 l 446 1274 z "},"Ẩ":{"ha":833,"x_min":65,"x_max":768,"o":"m 715 0 l 613 314 l 221 314 l 118 0 l 65 0 l 383 969 l 451 969 l 768 0 l 715 0 m 419 914 l 413 914 l 233 358 l 600 358 l 419 914 m 475 1439 l 657 1439 q 692 1428 681 1439 q 704 1401 704 1418 q 694 1367 704 1388 q 656 1306 683 1347 l 594 1215 l 563 1232 l 664 1400 l 475 1400 l 475 1439 m 446 1274 l 618 1086 l 589 1064 l 417 1238 l 244 1064 l 215 1086 l 388 1274 l 446 1274 z "},"Ẫ":{"ha":833,"x_min":65,"x_max":768,"o":"m 715 0 l 613 314 l 221 314 l 118 0 l 65 0 l 383 969 l 451 969 l 768 0 l 715 0 m 419 914 l 413 914 l 233 358 l 600 358 l 419 914 m 318 1438 q 369 1428 346 1438 q 425 1397 393 1418 q 478 1369 457 1378 q 518 1361 499 1361 q 564 1372 543 1361 q 607 1406 585 1383 l 629 1381 q 515 1322 582 1322 q 464 1332 488 1322 q 408 1363 440 1342 q 356 1390 376 1382 q 315 1399 335 1399 q 269 1388 290 1399 q 226 1354 249 1376 l 204 1379 q 318 1438 251 1438 m 446 1271 l 618 1086 l 589 1064 l 417 1235 l 244 1064 l 215 1086 l 388 1271 l 446 1271 z "},"Æ":{"ha":833,"x_min":47,"x_max":767,"o":"m 449 314 l 197 314 l 101 0 l 47 0 l 351 969 l 767 969 l 767 925 l 497 925 l 497 514 l 747 514 l 747 469 l 497 469 l 497 44 l 767 44 l 767 0 l 449 0 l 449 314 m 388 929 l 210 357 l 449 357 l 449 929 l 388 929 z "},"Ǽ":{"ha":833,"x_min":47,"x_max":767,"o":"m 449 314 l 197 314 l 101 0 l 47 0 l 351 969 l 767 969 l 767 925 l 497 925 l 497 514 l 747 514 l 747 469 l 497 469 l 497 44 l 767 44 l 767 0 l 449 0 l 449 314 m 388 929 l 210 357 l 449 357 l 449 929 l 388 929 m 529 1061 l 496 1079 l 642 1299 l 686 1275 l 529 1061 z "},"Ć":{"ha":833,"x_min":107,"x_max":726,"o":"m 451 -17 q 195 103 283 -17 q 107 485 107 224 q 195 865 107 744 q 451 986 283 986 q 626 930 558 986 q 726 786 694 874 l 682 768 q 597 894 654 847 q 451 940 540 940 q 235 838 308 940 q 163 538 163 736 l 163 432 q 235 131 163 233 q 451 29 308 29 q 597 76 540 29 q 682 201 654 122 l 726 183 q 626 40 694 96 q 451 -17 558 -17 m 436 1061 l 403 1079 l 549 1299 l 593 1275 l 436 1061 z "},"Č":{"ha":833,"x_min":107,"x_max":726,"o":"m 451 -17 q 195 103 283 -17 q 107 485 107 224 q 195 865 107 744 q 451 986 283 986 q 626 930 558 986 q 726 786 694 874 l 682 768 q 597 894 654 847 q 451 940 540 940 q 235 838 308 940 q 163 538 163 736 l 163 432 q 235 131 163 233 q 451 29 308 29 q 597 76 540 29 q 682 201 654 122 l 726 183 q 626 40 694 96 q 451 -17 558 -17 m 424 1083 l 251 1271 l 281 1293 l 453 1119 l 625 1293 l 654 1271 l 482 1083 l 424 1083 z "},"Ç":{"ha":833,"x_min":107,"x_max":726,"o":"m 451 940 q 235 838 308 940 q 161 538 161 736 l 161 432 q 235 131 161 233 q 451 29 308 29 q 597 76 540 29 q 682 201 654 122 l 726 183 q 626 40 694 96 q 453 -17 558 -15 l 449 -17 l 431 -97 l 433 -100 q 478 -96 454 -96 q 544 -118 518 -96 q 571 -179 571 -140 q 537 -253 571 -224 q 447 -282 503 -282 q 372 -268 403 -282 q 329 -235 342 -254 l 356 -207 q 393 -235 369 -225 q 447 -246 417 -246 q 505 -229 483 -246 q 526 -181 526 -212 q 508 -138 526 -156 q 440 -118 489 -121 l 392 -114 l 415 -15 q 185 117 264 -3 q 107 485 107 238 q 195 865 107 744 q 451 986 283 986 q 626 930 558 986 q 726 786 694 874 l 682 768 q 597 894 654 847 q 451 940 540 940 z "},"Ĉ":{"ha":833,"x_min":107,"x_max":726,"o":"m 451 -17 q 195 103 283 -17 q 107 485 107 224 q 195 865 107 744 q 451 986 283 986 q 626 930 558 986 q 726 786 694 874 l 682 768 q 597 894 654 847 q 451 940 540 940 q 235 838 308 940 q 163 538 163 736 l 163 432 q 235 131 163 233 q 451 29 308 29 q 597 76 540 29 q 682 201 654 122 l 726 183 q 626 40 694 96 q 451 -17 558 -17 m 482 1286 l 654 1097 l 625 1076 l 453 1250 l 281 1076 l 251 1097 l 424 1286 l 482 1286 z "},"Ċ":{"ha":833,"x_min":107,"x_max":726,"o":"m 451 -17 q 195 103 283 -17 q 107 485 107 224 q 195 865 107 744 q 451 986 283 986 q 626 930 558 986 q 726 786 694 874 l 682 768 q 597 894 654 847 q 451 940 540 940 q 235 838 308 940 q 163 538 163 736 l 163 432 q 235 131 163 233 q 451 29 308 29 q 597 76 540 29 q 682 201 654 122 l 726 183 q 626 40 694 96 q 451 -17 558 -17 m 453 1125 q 413 1136 425 1125 q 401 1165 401 1147 l 401 1181 q 413 1210 401 1199 q 453 1221 425 1221 q 492 1210 481 1221 q 504 1181 504 1199 l 504 1165 q 492 1136 504 1147 q 453 1125 481 1125 z "},"Ď":{"ha":833,"x_min":146,"x_max":739,"o":"m 146 969 l 403 969 q 658 847 578 969 q 739 485 739 725 q 658 122 739 244 q 403 0 578 0 l 146 0 l 146 969 m 403 46 q 616 149 549 46 q 683 433 683 251 l 683 536 q 616 821 683 718 q 403 924 549 924 l 196 924 l 196 46 l 403 46 m 357 1083 l 185 1271 l 214 1293 l 386 1119 l 558 1293 l 588 1271 l 415 1083 l 357 1083 z "},"Đ":{"ha":833,"x_min":42,"x_max":738,"o":"m 168 492 l 42 492 l 42 533 l 168 533 l 168 969 l 401 969 q 657 847 576 969 q 738 485 738 725 q 657 122 738 244 q 401 0 576 0 l 168 0 l 168 492 m 401 46 q 615 149 547 46 q 683 433 683 251 l 683 536 q 615 821 683 718 q 401 924 547 924 l 218 924 l 218 533 l 454 533 l 454 492 l 218 492 l 218 46 l 401 46 z "},"Ð":{"ha":833,"x_min":42,"x_max":738,"o":"m 168 492 l 42 492 l 42 533 l 168 533 l 168 969 l 401 969 q 657 847 576 969 q 738 485 738 725 q 657 122 738 244 q 401 0 576 0 l 168 0 l 168 492 m 401 46 q 615 149 547 46 q 683 433 683 251 l 683 536 q 615 821 683 718 q 401 924 547 924 l 218 924 l 218 533 l 454 533 l 454 492 l 218 492 l 218 46 l 401 46 z "},"É":{"ha":833,"x_min":144,"x_max":715,"o":"m 144 0 l 144 969 l 715 969 l 715 924 l 194 924 l 194 515 l 697 515 l 697 469 l 194 469 l 194 46 l 715 46 l 715 0 l 144 0 m 411 1061 l 378 1079 l 524 1299 l 568 1275 l 411 1061 z "},"Ĕ":{"ha":833,"x_min":144,"x_max":715,"o":"m 144 0 l 144 969 l 715 969 l 715 924 l 194 924 l 194 515 l 697 515 l 697 469 l 194 469 l 194 46 l 715 46 l 715 0 l 144 0 m 428 1079 q 357 1093 386 1079 q 306 1131 328 1107 q 265 1190 283 1156 q 229 1265 247 1224 l 261 1281 l 297 1218 q 328 1172 314 1190 q 357 1142 342 1154 q 389 1126 372 1131 q 428 1121 406 1121 q 499 1142 471 1121 q 558 1218 526 1164 l 594 1281 l 626 1265 q 590 1190 608 1224 q 550 1131 572 1156 q 499 1093 528 1107 q 428 1079 469 1079 z "},"Ě":{"ha":833,"x_min":144,"x_max":715,"o":"m 144 0 l 144 969 l 715 969 l 715 924 l 194 924 l 194 515 l 697 515 l 697 469 l 194 469 l 194 46 l 715 46 l 715 0 l 144 0 m 399 1083 l 226 1271 l 256 1293 l 428 1119 l 600 1293 l 629 1271 l 457 1083 l 399 1083 z "},"Ê":{"ha":833,"x_min":144,"x_max":715,"o":"m 144 0 l 144 969 l 715 969 l 715 924 l 194 924 l 194 515 l 697 515 l 697 469 l 194 469 l 194 46 l 715 46 l 715 0 l 144 0 m 457 1286 l 629 1097 l 600 1076 l 428 1250 l 256 1076 l 226 1097 l 399 1286 l 457 1286 z "},"Ë":{"ha":833,"x_min":144,"x_max":715,"o":"m 144 0 l 144 969 l 715 969 l 715 924 l 194 924 l 194 515 l 697 515 l 697 469 l 194 469 l 194 46 l 715 46 l 715 0 l 144 0 m 301 1128 q 263 1139 274 1128 q 251 1167 251 1150 l 251 1181 q 263 1208 251 1197 q 301 1219 274 1219 q 339 1208 328 1219 q 350 1181 350 1197 l 350 1167 q 339 1139 350 1150 q 301 1128 328 1128 m 554 1128 q 517 1139 528 1128 q 506 1167 506 1150 l 506 1181 q 517 1208 506 1197 q 554 1219 528 1219 q 593 1208 582 1219 q 604 1181 604 1197 l 604 1167 q 593 1139 604 1150 q 554 1128 582 1128 z "},"Ė":{"ha":833,"x_min":144,"x_max":715,"o":"m 144 0 l 144 969 l 715 969 l 715 924 l 194 924 l 194 515 l 697 515 l 697 469 l 194 469 l 194 46 l 715 46 l 715 0 l 144 0 m 428 1125 q 388 1136 400 1125 q 376 1165 376 1147 l 376 1181 q 388 1210 376 1199 q 428 1221 400 1221 q 467 1210 456 1221 q 479 1181 479 1199 l 479 1165 q 467 1136 479 1147 q 428 1125 456 1125 z "},"Ẹ":{"ha":833,"x_min":144,"x_max":715,"o":"m 144 0 l 144 969 l 715 969 l 715 924 l 194 924 l 194 515 l 697 515 l 697 469 l 194 469 l 194 46 l 715 46 l 715 0 l 144 0 m 426 -201 q 388 -190 399 -201 q 376 -162 376 -179 l 376 -149 q 388 -121 376 -132 q 426 -110 399 -110 q 465 -121 454 -110 q 476 -149 476 -132 l 476 -162 q 465 -190 476 -179 q 426 -201 454 -201 z "},"È":{"ha":833,"x_min":144,"x_max":715,"o":"m 144 0 l 144 969 l 715 969 l 715 924 l 194 924 l 194 515 l 697 515 l 697 469 l 194 469 l 194 46 l 715 46 l 715 0 l 144 0 m 286 1275 l 331 1299 l 476 1079 l 443 1061 l 286 1275 z "},"Ẻ":{"ha":833,"x_min":144,"x_max":715,"o":"m 144 0 l 144 969 l 715 969 l 715 924 l 194 924 l 194 515 l 697 515 l 697 469 l 194 469 l 194 46 l 715 46 l 715 0 l 144 0 m 322 1279 l 503 1279 q 539 1269 528 1279 q 550 1242 550 1258 q 540 1209 550 1229 q 501 1147 529 1189 l 442 1057 l 410 1072 l 510 1240 l 322 1240 l 322 1279 z "},"Ē":{"ha":833,"x_min":144,"x_max":715,"o":"m 144 0 l 144 969 l 715 969 l 715 924 l 194 924 l 194 515 l 697 515 l 697 469 l 194 469 l 194 46 l 715 46 l 715 0 l 144 0 m 244 1196 l 611 1196 l 611 1154 l 244 1154 l 244 1196 z "},"Ę":{"ha":833,"x_min":144,"x_max":738,"o":"m 144 969 l 715 969 l 715 924 l 194 924 l 194 515 l 697 515 l 697 469 l 194 469 l 194 46 l 715 46 l 715 0 q 593 -92 633 -53 q 553 -178 553 -131 q 574 -229 553 -214 q 628 -244 596 -244 q 679 -234 660 -244 q 710 -210 699 -224 l 738 -235 q 696 -268 724 -254 q 628 -282 668 -282 q 542 -257 576 -282 q 508 -183 508 -232 q 543 -96 508 -140 q 665 -3 578 -51 l 664 0 l 144 0 l 144 969 z "},"Ẽ":{"ha":833,"x_min":144,"x_max":715,"o":"m 144 0 l 144 969 l 715 969 l 715 924 l 194 924 l 194 515 l 697 515 l 697 469 l 194 469 l 194 46 l 715 46 l 715 0 l 144 0 m 526 1114 q 476 1124 500 1114 q 419 1154 451 1135 q 367 1181 388 1174 q 326 1189 346 1189 q 281 1178 301 1189 q 238 1146 260 1168 l 214 1171 q 266 1215 238 1199 q 329 1231 294 1231 q 380 1220 356 1231 q 436 1190 404 1210 q 489 1163 468 1171 q 529 1156 510 1156 q 575 1166 554 1156 q 618 1199 596 1176 l 642 1174 q 590 1130 618 1146 q 526 1114 561 1114 z "},"Ế":{"ha":833,"x_min":144,"x_max":756,"o":"m 144 0 l 144 969 l 715 969 l 715 924 l 194 924 l 194 515 l 697 515 l 697 469 l 194 469 l 194 46 l 715 46 l 715 0 l 144 0 m 599 1219 l 567 1238 l 713 1457 l 756 1433 l 599 1219 m 457 1274 l 629 1086 l 600 1064 l 428 1238 l 256 1064 l 226 1086 l 399 1274 l 457 1274 z "},"Ệ":{"ha":833,"x_min":144,"x_max":715,"o":"m 144 0 l 144 969 l 715 969 l 715 924 l 194 924 l 194 515 l 697 515 l 697 469 l 194 469 l 194 46 l 715 46 l 715 0 l 144 0 m 457 1286 l 629 1097 l 600 1076 l 428 1250 l 256 1076 l 226 1097 l 399 1286 l 457 1286 m 426 -201 q 388 -190 399 -201 q 376 -162 376 -179 l 376 -149 q 388 -121 376 -132 q 426 -110 399 -110 q 465 -121 454 -110 q 476 -149 476 -132 l 476 -162 q 465 -190 476 -179 q 426 -201 454 -201 z "},"Ề":{"ha":833,"x_min":100,"x_max":715,"o":"m 144 0 l 144 969 l 715 969 l 715 924 l 194 924 l 194 515 l 697 515 l 697 469 l 194 469 l 194 46 l 715 46 l 715 0 l 144 0 m 100 1433 l 143 1457 l 289 1238 l 257 1219 l 100 1433 m 457 1274 l 629 1086 l 600 1064 l 428 1238 l 256 1064 l 226 1086 l 399 1274 l 457 1274 z "},"Ể":{"ha":833,"x_min":144,"x_max":715,"o":"m 144 0 l 144 969 l 715 969 l 715 924 l 194 924 l 194 515 l 697 515 l 697 469 l 194 469 l 194 46 l 715 46 l 715 0 l 144 0 m 486 1439 l 668 1439 q 703 1428 692 1439 q 715 1401 715 1418 q 705 1367 715 1388 q 667 1306 694 1347 l 606 1215 l 574 1232 l 675 1400 l 486 1400 l 486 1439 m 457 1274 l 629 1086 l 600 1064 l 428 1238 l 256 1064 l 226 1086 l 399 1274 l 457 1274 z "},"Ễ":{"ha":833,"x_min":144,"x_max":715,"o":"m 144 0 l 144 969 l 715 969 l 715 924 l 194 924 l 194 515 l 697 515 l 697 469 l 194 469 l 194 46 l 715 46 l 715 0 l 144 0 m 329 1438 q 381 1428 357 1438 q 436 1397 404 1418 q 489 1369 468 1378 q 529 1361 510 1361 q 575 1372 554 1361 q 618 1406 596 1383 l 640 1381 q 526 1322 593 1322 q 475 1332 499 1322 q 419 1363 451 1342 q 367 1390 388 1382 q 326 1399 346 1399 q 281 1388 301 1399 q 238 1354 260 1376 l 215 1379 q 329 1438 263 1438 m 457 1271 l 629 1086 l 600 1064 l 428 1235 l 256 1064 l 226 1086 l 399 1271 l 457 1271 z "},"Ə":{"ha":833,"x_min":93,"x_max":740,"o":"m 417 -17 q 178 101 261 -17 q 93 475 94 219 l 93 482 l 685 482 l 685 536 q 617 838 685 735 q 413 940 550 940 q 256 890 321 940 q 160 728 192 840 l 114 744 q 226 926 149 867 q 415 986 303 986 q 658 865 575 986 q 740 485 740 744 q 658 104 740 225 q 417 -17 575 -17 m 417 29 q 618 131 551 29 q 685 431 685 233 l 685 439 l 147 439 l 147 431 q 215 132 147 235 q 417 29 282 29 z "},"Ğ":{"ha":833,"x_min":97,"x_max":715,"o":"m 667 140 l 661 140 q 628 78 647 107 q 582 29 610 50 q 516 -4 554 8 q 424 -17 478 -17 q 182 103 267 -17 q 97 483 97 222 q 183 866 97 746 q 432 986 269 986 q 606 930 538 986 q 706 786 674 874 l 661 768 q 577 894 633 847 q 433 940 521 940 q 224 838 294 940 q 153 538 153 736 l 153 433 q 222 131 153 235 q 431 28 292 28 q 530 46 486 28 q 604 97 574 64 q 651 176 635 131 q 667 275 667 221 l 667 404 l 429 404 l 429 447 l 715 447 l 715 0 l 667 0 l 667 140 m 432 1079 q 361 1093 390 1079 q 310 1131 332 1107 q 269 1190 288 1156 q 233 1265 251 1224 l 265 1281 l 301 1218 q 332 1172 318 1190 q 361 1142 346 1154 q 393 1126 376 1131 q 432 1121 410 1121 q 503 1142 475 1121 q 563 1218 531 1164 l 599 1281 l 631 1265 q 594 1190 613 1224 q 554 1131 576 1156 q 503 1093 532 1107 q 432 1079 474 1079 z "},"Ĝ":{"ha":833,"x_min":97,"x_max":715,"o":"m 667 140 l 661 140 q 628 78 647 107 q 582 29 610 50 q 516 -4 554 8 q 424 -17 478 -17 q 182 103 267 -17 q 97 483 97 222 q 183 866 97 746 q 432 986 269 986 q 606 930 538 986 q 706 786 674 874 l 661 768 q 577 894 633 847 q 433 940 521 940 q 224 838 294 940 q 153 538 153 736 l 153 433 q 222 131 153 235 q 431 28 292 28 q 530 46 486 28 q 604 97 574 64 q 651 176 635 131 q 667 275 667 221 l 667 404 l 429 404 l 429 447 l 715 447 l 715 0 l 667 0 l 667 140 m 461 1286 l 633 1097 l 604 1076 l 432 1250 l 260 1076 l 231 1097 l 403 1286 l 461 1286 z "},"Ģ":{"ha":833,"x_min":97,"x_max":715,"o":"m 667 140 l 661 140 q 628 78 647 107 q 582 29 610 50 q 516 -4 554 8 q 424 -17 478 -17 q 182 103 267 -17 q 97 483 97 222 q 183 866 97 746 q 432 986 269 986 q 606 930 538 986 q 706 786 674 874 l 661 768 q 577 894 633 847 q 433 940 521 940 q 224 838 294 940 q 153 538 153 736 l 153 433 q 222 131 153 235 q 431 28 292 28 q 530 46 486 28 q 604 97 574 64 q 651 176 635 131 q 667 275 667 221 l 667 404 l 429 404 l 429 447 l 715 447 l 715 0 l 667 0 l 667 140 m 392 -93 l 454 -93 l 375 -349 l 336 -349 l 392 -93 z "},"Ġ":{"ha":833,"x_min":97,"x_max":715,"o":"m 667 140 l 661 140 q 628 78 647 107 q 582 29 610 50 q 516 -4 554 8 q 424 -17 478 -17 q 182 103 267 -17 q 97 483 97 222 q 183 866 97 746 q 432 986 269 986 q 606 930 538 986 q 706 786 674 874 l 661 768 q 577 894 633 847 q 433 940 521 940 q 224 838 294 940 q 153 538 153 736 l 153 433 q 222 131 153 235 q 431 28 292 28 q 530 46 486 28 q 604 97 574 64 q 651 176 635 131 q 667 275 667 221 l 667 404 l 429 404 l 429 447 l 715 447 l 715 0 l 667 0 l 667 140 m 432 1125 q 392 1136 404 1125 q 381 1165 381 1147 l 381 1181 q 392 1210 381 1199 q 432 1221 404 1221 q 472 1210 460 1221 q 483 1181 483 1199 l 483 1165 q 472 1136 483 1147 q 432 1125 460 1125 z "},"Ħ":{"ha":833,"x_min":18,"x_max":815,"o":"m 653 469 l 181 469 l 181 0 l 131 0 l 131 739 l 18 739 l 18 781 l 131 781 l 131 969 l 181 969 l 181 781 l 653 781 l 653 969 l 703 969 l 703 781 l 815 781 l 815 739 l 703 739 l 703 0 l 653 0 l 653 469 m 653 514 l 653 739 l 181 739 l 181 514 l 653 514 z "},"Ĥ":{"ha":833,"x_min":131,"x_max":703,"o":"m 653 469 l 181 469 l 181 0 l 131 0 l 131 969 l 181 969 l 181 514 l 653 514 l 653 969 l 703 969 l 703 0 l 653 0 l 653 469 m 446 1286 l 618 1097 l 589 1076 l 417 1250 l 244 1076 l 215 1097 l 388 1286 l 446 1286 z "},"Í":{"ha":833,"x_min":125,"x_max":708,"o":"m 125 0 l 125 42 l 392 42 l 392 928 l 125 928 l 125 969 l 708 969 l 708 928 l 442 928 l 442 42 l 708 42 l 708 0 l 125 0 m 400 1061 l 367 1079 l 513 1299 l 557 1275 l 400 1061 z "},"Ĭ":{"ha":833,"x_min":125,"x_max":708,"o":"m 125 0 l 125 42 l 392 42 l 392 928 l 125 928 l 125 969 l 708 969 l 708 928 l 442 928 l 442 42 l 708 42 l 708 0 l 125 0 m 417 1079 q 346 1093 375 1079 q 294 1131 317 1107 q 254 1190 272 1156 q 218 1265 236 1224 l 250 1281 l 286 1218 q 317 1172 303 1190 q 346 1142 331 1154 q 378 1126 361 1131 q 417 1121 394 1121 q 488 1142 460 1121 q 547 1218 515 1164 l 583 1281 l 615 1265 q 579 1190 597 1224 q 539 1131 561 1156 q 488 1093 517 1107 q 417 1079 458 1079 z "},"Î":{"ha":833,"x_min":125,"x_max":708,"o":"m 125 0 l 125 42 l 392 42 l 392 928 l 125 928 l 125 969 l 708 969 l 708 928 l 442 928 l 442 42 l 708 42 l 708 0 l 125 0 m 446 1286 l 618 1097 l 589 1076 l 417 1250 l 244 1076 l 215 1097 l 388 1286 l 446 1286 z "},"Ï":{"ha":833,"x_min":125,"x_max":708,"o":"m 125 0 l 125 42 l 392 42 l 392 928 l 125 928 l 125 969 l 708 969 l 708 928 l 442 928 l 442 42 l 708 42 l 708 0 l 125 0 m 290 1128 q 251 1139 263 1128 q 240 1167 240 1150 l 240 1181 q 251 1208 240 1197 q 290 1219 263 1219 q 328 1208 317 1219 q 339 1181 339 1197 l 339 1167 q 328 1139 339 1150 q 290 1128 317 1128 m 543 1128 q 506 1139 517 1128 q 494 1167 494 1150 l 494 1181 q 506 1208 494 1197 q 543 1219 517 1219 q 582 1208 571 1219 q 593 1181 593 1197 l 593 1167 q 582 1139 593 1150 q 543 1128 571 1128 z "},"İ":{"ha":833,"x_min":125,"x_max":708,"o":"m 125 0 l 125 42 l 392 42 l 392 928 l 125 928 l 125 969 l 708 969 l 708 928 l 442 928 l 442 42 l 708 42 l 708 0 l 125 0 m 417 1125 q 377 1136 389 1125 q 365 1165 365 1147 l 365 1181 q 377 1210 365 1199 q 417 1221 389 1221 q 456 1210 444 1221 q 468 1181 468 1199 l 468 1165 q 456 1136 468 1147 q 417 1125 444 1125 z "},"Ị":{"ha":833,"x_min":125,"x_max":708,"o":"m 125 0 l 125 42 l 392 42 l 392 928 l 125 928 l 125 969 l 708 969 l 708 928 l 442 928 l 442 42 l 708 42 l 708 0 l 125 0 m 417 -201 q 378 -190 389 -201 q 367 -162 367 -179 l 367 -149 q 378 -121 367 -132 q 417 -110 389 -110 q 456 -121 444 -110 q 467 -149 467 -132 l 467 -162 q 456 -190 467 -179 q 417 -201 444 -201 z "},"Ì":{"ha":833,"x_min":125,"x_max":708,"o":"m 125 0 l 125 42 l 392 42 l 392 928 l 125 928 l 125 969 l 708 969 l 708 928 l 442 928 l 442 42 l 708 42 l 708 0 l 125 0 m 275 1275 l 319 1299 l 465 1079 l 432 1061 l 275 1275 z "},"Ỉ":{"ha":833,"x_min":125,"x_max":708,"o":"m 125 0 l 125 42 l 392 42 l 392 928 l 125 928 l 125 969 l 708 969 l 708 928 l 442 928 l 442 42 l 708 42 l 708 0 l 125 0 m 311 1279 l 492 1279 q 528 1269 517 1279 q 539 1242 539 1258 q 528 1209 539 1229 q 490 1147 518 1189 l 431 1057 l 399 1072 l 499 1240 l 311 1240 l 311 1279 z "},"Ī":{"ha":833,"x_min":125,"x_max":708,"o":"m 125 0 l 125 42 l 392 42 l 392 928 l 125 928 l 125 969 l 708 969 l 708 928 l 442 928 l 442 42 l 708 42 l 708 0 l 125 0 m 233 1196 l 600 1196 l 600 1154 l 233 1154 l 233 1196 z "},"Į":{"ha":833,"x_min":125,"x_max":731,"o":"m 125 42 l 392 42 l 392 928 l 125 928 l 125 969 l 708 969 l 708 928 l 442 928 l 442 42 l 708 42 l 708 0 q 585 -92 625 -53 q 544 -178 544 -131 q 567 -229 544 -214 q 621 -244 589 -244 q 672 -234 653 -244 q 701 -210 690 -224 l 731 -235 q 689 -268 717 -254 q 619 -282 661 -282 q 534 -257 568 -282 q 500 -183 500 -232 q 535 -96 500 -140 q 658 -3 569 -51 l 657 0 l 125 0 l 125 42 z "},"Ĩ":{"ha":833,"x_min":125,"x_max":708,"o":"m 125 0 l 125 42 l 392 42 l 392 928 l 125 928 l 125 969 l 708 969 l 708 928 l 442 928 l 442 42 l 708 42 l 708 0 l 125 0 m 515 1114 q 465 1124 489 1114 q 408 1154 440 1135 q 356 1181 376 1174 q 315 1189 335 1189 q 269 1178 290 1189 q 226 1146 249 1168 l 203 1171 q 255 1215 226 1199 q 318 1231 283 1231 q 369 1220 344 1231 q 425 1190 393 1210 q 478 1163 457 1171 q 518 1156 499 1156 q 564 1166 543 1156 q 607 1199 585 1176 l 631 1174 q 578 1130 607 1146 q 515 1114 550 1114 z "},"Ĳ":{"ha":833,"x_min":153,"x_max":681,"o":"m 681 969 l 681 263 q 609 56 681 129 q 414 -17 538 -17 q 242 35 310 -17 q 154 182 174 88 l 204 194 q 272 76 222 122 q 415 29 322 29 q 575 90 519 29 q 631 271 631 151 l 631 969 l 681 969 m 153 969 l 203 969 l 203 383 l 153 383 l 153 969 z "},"Ĵ":{"ha":833,"x_min":126,"x_max":647,"o":"m 647 969 l 647 260 q 575 56 647 128 q 383 -17 503 -17 q 213 33 281 -17 q 126 174 146 83 l 175 185 q 242 72 192 114 q 385 29 293 29 q 541 90 485 29 q 597 267 597 150 l 597 924 l 214 924 l 214 969 l 647 969 m 457 1286 l 629 1097 l 600 1076 l 428 1250 l 256 1076 l 226 1097 l 399 1286 l 457 1286 z "},"Ķ":{"ha":833,"x_min":143,"x_max":771,"o":"m 368 522 l 193 326 l 193 0 l 143 0 l 143 969 l 193 969 l 193 394 l 196 394 l 372 594 l 704 969 l 765 969 l 404 560 l 771 0 l 711 0 l 368 522 m 419 -93 l 482 -93 l 403 -349 l 364 -349 l 419 -93 z "},"Ĺ":{"ha":833,"x_min":169,"x_max":736,"o":"m 194 0 l 194 969 l 244 969 l 244 46 l 736 46 l 736 0 l 194 0 m 203 1061 l 169 1079 l 315 1299 l 360 1275 l 203 1061 z "},"Ľ":{"ha":833,"x_min":194,"x_max":736,"o":"m 194 0 l 194 969 l 244 969 l 244 46 l 736 46 l 736 0 l 194 0 m 422 779 l 385 779 l 404 1028 l 464 1028 l 422 779 z "},"Ļ":{"ha":833,"x_min":194,"x_max":736,"o":"m 194 0 l 194 969 l 244 969 l 244 46 l 736 46 l 736 0 l 194 0 m 436 -93 l 499 -93 l 419 -349 l 381 -349 l 436 -93 z "},"Ŀ":{"ha":833,"x_min":194,"x_max":736,"o":"m 194 0 l 194 969 l 244 969 l 244 46 l 736 46 l 736 0 l 194 0 m 593 404 q 553 415 565 404 q 542 444 542 426 l 542 460 q 553 489 542 478 q 593 500 565 500 q 633 489 621 500 q 644 460 644 478 l 644 444 q 633 415 644 426 q 593 404 621 404 z "},"Ł":{"ha":833,"x_min":71,"x_max":736,"o":"m 736 0 l 194 0 l 194 408 l 71 369 l 71 413 l 194 451 l 194 969 l 244 969 l 244 465 l 561 567 l 561 524 l 244 422 l 244 46 l 736 46 l 736 0 z "},"Ń":{"ha":833,"x_min":131,"x_max":703,"o":"m 183 903 l 178 903 l 178 0 l 131 0 l 131 969 l 203 969 l 650 69 l 656 69 l 656 969 l 703 969 l 703 0 l 631 0 l 183 903 m 400 1061 l 367 1079 l 513 1299 l 557 1275 l 400 1061 z "},"Ň":{"ha":833,"x_min":131,"x_max":703,"o":"m 183 903 l 178 903 l 178 0 l 131 0 l 131 969 l 203 969 l 650 69 l 656 69 l 656 969 l 703 969 l 703 0 l 631 0 l 183 903 m 388 1083 l 215 1271 l 244 1293 l 417 1119 l 589 1293 l 618 1271 l 446 1083 l 388 1083 z "},"Ņ":{"ha":833,"x_min":131,"x_max":703,"o":"m 183 903 l 178 903 l 178 0 l 131 0 l 131 969 l 203 969 l 650 69 l 656 69 l 656 969 l 703 969 l 703 0 l 631 0 l 183 903 m 388 -93 l 450 -93 l 371 -349 l 332 -349 l 388 -93 z "},"Ñ":{"ha":833,"x_min":131,"x_max":703,"o":"m 183 903 l 178 903 l 178 0 l 131 0 l 131 969 l 203 969 l 650 69 l 656 69 l 656 969 l 703 969 l 703 0 l 631 0 l 183 903 m 515 1114 q 465 1124 489 1114 q 408 1154 440 1135 q 356 1181 376 1174 q 315 1189 335 1189 q 269 1178 290 1189 q 226 1146 249 1168 l 203 1171 q 255 1215 226 1199 q 318 1231 283 1231 q 369 1220 344 1231 q 425 1190 393 1210 q 478 1163 457 1171 q 518 1156 499 1156 q 564 1166 543 1156 q 607 1199 585 1176 l 631 1174 q 578 1130 607 1146 q 515 1114 550 1114 z "},"Ŋ":{"ha":833,"x_min":131,"x_max":703,"o":"m 131 0 l 131 969 l 203 969 l 650 69 l 656 69 l 656 969 l 703 969 l 703 -208 q 635 -278 703 -278 l 243 -278 l 243 -236 l 656 -236 l 656 0 l 631 0 l 183 903 l 178 903 l 178 0 l 131 0 z "},"Ó":{"ha":833,"x_min":93,"x_max":740,"o":"m 417 -17 q 176 104 258 -17 q 93 485 93 225 q 176 865 93 744 q 417 986 258 986 q 658 865 575 986 q 740 485 740 744 q 658 104 740 225 q 417 -17 575 -17 m 417 29 q 618 131 551 29 q 685 432 685 233 l 685 538 q 618 838 685 736 q 417 940 551 940 q 215 838 282 940 q 149 538 149 736 l 149 432 q 215 131 149 233 q 417 29 282 29 m 400 1061 l 367 1079 l 513 1299 l 557 1275 l 400 1061 z "},"Ŏ":{"ha":833,"x_min":93,"x_max":740,"o":"m 417 -17 q 176 104 258 -17 q 93 485 93 225 q 176 865 93 744 q 417 986 258 986 q 658 865 575 986 q 740 485 740 744 q 658 104 740 225 q 417 -17 575 -17 m 417 29 q 618 131 551 29 q 685 432 685 233 l 685 538 q 618 838 685 736 q 417 940 551 940 q 215 838 282 940 q 149 538 149 736 l 149 432 q 215 131 149 233 q 417 29 282 29 m 417 1079 q 346 1093 375 1079 q 294 1131 317 1107 q 254 1190 272 1156 q 218 1265 236 1224 l 250 1281 l 286 1218 q 317 1172 303 1190 q 346 1142 331 1154 q 378 1126 361 1131 q 417 1121 394 1121 q 488 1142 460 1121 q 547 1218 515 1164 l 583 1281 l 615 1265 q 579 1190 597 1224 q 539 1131 561 1156 q 488 1093 517 1107 q 417 1079 458 1079 z "},"Ô":{"ha":833,"x_min":93,"x_max":740,"o":"m 417 -17 q 176 104 258 -17 q 93 485 93 225 q 176 865 93 744 q 417 986 258 986 q 658 865 575 986 q 740 485 740 744 q 658 104 740 225 q 417 -17 575 -17 m 417 29 q 618 131 551 29 q 685 432 685 233 l 685 538 q 618 838 685 736 q 417 940 551 940 q 215 838 282 940 q 149 538 149 736 l 149 432 q 215 131 149 233 q 417 29 282 29 m 446 1286 l 618 1097 l 589 1076 l 417 1250 l 244 1076 l 215 1097 l 388 1286 l 446 1286 z "},"Ö":{"ha":833,"x_min":93,"x_max":740,"o":"m 417 -17 q 176 104 258 -17 q 93 485 93 225 q 176 865 93 744 q 417 986 258 986 q 658 865 575 986 q 740 485 740 744 q 658 104 740 225 q 417 -17 575 -17 m 417 29 q 618 131 551 29 q 685 432 685 233 l 685 538 q 618 838 685 736 q 417 940 551 940 q 215 838 282 940 q 149 538 149 736 l 149 432 q 215 131 149 233 q 417 29 282 29 m 290 1128 q 251 1139 263 1128 q 240 1167 240 1150 l 240 1181 q 251 1208 240 1197 q 290 1219 263 1219 q 328 1208 317 1219 q 339 1181 339 1197 l 339 1167 q 328 1139 339 1150 q 290 1128 317 1128 m 543 1128 q 506 1139 517 1128 q 494 1167 494 1150 l 494 1181 q 506 1208 494 1197 q 543 1219 517 1219 q 582 1208 571 1219 q 593 1181 593 1197 l 593 1167 q 582 1139 593 1150 q 543 1128 571 1128 z "},"Ọ":{"ha":833,"x_min":93,"x_max":740,"o":"m 417 -17 q 176 104 258 -17 q 93 485 93 225 q 176 865 93 744 q 417 986 258 986 q 658 865 575 986 q 740 485 740 744 q 658 104 740 225 q 417 -17 575 -17 m 417 29 q 618 131 551 29 q 685 432 685 233 l 685 538 q 618 838 685 736 q 417 940 551 940 q 215 838 282 940 q 149 538 149 736 l 149 432 q 215 131 149 233 q 417 29 282 29 m 417 -201 q 378 -190 389 -201 q 367 -162 367 -179 l 367 -149 q 378 -121 367 -132 q 417 -110 389 -110 q 456 -121 444 -110 q 467 -149 467 -132 l 467 -162 q 456 -190 467 -179 q 417 -201 444 -201 z "},"Ò":{"ha":833,"x_min":93,"x_max":740,"o":"m 417 -17 q 176 104 258 -17 q 93 485 93 225 q 176 865 93 744 q 417 986 258 986 q 658 865 575 986 q 740 485 740 744 q 658 104 740 225 q 417 -17 575 -17 m 417 29 q 618 131 551 29 q 685 432 685 233 l 685 538 q 618 838 685 736 q 417 940 551 940 q 215 838 282 940 q 149 538 149 736 l 149 432 q 215 131 149 233 q 417 29 282 29 m 275 1275 l 319 1299 l 465 1079 l 432 1061 l 275 1275 z "},"Ỏ":{"ha":833,"x_min":93,"x_max":740,"o":"m 417 -17 q 176 104 258 -17 q 93 485 93 225 q 176 865 93 744 q 417 986 258 986 q 658 865 575 986 q 740 485 740 744 q 658 104 740 225 q 417 -17 575 -17 m 417 29 q 618 131 551 29 q 685 432 685 233 l 685 538 q 618 838 685 736 q 417 940 551 940 q 215 838 282 940 q 149 538 149 736 l 149 432 q 215 131 149 233 q 417 29 282 29 m 311 1279 l 492 1279 q 528 1269 517 1279 q 539 1242 539 1258 q 528 1209 539 1229 q 490 1147 518 1189 l 431 1057 l 399 1072 l 499 1240 l 311 1240 l 311 1279 z "},"Ő":{"ha":833,"x_min":93,"x_max":740,"o":"m 417 -17 q 176 104 258 -17 q 93 485 93 225 q 176 865 93 744 q 417 986 258 986 q 658 865 575 986 q 740 485 740 744 q 658 104 740 225 q 417 -17 575 -17 m 417 29 q 618 131 551 29 q 685 432 685 233 l 685 538 q 618 838 685 736 q 417 940 551 940 q 215 838 282 940 q 149 538 149 736 l 149 432 q 215 131 149 233 q 417 29 282 29 m 308 1061 l 276 1079 l 422 1299 l 465 1275 l 308 1061 m 531 1061 l 499 1079 l 644 1299 l 688 1275 l 531 1061 z "},"Ō":{"ha":833,"x_min":93,"x_max":740,"o":"m 417 -17 q 176 104 258 -17 q 93 485 93 225 q 176 865 93 744 q 417 986 258 986 q 658 865 575 986 q 740 485 740 744 q 658 104 740 225 q 417 -17 575 -17 m 417 29 q 618 131 551 29 q 685 432 685 233 l 685 538 q 618 838 685 736 q 417 940 551 940 q 215 838 282 940 q 149 538 149 736 l 149 432 q 215 131 149 233 q 417 29 282 29 m 233 1196 l 600 1196 l 600 1154 l 233 1154 l 233 1196 z "},"Ø":{"ha":833,"x_min":93,"x_max":740,"o":"m 417 -17 q 199 75 276 -17 l 136 -32 l 99 -11 l 171 113 q 93 485 93 236 q 176 865 93 744 q 417 986 258 986 q 635 894 557 986 l 697 1001 l 735 981 l 663 857 q 740 485 740 733 q 658 104 740 225 q 417 -17 575 -17 m 149 432 q 201 160 149 257 l 608 850 q 417 940 542 940 q 215 838 282 940 q 149 538 149 736 l 149 432 m 417 29 q 618 131 551 29 q 685 432 685 233 l 685 538 q 632 810 685 713 l 225 119 q 417 29 292 29 z "},"Ǿ":{"ha":833,"x_min":93,"x_max":740,"o":"m 417 -17 q 199 75 276 -17 l 136 -32 l 99 -11 l 171 113 q 93 485 93 236 q 176 865 93 744 q 417 986 258 986 q 635 894 557 986 l 697 1001 l 735 981 l 663 857 q 740 485 740 733 q 658 104 740 225 q 417 -17 575 -17 m 149 432 q 201 160 149 257 l 608 850 q 417 940 542 940 q 215 838 282 940 q 149 538 149 736 l 149 432 m 417 29 q 618 131 551 29 q 685 432 685 233 l 685 538 q 632 810 685 713 l 225 119 q 417 29 292 29 m 400 1061 l 367 1079 l 513 1299 l 557 1275 l 400 1061 z "},"Õ":{"ha":833,"x_min":93,"x_max":740,"o":"m 417 -17 q 176 104 258 -17 q 93 485 93 225 q 176 865 93 744 q 417 986 258 986 q 658 865 575 986 q 740 485 740 744 q 658 104 740 225 q 417 -17 575 -17 m 417 29 q 618 131 551 29 q 685 432 685 233 l 685 538 q 618 838 685 736 q 417 940 551 940 q 215 838 282 940 q 149 538 149 736 l 149 432 q 215 131 149 233 q 417 29 282 29 m 515 1114 q 465 1124 489 1114 q 408 1154 440 1135 q 356 1181 376 1174 q 315 1189 335 1189 q 269 1178 290 1189 q 226 1146 249 1168 l 203 1171 q 255 1215 226 1199 q 318 1231 283 1231 q 369 1220 344 1231 q 425 1190 393 1210 q 478 1163 457 1171 q 518 1156 499 1156 q 564 1166 543 1156 q 607 1199 585 1176 l 631 1174 q 578 1130 607 1146 q 515 1114 550 1114 z "},"Ơ":{"ha":833,"x_min":93,"x_max":740,"o":"m 719 985 q 708 947 719 961 q 668 933 696 933 l 589 933 q 702 772 664 882 q 740 485 740 663 q 658 104 740 225 q 417 -17 575 -17 q 176 104 258 -17 q 93 485 93 225 q 176 865 93 744 q 417 986 258 986 q 525 969 475 986 l 675 969 l 675 1124 l 719 1124 l 719 985 m 417 29 q 618 131 551 29 q 685 432 685 233 l 685 538 q 618 838 685 736 q 417 940 551 940 q 215 838 282 940 q 149 538 149 736 l 149 432 q 215 131 149 233 q 417 29 282 29 z "},"Ớ":{"ha":833,"x_min":93,"x_max":740,"o":"m 719 985 q 708 947 719 961 q 668 933 696 933 l 589 933 q 702 772 664 882 q 740 485 740 663 q 658 104 740 225 q 417 -17 575 -17 q 176 104 258 -17 q 93 485 93 225 q 176 865 93 744 q 417 986 258 986 q 525 969 475 986 l 675 969 l 675 1124 l 719 1124 l 719 985 m 417 29 q 618 131 551 29 q 685 432 685 233 l 685 538 q 618 838 685 736 q 417 940 551 940 q 215 838 282 940 q 149 538 149 736 l 149 432 q 215 131 149 233 q 417 29 282 29 m 400 1061 l 367 1079 l 513 1299 l 557 1275 l 400 1061 z "},"Ợ":{"ha":833,"x_min":93,"x_max":740,"o":"m 719 985 q 708 947 719 961 q 668 933 696 933 l 589 933 q 702 772 664 882 q 740 485 740 663 q 658 104 740 225 q 417 -17 575 -17 q 176 104 258 -17 q 93 485 93 225 q 176 865 93 744 q 417 986 258 986 q 525 969 475 986 l 675 969 l 675 1124 l 719 1124 l 719 985 m 417 29 q 618 131 551 29 q 685 432 685 233 l 685 538 q 618 838 685 736 q 417 940 551 940 q 215 838 282 940 q 149 538 149 736 l 149 432 q 215 131 149 233 q 417 29 282 29 m 417 -201 q 378 -190 389 -201 q 367 -162 367 -179 l 367 -149 q 378 -121 367 -132 q 417 -110 389 -110 q 456 -121 444 -110 q 467 -149 467 -132 l 467 -162 q 456 -190 467 -179 q 417 -201 444 -201 z "},"Ờ":{"ha":833,"x_min":93,"x_max":740,"o":"m 719 985 q 708 947 719 961 q 668 933 696 933 l 589 933 q 702 772 664 882 q 740 485 740 663 q 658 104 740 225 q 417 -17 575 -17 q 176 104 258 -17 q 93 485 93 225 q 176 865 93 744 q 417 986 258 986 q 525 969 475 986 l 675 969 l 675 1124 l 719 1124 l 719 985 m 417 29 q 618 131 551 29 q 685 432 685 233 l 685 538 q 618 838 685 736 q 417 940 551 940 q 215 838 282 940 q 149 538 149 736 l 149 432 q 215 131 149 233 q 417 29 282 29 m 275 1275 l 319 1299 l 465 1079 l 432 1061 l 275 1275 z "},"Ở":{"ha":833,"x_min":93,"x_max":740,"o":"m 719 985 q 708 947 719 961 q 668 933 696 933 l 589 933 q 702 772 664 882 q 740 485 740 663 q 658 104 740 225 q 417 -17 575 -17 q 176 104 258 -17 q 93 485 93 225 q 176 865 93 744 q 417 986 258 986 q 525 969 475 986 l 675 969 l 675 1124 l 719 1124 l 719 985 m 417 29 q 618 131 551 29 q 685 432 685 233 l 685 538 q 618 838 685 736 q 417 940 551 940 q 215 838 282 940 q 149 538 149 736 l 149 432 q 215 131 149 233 q 417 29 282 29 m 311 1279 l 492 1279 q 528 1269 517 1279 q 539 1242 539 1258 q 528 1209 539 1229 q 490 1147 518 1189 l 431 1057 l 399 1072 l 499 1240 l 311 1240 l 311 1279 z "},"Ỡ":{"ha":833,"x_min":93,"x_max":740,"o":"m 719 985 q 708 947 719 961 q 668 933 696 933 l 589 933 q 702 772 664 882 q 740 485 740 663 q 658 104 740 225 q 417 -17 575 -17 q 176 104 258 -17 q 93 485 93 225 q 176 865 93 744 q 417 986 258 986 q 525 969 475 986 l 675 969 l 675 1124 l 719 1124 l 719 985 m 417 29 q 618 131 551 29 q 685 432 685 233 l 685 538 q 618 838 685 736 q 417 940 551 940 q 215 838 282 940 q 149 538 149 736 l 149 432 q 215 131 149 233 q 417 29 282 29 m 513 1115 q 463 1125 486 1115 q 408 1154 440 1135 q 359 1180 379 1172 q 319 1188 339 1188 q 232 1144 274 1188 l 208 1171 q 321 1229 256 1229 q 370 1219 347 1229 q 425 1190 393 1210 q 474 1165 454 1172 q 514 1157 494 1157 q 601 1200 560 1157 l 625 1174 q 513 1115 578 1115 z "},"Ố":{"ha":833,"x_min":93,"x_max":744,"o":"m 417 -17 q 176 104 258 -17 q 93 485 93 225 q 176 865 93 744 q 417 986 258 986 q 658 865 575 986 q 740 485 740 744 q 658 104 740 225 q 417 -17 575 -17 m 417 29 q 618 131 551 29 q 685 432 685 233 l 685 538 q 618 838 685 736 q 417 940 551 940 q 215 838 282 940 q 149 538 149 736 l 149 432 q 215 131 149 233 q 417 29 282 29 m 588 1219 l 556 1238 l 701 1457 l 744 1433 l 588 1219 m 446 1274 l 618 1086 l 589 1064 l 417 1238 l 244 1064 l 215 1086 l 388 1274 l 446 1274 z "},"Ộ":{"ha":833,"x_min":93,"x_max":740,"o":"m 417 -17 q 176 104 258 -17 q 93 485 93 225 q 176 865 93 744 q 417 986 258 986 q 658 865 575 986 q 740 485 740 744 q 658 104 740 225 q 417 -17 575 -17 m 417 29 q 618 131 551 29 q 685 432 685 233 l 685 538 q 618 838 685 736 q 417 940 551 940 q 215 838 282 940 q 149 538 149 736 l 149 432 q 215 131 149 233 q 417 29 282 29 m 446 1286 l 618 1097 l 589 1076 l 417 1250 l 244 1076 l 215 1097 l 388 1286 l 446 1286 m 417 -201 q 378 -190 389 -201 q 367 -162 367 -179 l 367 -149 q 378 -121 367 -132 q 417 -110 389 -110 q 456 -121 444 -110 q 467 -149 467 -132 l 467 -162 q 456 -190 467 -179 q 417 -201 444 -201 z "},"Ồ":{"ha":833,"x_min":89,"x_max":740,"o":"m 417 -17 q 176 104 258 -17 q 93 485 93 225 q 176 865 93 744 q 417 986 258 986 q 658 865 575 986 q 740 485 740 744 q 658 104 740 225 q 417 -17 575 -17 m 417 29 q 618 131 551 29 q 685 432 685 233 l 685 538 q 618 838 685 736 q 417 940 551 940 q 215 838 282 940 q 149 538 149 736 l 149 432 q 215 131 149 233 q 417 29 282 29 m 89 1433 l 132 1457 l 278 1238 l 246 1219 l 89 1433 m 446 1274 l 618 1086 l 589 1064 l 417 1238 l 244 1064 l 215 1086 l 388 1274 l 446 1274 z "},"Ổ":{"ha":833,"x_min":93,"x_max":740,"o":"m 417 -17 q 176 104 258 -17 q 93 485 93 225 q 176 865 93 744 q 417 986 258 986 q 658 865 575 986 q 740 485 740 744 q 658 104 740 225 q 417 -17 575 -17 m 417 29 q 618 131 551 29 q 685 432 685 233 l 685 538 q 618 838 685 736 q 417 940 551 940 q 215 838 282 940 q 149 538 149 736 l 149 432 q 215 131 149 233 q 417 29 282 29 m 475 1439 l 657 1439 q 692 1428 681 1439 q 704 1401 704 1418 q 694 1367 704 1388 q 656 1306 683 1347 l 594 1215 l 563 1232 l 664 1400 l 475 1400 l 475 1439 m 446 1274 l 618 1086 l 589 1064 l 417 1238 l 244 1064 l 215 1086 l 388 1274 l 446 1274 z "},"Ỗ":{"ha":833,"x_min":93,"x_max":740,"o":"m 417 -17 q 176 104 258 -17 q 93 485 93 225 q 176 865 93 744 q 417 986 258 986 q 658 865 575 986 q 740 485 740 744 q 658 104 740 225 q 417 -17 575 -17 m 417 29 q 618 131 551 29 q 685 432 685 233 l 685 538 q 618 838 685 736 q 417 940 551 940 q 215 838 282 940 q 149 538 149 736 l 149 432 q 215 131 149 233 q 417 29 282 29 m 318 1438 q 369 1428 346 1438 q 425 1397 393 1418 q 478 1369 457 1378 q 518 1361 499 1361 q 564 1372 543 1361 q 607 1406 585 1383 l 629 1381 q 515 1322 582 1322 q 464 1332 488 1322 q 408 1363 440 1342 q 356 1390 376 1382 q 315 1399 335 1399 q 269 1388 290 1399 q 226 1354 249 1376 l 204 1379 q 318 1438 251 1438 m 446 1271 l 618 1086 l 589 1064 l 417 1235 l 244 1064 l 215 1086 l 388 1271 l 446 1271 z "},"Œ":{"ha":833,"x_min":76,"x_max":769,"o":"m 413 0 q 157 122 238 0 q 76 485 76 244 q 157 847 76 725 q 413 969 238 969 l 769 969 l 769 925 l 501 925 l 501 514 l 750 514 l 750 469 l 501 469 l 501 44 l 769 44 l 769 0 l 413 0 m 451 44 l 451 925 l 413 925 q 199 822 267 925 q 131 536 131 718 l 131 433 q 199 148 131 251 q 413 44 267 44 l 451 44 z "},"Ŕ":{"ha":833,"x_min":144,"x_max":736,"o":"m 194 0 l 144 0 l 144 969 l 486 969 q 673 898 610 969 q 736 704 736 826 q 675 514 736 585 q 496 440 614 443 l 456 440 l 733 0 l 675 0 l 400 439 l 194 439 l 194 0 m 486 483 q 573 499 536 483 q 634 540 610 514 q 670 600 658 565 q 682 674 682 635 l 682 735 q 670 807 682 772 q 634 867 658 842 q 573 908 610 893 q 486 924 536 924 l 194 924 l 194 483 l 486 483 m 401 1061 l 368 1079 l 514 1299 l 558 1275 l 401 1061 z "},"Ř":{"ha":833,"x_min":144,"x_max":736,"o":"m 194 0 l 144 0 l 144 969 l 486 969 q 673 898 610 969 q 736 704 736 826 q 675 514 736 585 q 496 440 614 443 l 456 440 l 733 0 l 675 0 l 400 439 l 194 439 l 194 0 m 486 483 q 573 499 536 483 q 634 540 610 514 q 670 600 658 565 q 682 674 682 635 l 682 735 q 670 807 682 772 q 634 867 658 842 q 573 908 610 893 q 486 924 536 924 l 194 924 l 194 483 l 486 483 m 389 1083 l 217 1271 l 246 1293 l 418 1119 l 590 1293 l 619 1271 l 447 1083 l 389 1083 z "},"Ŗ":{"ha":833,"x_min":144,"x_max":736,"o":"m 194 0 l 144 0 l 144 969 l 486 969 q 673 898 610 969 q 736 704 736 826 q 675 514 736 585 q 496 440 614 443 l 456 440 l 733 0 l 675 0 l 400 439 l 194 439 l 194 0 m 486 483 q 573 499 536 483 q 634 540 610 514 q 670 600 658 565 q 682 674 682 635 l 682 735 q 670 807 682 772 q 634 867 658 842 q 573 908 610 893 q 486 924 536 924 l 194 924 l 194 483 l 486 483 m 392 -93 l 454 -93 l 375 -349 l 336 -349 l 392 -93 z "},"Ś":{"ha":833,"x_min":85,"x_max":738,"o":"m 421 -17 q 305 -5 356 -17 q 214 28 254 7 q 142 80 174 50 q 85 144 111 110 l 124 175 q 242 67 175 107 q 421 28 310 28 q 617 85 547 28 q 686 250 686 142 q 669 342 686 304 q 624 404 653 379 q 555 443 594 429 q 469 464 515 457 l 358 482 q 237 519 285 494 q 161 578 189 544 q 122 652 133 611 q 110 736 110 693 q 193 924 110 863 q 417 986 276 986 q 608 949 535 986 q 724 849 681 911 l 686 817 q 579 910 643 878 q 414 942 515 942 q 228 891 294 942 q 161 738 161 840 q 177 650 161 686 q 222 590 193 614 q 289 551 250 565 q 375 529 328 536 l 485 511 q 608 473 560 499 q 686 413 657 447 q 726 336 715 378 q 738 251 738 294 q 653 51 738 119 q 421 -17 568 -17 m 392 1061 l 358 1079 l 504 1299 l 549 1275 l 392 1061 z "},"Š":{"ha":833,"x_min":85,"x_max":738,"o":"m 421 -17 q 305 -5 356 -17 q 214 28 254 7 q 142 80 174 50 q 85 144 111 110 l 124 175 q 242 67 175 107 q 421 28 310 28 q 617 85 547 28 q 686 250 686 142 q 669 342 686 304 q 624 404 653 379 q 555 443 594 429 q 469 464 515 457 l 358 482 q 237 519 285 494 q 161 578 189 544 q 122 652 133 611 q 110 736 110 693 q 193 924 110 863 q 417 986 276 986 q 608 949 535 986 q 724 849 681 911 l 686 817 q 579 910 643 878 q 414 942 515 942 q 228 891 294 942 q 161 738 161 840 q 177 650 161 686 q 222 590 193 614 q 289 551 250 565 q 375 529 328 536 l 485 511 q 608 473 560 499 q 686 413 657 447 q 726 336 715 378 q 738 251 738 294 q 653 51 738 119 q 421 -17 568 -17 m 379 1083 l 207 1271 l 236 1293 l 408 1119 l 581 1293 l 610 1271 l 438 1083 l 379 1083 z "}}}
